<svg width="16" height="16" viewBox="0 0 16 16" fill="none" xmlns="http://www.w3.org/2000/svg">
<path d="M7.87805 14.8406L6.57024 14.1687C5.98118 13.8656 5.6093 13.2469 5.6093 12.5703V8.56719C5.6093 8.47031 5.57805 8.37656 5.5218 8.29844L2.25774 3.82969C1.3968 2.65 2.21555 0.96875 3.64993 0.96875H12.3484C13.7843 0.96875 14.6046 2.65313 13.7421 3.83281L10.4812 8.29844C10.4249 8.37656 10.3937 8.47031 10.3937 8.56719V13.2422C10.3937 14.5703 9.0343 15.4344 7.87805 14.8406ZM7.27337 13.0312L8.14524 13.4797C8.57805 13.7016 9.08743 13.3781 9.08743 12.8813V8.26875C9.08743 8.075 9.14837 7.8875 9.26087 7.73281L12.4374 3.38281C12.7609 2.94062 12.4531 2.30938 11.9156 2.30938H4.08743C3.54837 2.30938 3.24055 2.94219 3.56399 3.38438L6.73899 7.73125C6.85149 7.88594 6.91399 8.075 6.91399 8.26875V12.4312C6.91243 12.6859 7.05305 12.9172 7.27337 13.0312Z" fill="#262626"/>
</svg>
