<svg width="14" height="14" viewBox="0 0 14 14" fill="none" xmlns="http://www.w3.org/2000/svg">
<g clip-path="url(#clip0_480_42)">
<path d="M14.0049 9.85059C14.0049 10.5506 13.7249 10.6906 12.6515 10.6906C12.3715 7.98393 11.0182 6.67727 9.61819 6.02393C10.5515 4.76393 10.5982 2.94393 9.71152 1.59059C10.7849 1.26393 11.9049 2.01059 12.1849 3.17727C12.4182 4.20393 11.9515 5.32393 11.0182 5.74393C12.7915 6.21059 14.0049 7.89059 14.0049 9.85059ZM8.26486 6.25727C9.99152 6.63059 11.9982 7.84393 11.9982 11.3439C11.9982 12.2773 10.8315 12.2773 7.05153 12.2773C3.22486 12.2773 2.10486 12.2773 2.10486 11.3439C2.10486 7.89059 4.11153 6.63059 5.83819 6.25727C4.48486 5.51059 4.01819 3.78393 4.67154 2.38393C5.32489 0.983932 6.9582 0.470594 8.2182 1.21727C9.4782 1.96395 9.99154 3.69059 9.29154 5.04393C9.0582 5.60393 8.68488 5.97727 8.26486 6.25727ZM4.39153 6.02393C2.99153 6.67727 1.63819 8.03059 1.35819 10.6906C0.284863 10.6906 0.00486305 10.5506 0.00486305 9.8506C-0.0884748 7.8906 1.17153 6.16393 2.94486 5.74393C1.91819 5.2306 1.45152 3.9706 1.91819 2.8506C2.33819 1.8706 3.31819 1.35727 4.29819 1.63727C3.41152 2.94393 3.45819 4.71727 4.39153 6.02393Z" fill="#595959"/>
</g>
<defs>
<clipPath id="clip0_480_42">
<rect width="14" height="14" fill="white"/>
</clipPath>
</defs>
</svg>
