<svg width="24" height="24" viewBox="0 0 24 24" fill="none" xmlns="http://www.w3.org/2000/svg">
<path d="M20.25 4.65039H17.7814C17.1197 4.65039 16.5525 4.17988 16.4301 3.52891L16.1787 2.17969C16.1486 2.01641 16.0068 1.90039 15.8414 1.90039H8.16074C7.99531 1.90039 7.85351 2.01855 7.82343 2.17969L7.56992 3.52676C7.44746 4.17773 6.88027 4.64824 6.21855 4.64824H3.75C2.23105 4.65039 1 5.88145 1 7.40039V19.4004C1 20.9193 2.23105 22.1504 3.75 22.1504H20.25C21.7689 22.1504 23 20.9193 23 19.4004V7.40039C23 5.88145 21.7689 4.65039 20.25 4.65039Z" fill="#737373"/>
<circle cx="12" cy="13.5254" r="4" fill="#CCCCCC"/>
<rect x="3" y="6.52539" width="4" height="2" rx="1" fill="#CCCCCC"/>
</svg>
