<svg width="24" height="24" viewBox="0 0 24 24" fill="none" xmlns="http://www.w3.org/2000/svg">
<path d="M12.0205 22.998C9.10861 22.998 6.31591 21.8398 4.25684 19.7783C2.36624 17.8854 1.23867 15.373 1.06641 12.7178C1.03596 12.4834 1.01855 12.2446 1.01855 12.002C1.01858 8.96217 3.4827 6.49816 6.52246 6.49805C9.41437 6.49805 11.7839 8.72818 12.0078 11.5625C11.9961 11.7088 11.9883 11.8566 11.9883 12.0059C11.9883 15.0457 14.4523 17.5097 17.4922 17.5098C20.5321 17.5098 22.9961 15.0457 22.9961 12.0059V12.0049H23C23 14.9204 21.8433 17.7167 19.7842 19.7783C17.7251 21.8399 14.9324 22.998 12.0205 22.998Z" fill="#262626"/>
<circle cx="6.49625" cy="12.4567" r="2.29069" fill="#FA9819"/>
<path d="M11.9795 1C14.8914 1.00008 17.6841 2.15819 19.7432 4.21973C21.6351 6.11409 22.7647 8.6287 22.9355 11.2861C22.9651 11.5173 22.9805 11.7529 22.9805 11.9922C22.9805 15.0338 20.5183 17.4998 17.4805 17.5C14.5602 17.5 12.171 15.221 11.9902 12.3428C11.9975 12.2269 12.001 12.1099 12.001 11.9922C12.001 8.95046 9.53802 6.48438 6.5 6.48438C3.48655 6.48454 1.03916 8.91107 1 11.9189C1.01932 9.03 2.17408 6.26396 4.21582 4.21973C6.27491 2.15813 9.06751 1 11.9795 1Z" fill="#FA9819"/>
<circle cx="17.4865" cy="12.4567" r="2.29069" fill="#262626"/>
</svg>
