<svg width="24" height="24" viewBox="0 0 24 24" fill="none" xmlns="http://www.w3.org/2000/svg">
<path d="M1 18.444V8.8208C1 6.08352 0.999997 4.71488 1.53289 3.66885C2.00159 2.74915 2.74946 2.00142 3.66932 1.5328C4.71554 1 6.08444 1 8.82222 1H15.1778C17.9156 1 19.2845 0.999997 20.3307 1.53279C21.2505 2.00141 21.9984 2.74915 22.4671 3.66885C23 4.71488 23 6.08352 23 8.8208V10.2872C23 13.0245 23 14.3931 22.4671 15.4391C21.9984 16.3588 21.2505 17.1066 20.3307 17.5752C19.2845 18.108 17.9156 18.108 15.1778 18.108H9.99555C9.38199 18.108 9.07522 18.108 8.788 18.1789C8.5332 18.2414 8.29012 18.3446 8.06811 18.4844C7.81755 18.6432 7.60489 18.8632 7.17956 19.3031L6.0441 20.4799C4.46743 22.1137 3.67912 22.9312 3.00079 22.9923C2.41176 23.0463 1.83284 22.8129 1.44611 22.3654C0.999997 21.8497 1 20.7157 1 18.444Z" fill="white"/>
<rect x="6" y="5" width="5" height="5" rx="1" fill="#FA9819"/>
<rect x="14.75" y="8.75" width="3.5" height="3.5" rx="0.7" fill="#FA9819"/>
</svg>
