<svg width="24" height="24" viewBox="0 0 24 24" fill="none" xmlns="http://www.w3.org/2000/svg">
<path d="M20 4C21.105 4 22 4.895 22 6V18C22 19.105 21.105 20 20 20H4C2.895 20 2 19.105 2 18L2.00977 6C2.00977 4.895 2.895 4 4 4H20ZM20 7.53027C20 6.86423 19.267 6.45756 18.7021 6.81055L12.5293 10.6689C12.2051 10.8713 11.7938 10.8715 11.4697 10.6689L5.29688 6.81055C4.73212 6.45797 4 6.86438 4 7.53027C4.0001 7.82255 4.15058 8.09411 4.39844 8.24902L11.4697 12.6689C11.7938 12.8715 12.2051 12.8713 12.5293 12.6689L19.6016 8.24902C19.8493 8.09408 19.9999 7.82244 20 7.53027Z" fill="#FA9819"/>
</svg>
