<svg width="24" height="24" viewBox="0 0 24 24" fill="none" xmlns="http://www.w3.org/2000/svg">
<path d="M14.05 4.7002L9.5094 8.49968C8.95421 8.96411 8.25191 9.22028 7.52966 9.22028H0.75V19.5826C0.75 20.9844 1.88569 22.1251 3.28125 22.1251H20.7188C22.1143 22.1251 23.25 20.9844 23.25 19.5826V7.24275C23.25 5.84095 22.1143 4.7002 20.7188 4.7002H14.05Z" fill="#262626"/>
<path d="M3.28125 1.875C1.88569 1.875 0.75 3.01576 0.75 4.41755V7.52511H7.52966C7.85816 7.52511 8.17632 7.40868 8.42944 7.19736L11.7188 4.44404L9.5094 2.59451C8.95477 2.13063 8.25191 1.875 7.52966 1.875H3.28125Z" fill="#FA9819"/>
<rect x="15" y="14" width="5" height="5" rx="2.5" fill="#FA9819"/>
</svg>
