<svg width="420" height="70" viewBox="0 0 420 70" fill="none" xmlns="http://www.w3.org/2000/svg">
<g clip-path="url(#clip0_603_39)">
<path d="M420 69.5H-36V52.5393C-9.57642 64.1782 2.16299 57.6292 14.5299 50.73C22.4674 46.3019 30.6635 41.7295 43.1667 41.7295C67.8667 41.7295 73.5666 55.6644 101.75 55.6644C133.1 55.6644 147.667 44.5985 174.9 44.5985C188.806 44.5985 200.317 47.4836 211.584 50.3075C222.383 53.0141 232.957 55.6644 245.2 55.6644C301.567 55.6643 314.867 40.5 344.95 40.5C386.75 40.5 396.567 57.0476 420 57.048V69.5Z" fill="#FA9819" fill-opacity="0.08"/>
<path d="M-15 72.5H420V47.8338C377.297 72.4548 354.927 59.0976 333.235 46.1454C320.86 38.7567 308.707 31.4998 293.125 31.5C250.229 31.5005 242.073 59.1667 191.021 59.1667C155.073 59.1667 152.958 40.5 113.688 40.5C90.7292 40.5 68.375 59.1667 29.4062 59.1671C13.4965 59.1673 -1.30556 52.945 -15 40.5V72.5Z" fill="#FA9819" fill-opacity="0.12"/>
</g>
<defs>
<clipPath id="clip0_603_39">
<rect width="420" height="70" fill="white"/>
</clipPath>
</defs>
</svg>
