<svg width="24" height="24" viewBox="0 0 24 24" fill="none" xmlns="http://www.w3.org/2000/svg">
<path d="M12 15.5317C11.595 15.5317 11.22 15.695 10.935 15.9621C10.665 16.2441 10.5 16.6152 10.5 17.0159C10.5 17.4166 10.665 17.7876 10.935 18.0696C11.22 18.3367 11.595 18.5 12 18.5C12.405 18.5 12.78 18.3367 13.065 18.0696C13.35 17.7876 13.5 17.4166 13.5 17.0159C13.5 16.6152 13.35 16.2441 13.065 15.9621C12.78 15.695 12.405 15.5317 12 15.5317ZM12 10.5159C11.595 10.5159 11.22 10.6791 10.935 10.9463C10.665 11.2283 10.5 11.5993 10.5 12C10.5 12.4007 10.665 12.7717 10.935 13.0537C11.22 13.3209 11.595 13.4841 12 13.4841C12.405 13.4841 12.78 13.3209 13.065 13.0537C13.35 12.7717 13.5 12.4007 13.5 12C13.5 11.5993 13.35 11.2283 13.065 10.9463C12.78 10.6791 12.405 10.5159 12 10.5159ZM12 5.5C11.595 5.5 11.22 5.66325 10.935 5.9304C10.665 6.21238 10.5 6.58341 10.5 6.98413C10.5 7.38484 10.665 7.75587 10.935 8.03786C11.22 8.305 11.595 8.46825 12 8.46825C12.405 8.46825 12.78 8.305 13.065 8.03786C13.35 7.75587 13.5 7.38484 13.5 6.98413C13.5 6.58341 13.35 6.21238 13.065 5.9304C12.78 5.66325 12.405 5.5 12 5.5Z" fill="#262626"/>
</svg>
