<svg width="24" height="24" viewBox="0 0 24 24" fill="none" xmlns="http://www.w3.org/2000/svg">
<path d="M10.4639 15.0483C10.3519 14.3923 10.3839 13.8163 10.5599 13.3203C10.7519 12.8083 11.0319 12.3523 11.3999 11.9523C11.7679 11.5363 12.1679 11.1603 12.5999 10.8243C13.0479 10.4723 13.4639 10.1363 13.8479 9.81633C14.2479 9.48033 14.5759 9.13633 14.8319 8.78433C15.1039 8.41633 15.2399 8.02433 15.2399 7.60833C15.2399 7.08033 15.1119 6.62433 14.8559 6.24033C14.5999 5.85633 14.2159 5.56033 13.7039 5.35233C13.2079 5.12833 12.5919 5.01633 11.8559 5.01633C11.0719 5.01633 10.3279 5.18433 9.62385 5.52033C8.93585 5.85633 8.27185 6.36833 7.63185 7.05633L6.04785 5.59233C6.81585 4.72833 7.70385 4.04033 8.71185 3.52833C9.71985 3.00033 10.8719 2.73633 12.1679 2.73633C13.3039 2.73633 14.3039 2.92033 15.1679 3.28833C16.0319 3.64033 16.7039 4.16033 17.1839 4.84833C17.6799 5.53633 17.9279 6.37633 17.9279 7.36833C17.9279 7.96033 17.7919 8.48833 17.5199 8.95233C17.2639 9.40033 16.9279 9.80833 16.5119 10.1763C16.1119 10.5443 15.6799 10.9043 15.2159 11.2563C14.7679 11.5923 14.3519 11.9443 13.9679 12.3123C13.5999 12.6643 13.3119 13.0643 13.1039 13.5123C12.8959 13.9443 12.8319 14.4563 12.9119 15.0483H10.4639ZM11.7119 21.1683C11.1999 21.1683 10.7759 21.0003 10.4399 20.6643C10.1039 20.3283 9.93585 19.8883 9.93585 19.3443C9.93585 18.8003 10.1039 18.3603 10.4399 18.0243C10.7919 17.6883 11.2159 17.5203 11.7119 17.5203C12.2079 17.5203 12.6319 17.6883 12.9839 18.0243C13.3359 18.3603 13.5119 18.8003 13.5119 19.3443C13.5119 19.8883 13.3359 20.3283 12.9839 20.6643C12.6319 21.0003 12.2079 21.1683 11.7119 21.1683Z" fill="#262626"/>
</svg>
