<svg width="24" height="24" viewBox="0 0 24 24" fill="none" xmlns="http://www.w3.org/2000/svg">
<path d="M19.5014 9.09902C19.3014 9.09902 19.2014 9.09902 19.0014 8.99902C18.6014 8.79903 18.4014 8.29903 18.5014 7.89902C18.5014 7.89902 18.8014 6.69902 18.1014 5.89902C17.7014 5.29902 16.9014 4.99902 15.7014 4.99902C15.1014 4.99902 14.7014 4.59902 14.7014 3.99902C14.7014 3.39902 15.1014 2.99902 15.7014 2.99902C17.5014 2.99902 18.9014 3.49902 19.7014 4.59902C20.0014 4.99902 20.2014 5.39902 20.4014 5.79902L20.9014 5.29902C21.3014 4.89902 21.9014 4.89902 22.3014 5.29902C22.7014 5.69902 22.7014 6.29902 22.3014 6.69902L20.3014 8.79903C20.0014 8.99902 19.8014 9.09902 19.5014 9.09902Z" fill="#262626"/>
<path d="M1.00098 4C1.00098 2.89543 1.89641 2 3.00098 2H11.001C12.1055 2 13.001 2.89543 13.001 4V20C13.001 21.1046 12.1055 22 11.001 22H3.00098C1.89641 22 1.00098 21.1046 1.00098 20V4Z" fill="#262626"/>
<path d="M3.00098 12C3.00098 10.8954 3.89641 10 5.00098 10H21.001C22.1055 10 23.001 10.8954 23.001 12V20C23.001 21.1046 22.1055 22 21.001 22H5.00098C3.89641 22 3.00098 21.1046 3.00098 20V12Z" fill="#262626"/>
<path d="M5.5 13.5C5.5 12.9477 5.94772 12.5 6.5 12.5H19.5C20.0523 12.5 20.5 12.9477 20.5 13.5V18.5C20.5 19.0523 20.0523 19.5 19.5 19.5H6.5C5.94772 19.5 5.5 19.0523 5.5 18.5V13.5Z" fill="#FA9819"/>
<path d="M8.00098 15.25C8.00098 14.5596 8.56062 14 9.25098 14H16.751C17.4413 14 18.001 14.5596 18.001 15.25C18.001 15.9404 17.4413 16.5 16.751 16.5H9.25098C8.56062 16.5 8.00098 15.9404 8.00098 15.25Z" fill="#262626"/>
<path d="M5.75 7.2002H8.25C8.27761 7.2002 8.2998 7.22239 8.2998 7.25C8.2998 7.27761 8.27761 7.2998 8.25 7.2998H5.75C5.72239 7.2998 5.7002 7.27761 5.7002 7.25C5.7002 7.22239 5.72239 7.2002 5.75 7.2002Z" stroke="#FA9819" stroke-width="2.4"/>
</svg>
