<svg width="24" height="24" viewBox="0 0 24 24" fill="none" xmlns="http://www.w3.org/2000/svg">
<path d="M22.6392 13.3072L14.1476 21.6534C13.4261 22.419 12.2515 21.8334 12.2515 20.7067V16.5023C11.9643 16.4788 11.6765 16.4668 11.3885 16.4662C7.49852 16.4662 4.10954 18.4895 2.32853 21.4901C1.96153 22.1029 1.12996 21.869 1.05896 21.1295C1.01945 20.7286 0.999798 20.3256 1 19.9223C1 13.6278 5.88302 8.41831 12.2556 7.49941V3.29327C12.2556 2.1666 13.4305 1.58104 14.1515 2.3466L22.6431 11.4194C23.1196 11.9239 23.1197 12.7983 22.6392 13.3072Z" fill="#262626"/>
<path d="M18.682 11.7065C18.8534 11.8648 18.8534 12.1357 18.682 12.2941L15.6176 15.1248C15.4292 15.2988 15.1281 15.2531 14.9998 15.031L13.3655 12.2003C13.2941 12.0765 13.2941 11.924 13.3655 11.8003L14.9998 8.96958C15.1281 8.74746 15.4292 8.70172 15.6176 8.87576L18.682 11.7065Z" fill="#FA9819"/>
</svg>
