<svg width="24" height="24" viewBox="0 0 24 24" fill="none" xmlns="http://www.w3.org/2000/svg">
<path d="M12.0033 1C14.5626 1 16.7813 2.7358 17.5035 5.2075C17.5213 5.2724 17.5346 5.3362 17.5412 5.4011L18.3733 5.4C20.0621 5.39986 21.4833 6.65394 21.6792 8.3172L22.9771 19.3172C23.2081 21.2787 21.6617 23.0008 19.6701 23H4.32878C2.33764 23.0002 0.791927 21.2782 1.0229 19.3172L2.32085 8.3172C2.5167 6.65436 3.93723 5.40042 5.62561 5.4H6.45987C6.46652 5.345 6.47872 5.2878 6.49425 5.2317C7.20978 2.7479 9.43516 1 12.0033 1ZM12.0033 3.2C10.5967 3.2 9.34087 4.08 8.78286 5.4H15.2227C14.6636 4.08 13.4089 3.2 12.0033 3.2Z" fill="#737373"/>
<path d="M15.0767 10.2604C15.3257 9.63495 16.0463 9.37323 16.649 9.56221C17.2698 9.75726 17.6852 10.4134 17.4214 11.0749C16.5926 13.155 14.4037 14.5005 12.0005 14.5007C9.59727 14.5007 7.40859 13.155 6.57964 11.0749C6.31616 10.4133 6.73107 9.75705 7.3521 9.56221C7.95446 9.37362 8.67525 9.63533 8.92437 10.2604C9.36931 11.3758 10.5849 12.1667 12.0005 12.1667C13.4161 12.1665 14.6319 11.3758 15.0767 10.2604Z" fill="#CCCCCC"/>
</svg>
