<svg width="24" height="24" viewBox="0 0 24 24" fill="none" xmlns="http://www.w3.org/2000/svg">
<path d="M20.3252 9.1709C21.2328 9.26359 21.9422 10.0306 21.9424 10.9629L21.9326 11.4199C21.7222 16.0265 18.3542 19.8177 13.9492 20.6895V22C13.949 22.4872 13.7058 22.8738 13.4092 23.1318L13.2793 23.2344C12.9693 23.4565 12.5877 23.5854 12.1924 23.6143L12.0215 23.6201C11.6232 23.62 11.2298 23.5195 10.9004 23.3242L10.7637 23.2344C10.4554 23.0132 10.1741 22.6603 10.1084 22.2002L10.1064 22.1904V22.1787L10.0947 22.0225L10.0938 22.0117V20.6895C5.68869 19.8179 2.32175 16.0266 2.11133 11.4199L2.09961 10.9629C2.09984 9.96845 2.9079 9.16234 3.90234 9.16211L4.08594 9.1709C4.99365 9.26347 5.70389 10.0305 5.7041 10.9629C5.70458 14.4453 8.53916 17.2811 12.0215 17.2812L12.3467 17.2734C15.6784 17.1031 18.3394 14.336 18.3398 10.9629C18.3401 9.96852 19.1462 9.16238 20.1406 9.16211L20.3252 9.1709Z" fill="#262626"/>
<path d="M12 1C14.7614 1 17 3.23858 17 6V11C17 13.7614 14.7614 16 12 16C9.23858 16 7 13.7614 7 11V6C7 3.23858 9.23858 1 12 1Z" fill="#262626"/>
<rect x="9.88989" y="5.05957" width="4.21031" height="7.36804" rx="2.10516" fill="#FA9819"/>
<rect x="3.29297" y="2.70703" width="3" height="23.7766" rx="1.5" transform="rotate(-45 3.29297 2.70703)" fill="#262626"/>
</svg>
