<svg width="24" height="24" viewBox="0 0 24 24" fill="none" xmlns="http://www.w3.org/2000/svg">
<path d="M2.00098 4C2.00098 2.89543 2.89641 2 4.00098 2H12.001C13.1055 2 14.001 2.89543 14.001 4V20C14.001 21.1046 13.1055 22 12.001 22H4.00098C2.89641 22 2.00098 21.1046 2.00098 20V4Z" fill="#737373"/>
<path d="M2.00098 12C2.00098 10.8954 2.89641 10 4.00098 10H20.001C21.1055 10 22.001 10.8954 22.001 12V20C22.001 21.1046 21.1055 22 20.001 22H4.00098C2.89641 22 2.00098 21.1046 2.00098 20V12Z" fill="#737373"/>
<path d="M14.001 14H17.751C18.4413 14 19.001 14.5596 19.001 15.25C19.001 15.9404 18.4413 16.5 17.751 16.5H14.001V14Z" fill="#CCCCCC"/>
<path d="M4.5 5.5C4.5 4.94772 4.94772 4.5 5.5 4.5H10.5C11.0523 4.5 11.5 4.94772 11.5 5.5V18.5C11.5 19.0523 11.0523 19.5 10.5 19.5H5.5C4.94772 19.5 4.5 19.0523 4.5 18.5V5.5Z" fill="#CCCCCC"/>
<path d="M6.75 7.2002H9.25C9.27761 7.2002 9.2998 7.22239 9.2998 7.25C9.2998 7.27761 9.27761 7.2998 9.25 7.2998H6.75C6.72239 7.2998 6.7002 7.27761 6.7002 7.25C6.7002 7.22239 6.72239 7.2002 6.75 7.2002Z" stroke="#737373" stroke-width="2.4"/>
<path d="M15.9014 4.49941C15.9014 4.69941 15.9014 4.79941 16.0014 4.99941C16.2014 5.39941 16.7014 5.59941 17.1014 5.49941C17.1014 5.49941 18.3014 5.19941 19.1014 5.89941C19.7014 6.29941 20.0014 7.09941 20.0014 8.29941C20.0014 8.89942 20.4014 9.29941 21.0014 9.29941C21.6014 9.29941 22.0014 8.89941 22.0014 8.29941C22.0014 6.49941 21.5014 5.09941 20.4014 4.29941C20.0014 3.99941 19.6014 3.79941 19.2014 3.59941L19.7014 3.09941C20.1014 2.69941 20.1014 2.09941 19.7014 1.69941C19.3014 1.29941 18.7014 1.29941 18.3014 1.69941L16.2014 3.69941C16.0014 3.99941 15.9014 4.19941 15.9014 4.49941Z" fill="#737373"/>
</svg>
