<svg width="44" height="140" viewBox="0 0 44 140" fill="none" xmlns="http://www.w3.org/2000/svg">
<path d="M0 70C6.41463 69.6479 10.8067 63.495 13.0403 60.6338C14.9486 58.1894 16.3233 53.1551 16.3233 47.9902V24.4746C16.3233 16.8448 18.1556 10.9756 21.8209 6.86719C25.601 2.28922 31.0423 2.71101e-06 38.1442 0H44V11.0928H36.4746C31.6452 11.0928 29.0378 12.9999 29.0377 18.1221V48.5186C29.0377 59.0831 29.0373 63.0791 21.3921 70C29.0373 76.9209 29.0377 80.9169 29.0377 91.4814V121.878C29.0378 127 31.6452 128.907 36.4746 128.907H44V140H38.1442C31.0423 140 25.601 137.711 21.8209 133.133C18.1556 129.024 16.3233 123.155 16.3233 115.525V92.0098C16.3233 86.8449 14.9486 81.8106 13.0403 79.3662C10.8067 76.505 6.41463 70.3521 0 70Z" fill="white"/>
</svg>
