<svg width="22" height="70" viewBox="0 0 22 70" fill="none" xmlns="http://www.w3.org/2000/svg">
<path d="M22 35C18.7927 34.8239 16.5966 31.7475 15.4798 30.3169C14.5257 29.0947 13.8384 26.5776 13.8384 23.9951V12.2373C13.8384 8.42241 12.9222 5.48781 11.0895 3.43359C9.19951 1.14461 6.47886 1.35551e-06 2.9279 0H0V5.54639H3.76269C6.17742 5.54639 7.48109 6.49996 7.48115 9.06104V24.2593C7.48115 29.5416 7.48137 31.5396 11.304 35C7.48137 38.4604 7.48115 40.4584 7.48115 45.7407V60.939C7.48109 63.5 6.17742 64.4536 3.76269 64.4536H0V70H2.9279C6.47886 70 9.19951 68.8554 11.0895 66.5664C12.9222 64.5122 13.8384 61.5776 13.8384 57.7627V46.0049C13.8384 43.4224 14.5257 40.9053 15.4798 39.6831C16.5966 38.2525 18.7927 35.1761 22 35Z" fill="white"/>
</svg>
