<svg width="47" height="46" viewBox="0 0 47 46" fill="none" xmlns="http://www.w3.org/2000/svg">
<g id="tabler:egg-cracked-filled">
<path id="Vector" d="M22.4649 3.98161L19.2218 14.7926L19.1663 15.0281C19.1076 15.3817 19.1494 15.7446 19.2868 16.0756C19.4242 16.4066 19.6518 16.6924 19.9436 16.9005L25.2352 20.6796L22.2658 25.8794C22.134 26.0979 22.0472 26.3406 22.0105 26.5932C21.9738 26.8457 21.988 27.1031 22.0523 27.3501C22.1165 27.5971 22.2295 27.8288 22.3846 28.0315C22.5396 28.2342 22.7337 28.4039 22.9553 28.5305C23.1769 28.6571 23.4216 28.7382 23.6749 28.7689C23.9283 28.7995 24.1853 28.7793 24.4307 28.7092C24.6761 28.6391 24.905 28.5207 25.104 28.3609C25.303 28.201 25.468 28.003 25.5894 27.7785L29.4183 21.0779L29.5179 20.8768C29.6884 20.4758 29.717 20.0287 29.599 19.6093C29.481 19.1898 29.2234 18.8232 28.8689 18.5699L23.2824 14.5782L26.3896 4.22091C33.3602 6.27706 39.2434 16.6592 39.2434 26.9878C39.2434 35.7753 32.9773 41.7484 23.9276 42.1447C14.8339 42.1447 8.61182 35.9993 8.61182 26.9878C8.61182 16.1634 15.0674 5.27005 22.4649 3.98161Z" fill="white"/>
</g>
</svg>
