<svg width="204" height="135" viewBox="0 0 204 135" fill="none" xmlns="http://www.w3.org/2000/svg">
<path d="M84 0C99.464 0 112 12.536 112 28V84C112 99.464 99.464 112 84 112H28C12.536 112 0 99.464 0 84V28C0 12.536 12.536 0 28 0H84ZM43.75 33.25C37.951 33.25 33.25 37.951 33.25 43.75V68.25C33.25 74.049 37.951 78.75 43.75 78.75H68.25C74.049 78.75 78.75 74.049 78.75 68.25V43.75C78.75 37.951 74.049 33.25 68.25 33.25H43.75Z" fill="#FA9819"/>
<path d="M195 99C199.971 99 204 103.029 204 108V126C204 130.971 199.971 135 195 135H177C172.029 135 168 130.971 168 126V108C168 103.029 172.029 99 177 99H195ZM182.062 109.688C180.199 109.688 178.688 111.199 178.688 113.062V120.938C178.688 122.801 180.199 124.312 182.062 124.312H189.938C191.801 124.312 193.312 122.801 193.312 120.938V113.062C193.312 111.199 191.801 109.688 189.938 109.688H182.062Z" fill="#FA9819"/>
</svg>
