<svg width="36" height="36" viewBox="0 0 36 36" fill="none" xmlns="http://www.w3.org/2000/svg">
<rect width="36" height="36" rx="8" fill="white"/>
<path d="M18 6C24.6274 6 30 11.3726 30 18C30 24.6274 24.6274 30 18 30C11.3726 30 6 24.6274 6 18C6 11.3726 11.3726 6 18 6ZM18 12C17.444 12 17 12.4461 17 12.9971V19.0029C16.9983 19.265 17.1014 19.5172 17.2861 19.7031L20.1279 22.5449C20.518 22.9326 21.149 22.9296 21.5352 22.5381C21.9228 22.1503 21.9258 21.5225 21.542 21.1309L19 18.5889V12.9971C19 12.4531 18.552 12 18 12Z" fill="#595959"/>
</svg>

