<svg width="24" height="24" viewBox="0 0 24 24" fill="none" xmlns="http://www.w3.org/2000/svg">
<path d="M18.6038 5.00022C18.3928 5.00521 18.1923 5.09339 18.046 5.24554L12.2116 11.0799L6.37722 5.24554C6.30266 5.1689 6.21351 5.10798 6.11502 5.06639C6.01652 5.02479 5.91069 5.00335 5.80378 5.00335C5.64463 5.00339 5.48911 5.05089 5.35711 5.13978C5.2251 5.22867 5.1226 5.35491 5.06271 5.50236C5.00283 5.64981 4.98828 5.81177 5.02092 5.96754C5.05356 6.1233 5.13192 6.26579 5.24597 6.37679L11.0803 12.2112L5.24597 18.0455C5.16919 18.1193 5.10789 18.2075 5.06566 18.3052C5.02343 18.403 5.00112 18.5081 5.00004 18.6145C4.99896 18.721 5.01912 18.8265 5.05935 18.9251C5.09959 19.0236 5.15907 19.1131 5.23434 19.1884C5.3096 19.2637 5.39912 19.3232 5.49767 19.3634C5.59621 19.4036 5.70179 19.4238 5.80822 19.4227C5.91465 19.4216 6.0198 19.3993 6.1175 19.3571C6.2152 19.3149 6.3035 19.2536 6.37722 19.1768L12.2116 13.3424L18.046 19.1768C18.1197 19.2536 18.208 19.3149 18.3057 19.3571C18.4034 19.3993 18.5085 19.4216 18.615 19.4227C18.7214 19.4238 18.827 19.4036 18.9255 19.3634C19.0241 19.3232 19.1136 19.2637 19.1888 19.1884C19.2641 19.1132 19.3236 19.0236 19.3638 18.9251C19.4041 18.8265 19.4242 18.721 19.4231 18.6145C19.4221 18.5081 19.3998 18.403 19.3575 18.3052C19.3153 18.2075 19.254 18.1193 19.1772 18.0455L13.3428 12.2112L19.1772 6.37679C19.2934 6.26506 19.3731 6.12086 19.406 5.96305C19.4388 5.80525 19.4232 5.64121 19.3612 5.49242C19.2992 5.34363 19.1938 5.21703 19.0586 5.1292C18.9234 5.04138 18.7649 4.99642 18.6038 5.00022Z" fill="#262626"/>
</svg>

