<svg width="16" height="16" viewBox="0 0 16 16" fill="none" xmlns="http://www.w3.org/2000/svg">
<path d="M4.94235 9.50532C4.94235 9.50532 3.12835 10.5053 3.05804 12.0714C2.98772 13.6375 1.514 14.7773 1.02264 14.9196C0.531288 15.0618 8.2058 15.3845 7.64379 12.0377L4.94235 9.50532ZM8.31472 10.5686C8.59429 10.8439 8.66495 11.2298 8.47272 11.4307C8.28049 11.6316 7.89824 11.5711 7.61883 11.2961L5.76875 9.50532C5.48918 9.23024 5.41853 8.84428 5.61076 8.64323C5.80298 8.44218 6.18524 8.50289 6.46464 8.77779L8.31472 10.5686ZM14.731 1.15833C14.2295 0.813254 13.7788 1.12325 13.5844 1.23535C13.004 1.62955 8.85312 5.72243 7.04941 7.61256C6.82785 7.91202 6.67845 8.14447 7.74075 9.22199C8.63712 10.1314 9.05496 10.072 9.50888 9.67917C10.265 8.91252 13.4837 4.36018 14.6727 2.62444C14.8679 2.33936 15.2679 1.5285 14.731 1.15833Z" fill="#262626"/>
</svg>

