<svg width="32" height="32" viewBox="0 0 32 32" fill="none" xmlns="http://www.w3.org/2000/svg">
<path fill-rule="evenodd" clip-rule="evenodd" d="M25.6752 12.2876V22.1925C25.6752 22.8556 25.4444 23.4217 24.9828 23.8906C24.5215 24.3592 23.9648 24.5935 23.3127 24.5935H8.6877C8.03563 24.5935 7.47894 24.3592 7.01763 23.8906C6.55601 23.4217 6.3252 22.8556 6.3252 22.1925L6.3252 9.81057C6.3252 9.1477 6.556 8.58185 7.01762 8.113C7.47896 7.64444 8.03565 7.41016 8.6877 7.41016L12.1814 7.41016C12.6372 7.41233 13.0571 7.53624 13.4412 7.78189C13.8253 8.02754 14.114 8.35687 14.3073 8.76986L14.8313 9.88612H23.3127C23.9648 9.88612 24.5215 10.1204 24.9828 10.5891C25.4444 11.0581 25.6752 11.6243 25.6752 12.2876ZM8.05983 9.17518C7.88674 9.35089 7.8002 9.56287 7.8002 9.81112V13.0061H24.2002V12.2876C24.2002 12.0391 24.1137 11.827 23.9406 11.6512C23.7672 11.4751 23.5579 11.3871 23.3127 11.3871H14.3752C14.0639 11.3851 13.8429 11.2427 13.712 10.9599L12.9887 9.42436C12.9159 9.26747 12.8065 9.14254 12.6603 9.04957C12.5141 8.95661 12.3544 8.91047 12.1812 8.91116L8.6877 8.91116C8.4425 8.91116 8.23321 8.99916 8.05983 9.17518ZM24.2002 22.1925V14.5071H7.8002V22.1925C7.8002 22.4408 7.88674 22.6528 8.05983 22.8285C8.23321 23.0045 8.4425 23.0925 8.6877 23.0925H23.3127C23.5579 23.0925 23.7672 23.0045 23.9406 22.8285C24.1137 22.6528 24.2002 22.4408 24.2002 22.1925Z" fill="#262626"/>
</svg>

