<svg width="24" height="24" viewBox="0 0 24 24" fill="none" xmlns="http://www.w3.org/2000/svg">
<path d="M0 4C0 1.79086 1.79086 0 4 0H20C22.2091 0 24 1.79086 24 4V20C24 22.2091 22.2091 24 20 24H4C1.79086 24 0 22.2091 0 20V4Z" fill="#E6E6E6"/>
<path d="M16.9845 20L7.01547 20C5.34537 20 4 18.6546 4 16.9845V7.01545C4 5.34535 5.34539 4 7.01549 4H16.9845C18.6546 4 20 5.34535 20 7.01545V16.9845C20 18.6546 18.6546 20 16.9845 20ZM7.01549 5.39175C6.13405 5.39175 5.39175 6.13401 5.39175 7.01545L5.39175 16.9845C5.39175 17.866 6.13403 18.6082 7.01547 18.6082L16.9845 18.6082C17.8659 18.6082 18.6082 17.8659 18.6082 16.9845V7.01545C18.6082 6.13401 17.8659 5.39175 16.9845 5.39175H7.01549Z" fill="#262626"/>
</svg>

