<svg width="32" height="32" viewBox="0 0 32 32" fill="none" xmlns="http://www.w3.org/2000/svg">
<path d="M0 8C0 3.58172 3.58172 0 8 0H24C28.4183 0 32 3.58172 32 8V24C32 28.4183 28.4183 32 24 32H8C3.58172 32 0 28.4183 0 24V8Z" fill="#F5F5F5"/>
<path d="M25.9995 16.9903V22.0078C25.9995 23.5266 24.7683 24.7578 23.2495 24.7578H8.74951C7.23076 24.7578 5.99951 23.5266 5.99951 22.0078V10.0078C5.99951 8.48906 7.23076 7.25781 8.74951 7.25781H23.2495C24.7683 7.25781 25.9995 8.48906 25.9995 10.0078V16.9903ZM24.4995 15.2413V10.0078C24.4995 9.31746 23.9399 8.75781 23.2495 8.75781H8.74951C8.05916 8.75781 7.49951 9.31746 7.49951 10.0078V18.0816C7.83058 18.0324 8.16482 18.0077 8.49951 18.0078C10.0677 18.0055 11.5873 18.5514 12.7955 19.5511C14.008 16.3918 17.052 14.2578 20.4995 14.2578C22.0395 14.2578 23.476 14.6511 24.4995 15.2413ZM24.4995 17.1688C24.3745 16.9738 24.0043 16.6613 23.4765 16.3973C22.6738 15.9958 21.649 15.7578 20.4995 15.7578C17.6455 15.7578 15.1293 17.5453 14.1613 20.1803C14.0973 20.3548 13.9878 20.6566 13.8333 21.0846C13.6533 21.5838 13.0258 21.7433 12.6293 21.3906C12.244 21.0476 11.96 20.8031 11.7823 20.6606C10.8519 19.9125 9.69333 19.5057 8.49951 19.5078C8.16051 19.5078 7.82626 19.5398 7.49951 19.6028V22.0078C7.49951 22.6982 8.05916 23.2578 8.74951 23.2578H23.2495C23.9399 23.2578 24.4995 22.6982 24.4995 22.0078V17.1688ZM11.4995 15.2578C10.2569 15.2578 9.24951 14.2505 9.24951 13.0078C9.24951 11.7652 10.2569 10.7578 11.4995 10.7578C12.7422 10.7578 13.7495 11.7652 13.7495 13.0078C13.7495 14.2505 12.7422 15.2578 11.4995 15.2578ZM11.4995 13.7578C11.9137 13.7578 12.2495 13.422 12.2495 13.0078C12.2495 12.5936 11.9137 12.2578 11.4995 12.2578C11.0853 12.2578 10.7495 12.5936 10.7495 13.0078C10.7495 13.422 11.0853 13.7578 11.4995 13.7578Z" fill="#262626"/>
</svg>

