<svg width="24" height="24" viewBox="0 0 24 24" fill="none" xmlns="http://www.w3.org/2000/svg">
<path d="M14.4938 20H6.59352C5.15711 20 4 18.84 4 17.4V9.48C4 8.04 5.15711 6.88 6.59352 6.88H14.4938C15.9302 6.88 17.0873 8.04 17.0873 9.48V17.4C17.0873 18.84 15.9302 20 14.4938 20ZM6.59352 8.08C5.83542 8.08 5.19701 8.72001 5.19701 9.48V17.4C5.19701 18.16 5.83542 18.8 6.59352 18.8H14.4938C15.2519 18.8 15.8903 18.16 15.8903 17.4V9.48C15.8903 8.72001 15.2519 8.08 14.4938 8.08H6.59352ZM17.2469 17.12C16.9277 17.12 16.6484 16.84 16.6484 16.52C16.6484 16.2 16.9277 15.92 17.2469 15.92C18.0848 15.92 18.7631 15.24 18.7631 14.4V6.6C18.7631 5.8 18.1646 5.2 17.3666 5.2H9.62593C8.78803 5.2 8.10974 5.88 8.10974 6.72C8.10974 7.04001 7.83042 7.32 7.51123 7.32C7.19204 7.32 6.91273 7.04001 6.91273 6.72C6.87282 5.2 8.10974 4 9.62593 4H17.4065C18.8429 4 20 5.16 20 6.6V14.4C19.9601 15.88 18.7631 17.12 17.2469 17.12Z" fill="#262626"/>
</svg>
