<svg width="16" height="16" viewBox="0 0 16 16" fill="none" xmlns="http://www.w3.org/2000/svg">
<path d="M14.3543 4.02126L13.2976 2.99423C13.103 2.80516 12.7871 2.80516 12.5926 2.99423L1.86718 13.4197C1.37758 13.8956 1.37761 14.6725 1.86724 15.1484C2.34968 15.6172 3.12653 15.6172 3.60894 15.1483L14.3527 4.70494C14.5488 4.51739 14.5488 4.21033 14.3543 4.02126ZM13.254 4.40697L11.5402 6.07259C11.4438 6.16628 11.2886 6.16628 11.1922 6.07259C11.0944 5.9775 11.0944 5.82225 11.1922 5.72715L12.9023 4.06513C12.9272 4.04093 12.9661 4.04093 12.991 4.06513L13.2555 4.32226C13.2789 4.34495 13.2789 4.38277 13.254 4.40697ZM9.10024 3.97437L7.03816 5.06947L5.9114 7.07211L4.78464 5.06947L2.72411 3.97437L4.78464 2.87927L5.9114 0.875117L7.03816 2.87927L9.10024 3.97437ZM9.14849 1.29712L9.98422 1.05965L9.73988 1.8719L9.98422 2.68415L9.14849 2.44516L8.31276 2.68415L8.55865 1.8719L8.31276 1.05965L9.14849 1.29712ZM3.88044 0.678483L4.50607 0.5L4.32242 1.10805L4.50607 1.71611L3.88044 1.53762L3.25481 1.71611L3.43845 1.10805L3.25481 0.5L3.88044 0.678483ZM13.4672 9.8386L13.9683 9.69642L13.822 10.1835L13.9683 10.6705L13.4672 10.5268L12.9661 10.6705L13.1139 10.1835L12.9661 9.69642L13.4672 9.8386Z" fill="#3D3D3D"/>
</svg>

