<svg width="16" height="16" viewBox="0 0 16 16" fill="none" xmlns="http://www.w3.org/2000/svg">
<path fill-rule="evenodd" clip-rule="evenodd" d="M12.1871 10.3332C11.9693 10.1161 11.7442 9.90731 11.5409 9.71307C11.5527 9.65284 11.5527 9.6364 11.5592 9.62202C11.5764 9.58551 11.5965 9.55086 11.6166 9.51528C12.2255 8.44109 12.4679 7.29293 12.3376 6.06176C11.9912 2.79155 8.86668 0.476091 5.63649 1.1026C2.50009 1.71175 0.44479 4.79781 1.13294 7.86379C1.98331 11.6529 6.08766 13.5069 9.48744 11.6329C9.6378 11.5508 9.7134 11.559 9.83194 11.6784C10.7826 12.6396 11.7406 13.5935 12.6958 14.5492C13.2736 15.1264 14.084 15.152 14.6189 14.6103C15.1494 14.0741 15.1239 13.2716 14.556 12.7025C13.7676 11.9118 12.9783 11.1212 12.1871 10.3332ZM10.6277 6.67072C10.6377 8.84936 8.8804 10.6085 6.67921 10.625C4.56632 10.6414 2.76899 8.86216 2.75798 6.74374C2.74612 4.55594 4.48437 2.76941 6.64365 2.75111C8.82757 2.73384 10.6177 4.49384 10.6277 6.67072ZM4.5465 6.2725C4.7227 5.45244 5.28902 4.76827 6.27562 4.54451C6.50704 4.49203 6.69442 4.30021 6.69248 4.06292L6.69245 4.05874C6.69046 3.82328 6.49716 3.63385 6.26342 3.66237C5.04245 3.81134 3.87592 4.82612 3.6718 6.23922C3.63716 6.47904 3.83696 6.67533 4.07927 6.67535C4.31101 6.67538 4.49781 6.49907 4.5465 6.2725Z" fill="#262626"/>
</svg>