<svg width="36" height="36" viewBox="0 0 36 36" fill="none" xmlns="http://www.w3.org/2000/svg">
<path d="M33.0065 22.4546V31.9573C33.0065 32.9209 32.2256 33.7023 31.262 33.7023H4.73859C3.77495 33.7023 2.99316 32.9209 2.99316 31.9573L2.99316 22.4546C2.99316 21.491 3.77448 20.7096 4.73813 20.7096C5.70177 20.7096 6.48309 21.491 6.48309 22.4546V30.2123H29.5165V22.4546C29.5165 21.491 30.2979 20.7096 31.2615 20.7096C32.2251 20.7096 33.0065 21.491 33.0065 22.4546ZM12.285 12.3662L16.2548 8.31309V23.4225C16.2548 24.3862 17.0361 25.1674 17.9998 25.1674C18.9634 25.1674 19.7447 24.3862 19.7447 23.4225V8.31327L23.7144 12.366C24.0562 12.715 24.5086 12.89 24.9614 12.89C25.4017 12.89 25.8428 12.7242 26.1822 12.3918C26.8707 11.7173 26.8823 10.6125 26.208 9.92412L19.2471 2.81699C18.9189 2.48177 18.4696 2.29297 18.0004 2.29297C17.5315 2.29297 17.0821 2.48177 16.7539 2.81681L9.79234 9.92393C9.11787 10.6126 9.12913 11.7173 9.81774 12.3916C10.5062 13.066 11.6109 13.0545 12.285 12.3662Z" fill="#FA9819"/>
</svg>

