<svg width="32" height="32" viewBox="0 0 32 32" fill="none" xmlns="http://www.w3.org/2000/svg">
<path fill-rule="evenodd" clip-rule="evenodd" d="M9.68746 7.85547C8.7705 7.85547 7.98561 8.17199 7.3328 8.80502C6.68092 9.43714 6.35498 10.1967 6.35498 11.0838V20.9172C6.35495 21.8042 6.68089 22.5638 7.3328 23.1959C7.98562 23.829 8.77051 24.1455 9.68746 24.1455L20.3749 24.1455C21.2919 24.1455 22.0768 23.829 22.7296 23.1959C23.3815 22.5638 23.7075 21.8042 23.7075 20.9172V20.7429L24.8064 21.324C25.3295 21.5972 25.8503 21.5774 26.3686 21.2647C26.8862 20.9524 27.145 20.5032 27.145 19.9171V13.5839C27.145 13.0074 26.8866 12.5689 26.37 12.2683C25.8592 11.9711 25.3371 11.9411 24.8038 12.1783L23.7075 12.7581L23.7075 11.0838C23.7075 10.1967 23.3815 9.43717 22.7296 8.80502C22.0768 8.17199 21.2919 7.85547 20.375 7.85547H9.68746ZM8.40051 22.1696C8.04263 21.8226 7.86368 21.4051 7.86368 20.9172V11.0838C7.86371 10.5958 8.04266 10.1783 8.40052 9.8313C8.75745 9.48515 9.18643 9.31208 9.68746 9.31208L20.375 9.31217C20.876 9.31215 21.3049 9.4852 21.6619 9.8313C22.0198 10.1783 22.1987 10.5958 22.1987 11.0838L22.1987 20.9172C22.1987 21.4051 22.0198 21.8226 21.6619 22.1696C21.3049 22.5157 20.876 22.6888 20.3749 22.6888L9.68745 22.6888C9.18645 22.6888 8.75747 22.5158 8.40051 22.1696ZM11.5973 17.8707C11.5973 18.4578 11.8694 18.9029 12.4135 19.206C12.9611 19.5111 13.496 19.5079 14.018 19.1963L17.2891 17.36L17.2931 17.3581C17.8103 17.1266 18.0689 16.7107 18.0689 16.1102C18.0689 15.5068 17.8086 15.0692 17.2881 14.7975L17.2866 14.7966L14.0187 12.9621L14.0166 12.9608C13.4955 12.6498 12.9611 12.6469 12.4135 12.9519C11.8694 13.2551 11.5973 13.7002 11.5973 14.2873V17.8707ZM25.6362 20.0847L23.7075 19.1496V14.3514L25.6362 13.4163V20.0847ZM13.106 14.108L16.528 16.0291L16.6911 16.1206L13.106 18.1334V14.108Z" fill="#262626"/>
</svg>

