<svg width="16" height="16" viewBox="0 0 16 16" fill="none" xmlns="http://www.w3.org/2000/svg">
<path d="M8.46635 3.00241C8.48315 3.00238 8.49996 3.00235 8.51676 3.00232C8.56277 3.00224 8.60877 3.00222 8.65478 3.00221C8.70447 3.00219 8.75415 3.00212 8.80384 3.00205C8.9124 3.00191 9.02096 3.00185 9.12952 3.00181C9.19734 3.00178 9.26517 3.00174 9.333 3.0017C9.52092 3.00157 9.70884 3.00147 9.89676 3.00144C9.90878 3.00144 9.92079 3.00143 9.93318 3.00143C9.95124 3.00143 9.95124 3.00143 9.96968 3.00143C9.99408 3.00142 10.0185 3.00142 10.0429 3.00141C10.055 3.00141 10.0671 3.00141 10.0796 3.00141C10.2757 3.00137 10.4719 3.00119 10.6681 3.00096C10.8696 3.00072 11.0712 3.0006 11.2727 3.00059C11.3858 3.00058 11.4989 3.00052 11.612 3.00034C11.7083 3.00019 11.8046 3.00014 11.9009 3.00022C11.95 3.00026 11.9991 3.00025 12.0482 3.00011C12.0932 2.99998 12.1383 3 12.1833 3.00012C12.1995 3.00014 12.2157 3.00011 12.2319 3.00002C12.4591 2.99887 12.6496 3.05205 12.8166 3.19972C12.9473 3.32704 12.9963 3.48292 12.9988 3.65562C12.9991 3.66551 12.9995 3.6754 13 3.68559C13.0024 3.89462 12.9101 4.10572 12.8477 4.3044C12.8279 4.36755 12.8082 4.43073 12.7884 4.49391C12.7808 4.5184 12.7731 4.5429 12.7654 4.56739C12.7323 4.67328 12.6996 4.77927 12.6671 4.88533C12.6598 4.90898 12.6526 4.93262 12.6453 4.95627C12.6176 5.04649 12.6176 5.04649 12.5901 5.13675C12.4985 5.43687 12.4123 5.69809 12.1789 5.92949C12.1697 5.93892 12.1605 5.94835 12.151 5.95807C11.9591 6.14983 11.7012 6.27774 11.4267 6.32755C11.4179 6.32923 11.4091 6.33092 11.4001 6.33265C11.3526 6.33887 11.3062 6.33918 11.2583 6.33938C11.2477 6.33947 11.2372 6.33955 11.2263 6.33964C11.1905 6.3399 11.1547 6.3401 11.1189 6.3403C11.0928 6.34047 11.0667 6.34065 11.0407 6.34084C10.9836 6.34123 10.9265 6.34159 10.8694 6.34192C10.8086 6.34228 10.7478 6.34268 10.687 6.34312C10.2912 6.34596 9.89541 6.3477 9.49963 6.34835C9.41687 6.34849 9.33411 6.34867 9.25135 6.34889C9.23967 6.34892 9.22799 6.34895 9.21595 6.34898C9.1688 6.3491 9.12164 6.34923 9.07449 6.34936C8.93383 6.34974 8.79317 6.34998 8.6525 6.34996C8.56312 6.34996 8.47373 6.35014 8.38434 6.35046C8.33216 6.35063 8.27998 6.35073 8.2278 6.3506C8.17956 6.35049 8.13133 6.3506 8.08309 6.3509C8.06559 6.35096 8.04808 6.35095 8.03058 6.35083C7.92439 6.35022 7.83562 6.35435 7.75189 6.42304C7.71108 6.4635 7.69202 6.5067 7.67544 6.55951C7.67284 6.56731 7.67023 6.5751 7.66755 6.58313C7.65953 6.60735 7.65179 6.63163 7.6441 6.65594C7.63938 6.67062 7.63465 6.6853 7.62992 6.69998C7.61553 6.74505 7.60164 6.79024 7.58778 6.83545C7.58255 6.85241 7.57731 6.86936 7.57207 6.88632C7.56098 6.92227 7.5499 6.95822 7.53885 6.99418C7.52125 7.0514 7.5036 7.10861 7.48594 7.16582C7.46781 7.22457 7.44968 7.28332 7.43157 7.34207C7.37924 7.51178 7.32667 7.68143 7.27397 7.85104C7.2673 7.87252 7.26063 7.894 7.25395 7.91548C7.1993 8.09146 7.14454 8.2674 7.08971 8.44333C7.08687 8.45245 7.08403 8.46156 7.0811 8.47095C7.05593 8.55173 7.03075 8.63252 7.00555 8.7133C7.00295 8.72162 7.00036 8.72995 6.99768 8.73853C6.99252 8.75509 6.98735 8.77164 6.98218 8.7882C6.96973 8.82812 6.95729 8.86805 6.94491 8.90799C6.92385 8.97584 6.90271 9.04367 6.88086 9.1113C6.87173 9.13959 6.86271 9.16792 6.85369 9.19625C6.84753 9.21546 6.84122 9.23463 6.8349 9.2538C6.80459 9.34936 6.78811 9.43105 6.83761 9.52228C6.87684 9.58708 6.92507 9.61398 6.99779 9.64134C7.03468 9.64962 7.06876 9.65252 7.10664 9.65246C7.12332 9.65247 7.12332 9.65247 7.14033 9.65248C7.15248 9.65244 7.16462 9.6524 7.17714 9.65236C7.1901 9.65235 7.20305 9.65235 7.2164 9.65234C7.25234 9.65231 7.28827 9.65224 7.32421 9.65216C7.36298 9.65207 7.40175 9.65205 7.44053 9.65202C7.50773 9.65195 7.57493 9.65185 7.64214 9.65174C7.73947 9.65157 7.83681 9.65147 7.93415 9.6514C8.0923 9.65128 8.25045 9.65113 8.40861 9.65095C8.41807 9.65094 8.42754 9.65093 8.43729 9.65092C8.57144 9.65076 8.70558 9.65058 8.83973 9.65038C8.85388 9.65036 8.85388 9.65036 8.86832 9.65034C8.87774 9.65032 8.88716 9.65031 8.89687 9.6503C9.0543 9.65007 9.21174 9.64991 9.36917 9.64983C9.46618 9.64977 9.56319 9.64964 9.66019 9.64944C9.72678 9.6493 9.79336 9.64924 9.85994 9.64923C9.89829 9.64922 9.93663 9.64918 9.97498 9.64905C10.2613 9.64814 10.5148 9.65308 10.7353 9.84756C10.868 9.97371 10.9267 10.1395 10.9307 10.3143C10.929 10.4289 10.9045 10.5373 10.8699 10.6467C10.8662 10.659 10.8624 10.6712 10.8585 10.6838C10.8482 10.7173 10.8377 10.7507 10.8273 10.7841C10.8162 10.8197 10.8052 10.8553 10.7941 10.8909C10.7751 10.9524 10.756 11.0138 10.7369 11.0753C10.7075 11.1696 10.6783 11.2639 10.6491 11.3582C10.5341 11.7303 10.5341 11.7303 10.4806 11.9018C10.468 11.9423 10.4554 11.9829 10.4429 12.0234C10.3934 12.1827 10.3934 12.1827 10.3539 12.2573C10.3499 12.265 10.3459 12.2727 10.3418 12.2806C10.2802 12.3958 10.197 12.4941 10.1022 12.5869C10.0938 12.5956 10.0854 12.6043 10.0767 12.6132C9.85904 12.8293 9.5294 12.987 9.2096 12.9959C9.16632 12.9963 9.12305 12.9964 9.07976 12.9964C9.06295 12.9964 9.04613 12.9965 9.02932 12.9965C8.98323 12.9966 8.93714 12.9967 8.89105 12.9967C8.84129 12.9967 8.79153 12.9968 8.74177 12.9969C8.62167 12.9971 8.50157 12.9972 8.38146 12.9973C8.32484 12.9973 8.26822 12.9974 8.2116 12.9974C8.02328 12.9976 7.83496 12.9977 7.64664 12.9978C7.59781 12.9978 7.54898 12.9979 7.50015 12.9979C7.48195 12.9979 7.48195 12.9979 7.46337 12.9979C7.26686 12.998 7.07035 12.9982 6.87384 12.9986C6.67189 12.9989 6.46994 12.9991 6.26799 12.9991C6.15468 12.9991 6.04137 12.9992 5.92806 12.9995C5.83155 12.9997 5.73504 12.9998 5.63852 12.9997C5.58934 12.9996 5.54016 12.9996 5.49097 12.9998C5.44582 13 5.40068 13 5.35553 12.9998C5.33932 12.9998 5.3231 12.9998 5.30689 13C5.0782 13.0015 4.88909 12.9439 4.71854 12.7964C4.58874 12.6719 4.53831 12.5041 4.53568 12.3338C4.53553 12.3266 4.53538 12.3193 4.53523 12.3119C4.53639 12.1869 4.57768 12.0623 4.61486 11.9434C4.61905 11.9298 4.62323 11.9162 4.62741 11.9026C4.63619 11.8742 4.645 11.8457 4.65385 11.8172C4.6676 11.773 4.68124 11.7287 4.69485 11.6845C4.73003 11.5702 4.76527 11.4559 4.80136 11.3419C4.81153 11.3097 4.8216 11.2775 4.83166 11.2453C4.83807 11.225 4.84466 11.2047 4.85125 11.1844C4.88083 11.0898 4.90067 10.9974 4.85106 10.9059C4.80543 10.8421 4.74507 10.8063 4.6668 10.7857C4.63291 10.7818 4.59948 10.7817 4.56536 10.7819C4.55557 10.7819 4.54579 10.7818 4.53571 10.7818C4.5146 10.7817 4.49348 10.7816 4.47236 10.7817C4.43879 10.7817 4.40523 10.7816 4.37167 10.7814C4.3003 10.781 4.22893 10.7809 4.15756 10.7808C4.07504 10.7806 3.99252 10.7804 3.91001 10.78C3.8772 10.7798 3.84439 10.7799 3.81158 10.7799C3.60923 10.7794 3.42348 10.7554 3.25761 10.6365C3.24587 10.6283 3.24587 10.6283 3.2339 10.6199C3.10201 10.5195 3.02402 10.3654 3.00332 10.2086C3.00137 10.1773 3.00088 10.146 3.00068 10.1147C3.00046 10.1067 3.00024 10.0987 3.00001 10.0905C2.99911 9.95517 3.04451 9.82335 3.08527 9.69483C3.09026 9.67892 3.09525 9.663 3.10023 9.64708C3.11086 9.61313 3.12153 9.57919 3.13224 9.54526C3.14935 9.49104 3.16636 9.43679 3.18336 9.38253C3.20106 9.32603 3.21877 9.26953 3.2365 9.21303C3.29335 9.03192 3.34958 8.85065 3.40569 8.66934C3.42589 8.60407 3.44612 8.53881 3.46634 8.47354C3.47384 8.44933 3.48134 8.42511 3.48884 8.4009C3.55022 8.20279 3.61174 8.00473 3.67327 7.80667C3.67554 7.79936 3.67781 7.79205 3.68015 7.78452C3.69904 7.72369 3.69904 7.72369 3.70762 7.69609C3.74433 7.5779 3.78102 7.45969 3.81769 7.34149C3.84296 7.26002 3.86825 7.17856 3.8936 7.09711C3.90049 7.07496 3.90738 7.0528 3.91427 7.03065C3.91889 7.01581 3.9235 7.00097 3.92812 6.98613C3.95801 6.89004 3.98774 6.79392 4.01731 6.69775C4.03842 6.62908 4.05961 6.56044 4.08084 6.49181C4.09353 6.4508 4.10618 6.40978 4.11872 6.36873C4.13043 6.3304 4.14225 6.2921 4.15415 6.25383C4.15846 6.2399 4.16273 6.22597 4.16696 6.21202C4.27612 5.85204 4.51172 5.55983 4.85864 5.37323C5.04118 5.27864 5.23675 5.21975 5.44614 5.22025C5.45777 5.2202 5.4694 5.22015 5.48138 5.22009C5.50642 5.21999 5.53145 5.21993 5.55649 5.21992C5.59619 5.21988 5.63588 5.21971 5.67558 5.21951C5.77411 5.21903 5.87265 5.21871 5.97118 5.2185C6.05461 5.21832 6.13804 5.21803 6.22147 5.21757C6.24773 5.21745 6.27399 5.21739 6.30026 5.21739C6.33702 5.21739 6.37377 5.21721 6.41053 5.21699C6.42126 5.21703 6.43199 5.21708 6.44305 5.21712C6.53312 5.21627 6.62325 5.20266 6.69573 5.14877C6.76111 5.08584 6.78329 4.99483 6.80794 4.91283C6.8119 4.89994 6.81588 4.88706 6.81986 4.87418C6.82832 4.84676 6.83671 4.81932 6.84504 4.79186C6.85818 4.74853 6.87153 4.70526 6.8849 4.66199C6.92438 4.53403 6.9634 4.40595 7.00183 4.2777C7.01655 4.22864 7.03142 4.17961 7.04629 4.13058C7.0564 4.09704 7.06628 4.06345 7.07615 4.02985C7.18346 3.67167 7.38558 3.3977 7.71827 3.19288C7.72685 3.18745 7.73543 3.18203 7.74426 3.17644C7.96167 3.04552 8.21257 3.00225 8.46635 3.00241Z" fill="#FA9819"/>
</svg>
