<svg width="16" height="16" viewBox="0 0 16 16" fill="none" xmlns="http://www.w3.org/2000/svg">
<path fill-rule="evenodd" clip-rule="evenodd" d="M3.954 6.77819C3.95374 6.2822 4.05816 5.79101 4.26131 5.3327C4.46446 4.87438 4.76235 4.4579 5.13797 4.10705C5.51359 3.7562 5.95958 3.47785 6.45047 3.2879C6.94136 3.09795 7.46754 3.00012 7.99894 3H8.00194C10.2359 3 12.0469 4.69309 12.0469 6.77819V8.36115H13.0179C14.1328 8.36115 14.3838 9.81997 13.3254 10.1476L12.0474 10.5442V11.2284C12.0474 11.3833 12.0051 11.5357 11.9243 11.671C11.8435 11.8063 11.7269 11.9201 11.5858 12.0016C11.4446 12.083 11.2834 12.1294 11.1176 12.1364C10.9518 12.1434 10.7868 12.1106 10.6384 12.0413L9.92841 11.7114C9.89491 11.6974 9.85391 11.7114 9.84341 11.7445C9.26992 13.4185 6.73096 13.4185 6.15697 11.7445C6.15409 11.7369 6.14954 11.73 6.14361 11.7242C6.13767 11.7183 6.13049 11.7137 6.12252 11.7106C6.11455 11.7075 6.10597 11.7061 6.09735 11.7063C6.08873 11.7065 6.08025 11.7084 6.07247 11.7119L5.36248 12.0413C4.71749 12.3447 3.954 11.9051 3.954 11.2284V10.5442L2.67552 10.1476C1.61454 9.8223 1.86853 8.36115 2.98301 8.36115H3.954V6.77819ZM6.23947 7.99761C6.1355 7.99761 6.0358 8.03616 5.96228 8.10477C5.88877 8.17338 5.84747 8.26644 5.84747 8.36348V9.09522C5.84747 9.19226 5.88877 9.28532 5.96228 9.35394C6.0358 9.42255 6.1355 9.4611 6.23947 9.4611C6.34343 9.4611 6.44313 9.42255 6.51665 9.35394C6.59016 9.28532 6.63146 9.19226 6.63146 9.09522V8.36348C6.63146 8.26644 6.59016 8.17338 6.51665 8.10477C6.44313 8.03616 6.34343 7.99761 6.23947 7.99761ZM9.76191 8.36115C9.65795 8.36115 9.55824 8.39969 9.48473 8.46831C9.41122 8.53692 9.36992 8.62998 9.36992 8.72702C9.36992 8.82405 9.41122 8.91712 9.48473 8.98573C9.55824 9.05434 9.65795 9.09289 9.76191 9.09289C9.86588 9.09289 9.96558 9.05434 10.0391 8.98573C10.1126 8.91712 10.1539 8.82405 10.1539 8.72702C10.1539 8.62998 10.1126 8.53692 10.0391 8.46831C9.96558 8.39969 9.86588 8.36115 9.76191 8.36115ZM6.66896 9.95484C6.68864 9.99919 6.71753 10.0395 6.75396 10.0734C6.9173 10.2262 7.11135 10.3475 7.32499 10.4302C7.53862 10.513 7.76764 10.5555 7.99894 10.5555C8.23024 10.5555 8.45926 10.513 8.67289 10.4302C8.88653 10.3475 9.08057 10.2262 9.24392 10.0734C9.28026 10.0395 9.3091 9.99924 9.32878 9.95495C9.34846 9.91066 9.3586 9.86318 9.35863 9.81523C9.35865 9.76728 9.34855 9.7198 9.32892 9.67549C9.30928 9.63118 9.28048 9.59092 9.24417 9.557C9.20786 9.52308 9.16475 9.49616 9.11729 9.47779C9.06984 9.45942 9.01897 9.44996 8.9676 9.44994C8.91623 9.44991 8.86535 9.45934 8.81788 9.47767C8.77041 9.496 8.72727 9.52287 8.69093 9.55676C8.50738 9.72784 8.25858 9.82392 7.99919 9.82392C7.7398 9.82392 7.491 9.72784 7.30745 9.55676C7.26209 9.51395 7.20607 9.4823 7.14439 9.46465C7.08271 9.44701 7.0173 9.44392 6.95403 9.45567C6.89076 9.46742 6.8316 9.49363 6.78185 9.53196C6.73209 9.57029 6.69331 9.61954 6.66896 9.6753C6.64916 9.71966 6.63896 9.76724 6.63896 9.8153C6.63896 9.86336 6.64916 9.91094 6.66896 9.9553V9.95484Z" fill="#FA9819"/>
</svg>
