<svg width="28" height="28" viewBox="0 0 28 28" fill="none" xmlns="http://www.w3.org/2000/svg">
<path d="M14.0918 10.0974C14.7049 10.161 15.1962 10.6915 15.1962 11.3194V17.8112L16.8976 16.1091C17.3466 15.6599 18.041 15.6375 18.5169 15.9623L18.6092 16.0315L18.636 16.0537L18.6599 16.0777C19.1439 16.5619 19.1438 17.324 18.6599 17.8084L14.9997 21.4691C14.9898 21.4869 14.9818 21.5061 14.9702 21.5236C14.8872 21.6481 14.7827 21.7261 14.6943 21.7747L14.6915 21.7774C14.6871 21.7802 14.682 21.7822 14.6777 21.7848C14.6451 21.8117 14.594 21.8507 14.5264 21.8845C14.4701 21.9126 14.4158 21.9303 14.3668 21.9427C14.3168 21.9603 14.2624 21.9761 14.2025 21.986C14.1056 22.0022 14.0161 21.9999 13.9995 21.9999C13.9001 21.9999 13.7703 21.9979 13.564 21.9464L13.3611 21.8956L13.2494 21.783C13.2377 21.7751 13.2218 21.7649 13.206 21.7534C13.1817 21.7357 13.1353 21.7011 13.087 21.6528L12.8656 21.4313V21.3999L9.33914 17.8721C8.85503 17.3877 8.85501 16.6248 9.33914 16.1405L9.43325 16.0555C9.88536 15.6847 10.5238 15.6847 10.976 16.0555L11.0701 16.1405L12.7401 17.8112V11.3194C12.7401 10.6498 13.2988 10.0909 13.9682 10.0909L14.0918 10.0974Z" fill="white"/>
<path d="M19.5116 6C20.8735 6.00025 21.9998 7.126 22 8.4885V13.0575C21.9998 13.7269 21.4401 14.2858 20.771 14.2861C20.1019 14.2859 19.5431 13.7269 19.5429 13.0575V8.4885C19.5429 8.47849 19.5412 8.47249 19.5402 8.47004C19.5392 8.46778 19.5365 8.4645 19.5365 8.4645C19.535 8.46307 19.5326 8.46106 19.53 8.45989C19.5277 8.45892 19.5217 8.45717 19.5116 8.45712H8.48844C8.47874 8.45715 8.47256 8.45889 8.46998 8.45989C8.4675 8.46096 8.46583 8.46307 8.46445 8.4645C8.46303 8.46592 8.46098 8.46753 8.45984 8.47004C8.45886 8.47238 8.4571 8.47826 8.45707 8.4885V13.0575C8.4569 13.7269 7.89808 14.2858 7.22899 14.2861C6.5597 14.2861 6.00017 13.727 6 13.0575V8.4885C6.00017 7.12594 7.12642 6.00017 8.48844 6H19.5116Z" fill="white"/>
</svg>
