<svg width="28" height="28" viewBox="0 0 28 28" fill="none" xmlns="http://www.w3.org/2000/svg">
<path d="M21.8362 8.00276C21.8847 8.11245 21.9242 8.24042 21.9545 8.38667C21.9848 8.53293 22 8.68527 22 8.84372C22 9.00216 21.9697 9.1606 21.909 9.31904C21.8484 9.47748 21.7513 9.62983 21.6178 9.77608C21.4723 9.92234 21.3418 10.0503 21.2266 10.16C21.1113 10.2697 21.0113 10.3672 20.9263 10.4525C20.8293 10.55 20.7383 10.6353 20.6534 10.7084L17.2504 7.28977C17.396 7.15571 17.5689 6.99422 17.769 6.80531C17.9692 6.6164 18.136 6.4671 18.2695 6.35741C18.4393 6.22334 18.6152 6.12889 18.7972 6.07404C18.9792 6.0192 19.1581 5.99482 19.334 6.00091C19.5099 6.00701 19.6798 6.03443 19.8436 6.08318C20.0073 6.13193 20.1499 6.18678 20.2712 6.24772C20.526 6.38178 20.8081 6.6164 21.1174 6.95156C21.4268 7.28673 21.6664 7.63713 21.8362 8.00276ZM7.66019 16.9242C7.73298 16.8511 7.90283 16.6774 8.16973 16.4032C8.43663 16.129 8.77025 15.7908 9.1706 15.3886L10.499 14.054L11.9731 12.5732L15.8856 8.64262L19.2885 12.0796L15.376 16.0101L13.9202 17.491C13.4349 17.9663 12.9982 18.402 12.61 18.7981C12.2218 19.1942 11.9003 19.5202 11.6455 19.7762C11.3907 20.0321 11.2391 20.1784 11.1906 20.2149C11.0692 20.3246 10.9297 20.4404 10.772 20.5623C10.6143 20.6842 10.4505 20.7817 10.2807 20.8548C10.1108 20.9401 9.86212 21.0437 9.53456 21.1656C9.207 21.2874 8.86427 21.4063 8.50639 21.5221C8.1485 21.6379 7.80881 21.7384 7.48731 21.8237C7.16582 21.909 6.92622 21.9639 6.7685 21.9882C6.44094 22.0248 6.22257 21.9761 6.11339 21.842C6.0042 21.7079 5.97387 21.4825 6.0224 21.1656C6.04666 20.9949 6.10429 20.7481 6.19528 20.4252C6.28626 20.1022 6.38332 19.767 6.48644 19.4197C6.58956 19.0723 6.68965 18.7524 6.7867 18.4599C6.88376 18.1674 6.96261 17.9663 7.02327 17.8566C7.09606 17.686 7.17795 17.5306 7.26894 17.3904C7.35993 17.2502 7.49035 17.0949 7.66019 16.9242Z" fill="white"/>
</svg>
