<svg width="121" height="76" viewBox="0 0 121 76" fill="none" xmlns="http://www.w3.org/2000/svg">
<g opacity="0.5">
<path d="M86.3481 43.5628L80.8045 21.4531L26.8145 33.7697L27.8991 61.7071L86.3481 43.5628Z" fill="#DA9200"/>
<path d="M0 51.4259L27.8989 61.6996L26.8142 33.7621L6.14618 27.2734L0 51.4259Z" fill="#FFC415"/>
<path d="M59.2924 15.3125L80.8041 21.4407L26.8141 33.7572L6.146 27.2685L59.2924 15.3125Z" fill="#FFDF33"/>
<path d="M6.146 27.2809L25.7294 34.4906L28.0192 60.7458L27.8987 34.6108L80.8041 21.4531L26.2717 32.9886L6.146 27.2809Z" fill="#FFFF85"/>
<path d="M26.1514 22.7697L58.449 26.6749L70.7413 23.8511L39.2873 19.7656L26.1514 22.7697Z" fill="#FFFF85"/>
<path d="M120.514 51.6656L114.669 29.9766L59.9561 46.9193L61.1009 75.6979L120.514 51.6656Z" fill="#FCAF00"/>
<path d="M31.3945 63.2002L61.1011 75.697L59.9562 46.9184L36.4561 40.4297L31.3945 63.2002Z" fill="#FFC415"/>
<path d="M92.3738 23.3125L114.669 29.9814L59.9557 46.9242L36.4556 40.4355L92.3738 23.3125Z" fill="#FFDF33"/>
<path d="M36.4556 40.4306L58.8711 47.6403L61.2211 74.7366L61.1006 47.7604L114.669 29.9766L59.4134 46.1382L36.4556 40.4306Z" fill="#FFFF85"/>
<path d="M61.1606 32.8615L92.0121 37.1273L103.28 33.5224L71.7056 29.6172L61.1606 32.8615Z" fill="#FFFF85"/>
<path d="M101.713 28.2347L96.1697 6.125L42.1797 18.4415L43.2643 44.7568L101.713 28.2347Z" fill="#FCAF00"/>
<path d="M11.0273 33.5256L43.2647 44.7607L42.1801 18.4454L16.9928 11.6562L11.0273 33.5256Z" fill="#FFC415"/>
<path d="M74.6584 0L96.17 6.12822L42.18 18.4447L16.9927 11.6556L74.6584 0Z" fill="#FFDF33"/>
<path d="M16.9927 11.6524L41.0954 19.1024L43.3851 43.7955L43.2646 19.2827L96.17 6.125L41.6377 17.6605L16.9927 11.6524Z" fill="#FFFF85"/>
<path d="M39.2876 7.1441L73.8147 11.3497L86.1071 8.52595L53.3877 4.32031L39.2876 7.1441Z" fill="#FFFF85"/>
</g>
</svg>
