<svg width="16" height="16" viewBox="0 0 16 16" fill="none" xmlns="http://www.w3.org/2000/svg">
<path d="M8 10C9.10457 10 10 9.10457 10 8C10 6.89543 9.10457 6 8 6C6.89543 6 6 6.89543 6 8C6 9.10457 6.89543 10 8 10Z" stroke="#FA9819" stroke-width="1.5" stroke-linecap="round" stroke-linejoin="round"/>
<path d="M12.5 8C12.5 7.5 12.6 7 12.8 6.6L14.2 5.2C14.4 5 14.4 4.6 14.2 4.4L11.6 1.8C11.4 1.6 11 1.6 10.8 1.8L9.4 3.2C9 3.4 8.5 3.5 8 3.5C7.5 3.5 7 3.4 6.6 3.2L5.2 1.8C5 1.6 4.6 1.6 4.4 1.8L1.8 4.4C1.6 4.6 1.6 5 1.8 5.2L3.2 6.6C3.4 7 3.5 7.5 3.5 8C3.5 8.5 3.4 9 3.2 9.4L1.8 10.8C1.6 11 1.6 11.4 1.8 11.6L4.4 14.2C4.6 14.4 5 14.4 5.2 14.2L6.6 12.8C7 12.6 7.5 12.5 8 12.5C8.5 12.5 9 12.6 9.4 12.8L10.8 14.2C11 14.4 11.4 14.4 11.6 14.2L14.2 11.6C14.4 11.4 14.4 11 14.2 10.8L12.8 9.4C12.6 9 12.5 8.5 12.5 8Z" stroke="#FA9819" stroke-width="1.5" stroke-linecap="round" stroke-linejoin="round"/>
</svg>

