<svg width="40" height="35" viewBox="0 0 40 35" fill="none" xmlns="http://www.w3.org/2000/svg">
<path fill-rule="evenodd" clip-rule="evenodd" d="M39.1035 21.5957C39.0852 21.8862 39.1035 22.1587 39.1035 22.4492V27.0264C39.1035 27.5712 39.0854 28.0801 39.0488 28.5342C39.0122 28.9883 38.9574 29.4246 38.8477 29.8242C38.7379 30.2601 38.5909 30.6596 38.3896 31.041C38.1884 31.4224 37.9319 31.8038 37.6025 32.167C37.3281 32.4757 36.9987 32.7842 36.6328 33.0566C36.3858 33.2474 36.1183 33.418 35.8302 33.5758C35.7822 33.6021 35.7336 33.628 35.6844 33.6536C35.6352 33.6792 35.5855 33.7045 35.5352 33.7295C35.1692 33.8929 34.7665 34.0381 34.3457 34.1289C33.9432 34.2197 33.5221 34.2559 33.083 34.2559H10.7773C10.3383 34.2558 9.91711 34.2015 9.51465 34.1289C9.09413 34.0381 8.69188 33.8928 8.32617 33.7295C7.92361 33.5479 7.55691 33.3109 7.22754 33.0566C6.86173 32.7661 6.53219 32.4757 6.25781 32.167C5.9285 31.8038 5.67196 31.4406 5.4707 31.041C5.26949 30.6597 5.12344 30.26 5.01367 29.8242C4.92218 29.4246 4.8491 28.9883 4.8125 28.5342C4.77592 28.0801 4.77611 27.5712 4.75781 27.0264V22.123C4.75781 21.6145 4.684 21.142 4.57422 20.7061C4.44613 20.252 4.26327 19.8519 4.02539 19.5068C3.98902 19.4706 3.97096 19.4161 3.93457 19.3799C3.9189 19.3643 3.90331 19.3486 3.88896 19.3331C3.88633 19.3303 3.88358 19.3276 3.88105 19.3247C3.87477 19.3176 3.86891 19.3105 3.86348 19.3034C3.85531 19.2928 3.84819 19.2822 3.84277 19.2715C3.34879 18.7993 2.76338 18.417 2.12305 18.1445C1.50091 17.8902 0.823007 17.7451 0.109375 17.7451H0V16.4922H0.109375C0.841152 16.4922 1.55498 16.3466 2.19531 16.0742C2.85405 15.8018 3.4581 15.3836 3.95215 14.875L3.98926 14.8213L4.04395 14.748C4.29999 14.4031 4.48299 13.9855 4.59277 13.5498C4.70256 13.1139 4.77538 12.6414 4.77539 12.1328V7.22852C4.77539 6.68365 4.79446 6.17476 4.83105 5.7207C4.86765 5.2668 4.92249 4.83109 5.03223 4.43164C5.14198 3.99586 5.28808 3.59617 5.48926 3.21484C5.69054 2.83341 5.947 2.45116 6.27637 2.08789C6.55079 1.77921 6.88024 1.47061 7.24609 1.19824C7.57539 0.944016 7.9413 0.726126 8.34375 0.526367C8.70965 0.362926 9.11243 0.217774 9.5332 0.126953C9.93574 0.036141 10.3568 4.2074e-06 10.7959 0H33.1035C36.4172 0 39.1035 2.68629 39.1035 6V21.5957ZM10.8691 4.63086C10.6313 4.66718 10.43 4.73987 10.2471 4.8125C10.0824 4.90332 9.93596 4.99493 9.82617 5.12207C9.71649 5.24914 9.62518 5.39427 9.57031 5.55762C9.51544 5.73917 9.47855 5.93882 9.47852 6.1748C9.46022 6.95559 9.45996 7.06508 9.45996 7.57324V8.2998C9.45996 8.89855 9.47848 9.44338 9.47852 9.57129C9.47852 9.98905 9.47877 10.3348 9.49707 10.6436C9.49708 10.9521 9.51463 11.2244 9.51465 11.4785V11.5518C9.51466 11.7878 9.5332 12.0241 9.5332 12.2783C9.5332 12.805 9.51556 13.3317 9.44238 13.8584C9.3692 14.3488 9.27696 14.8208 9.1123 15.293V15.3115C9.00252 15.6566 8.85606 15.9837 8.69141 16.3105C8.54506 16.601 8.38089 16.8737 8.17969 17.1279C8.38086 17.4003 8.54508 17.673 8.69141 17.9453C8.85607 18.2722 9.00253 18.5993 9.1123 18.9443C9.25866 19.3984 9.3692 19.8886 9.44238 20.3789C9.51557 20.9056 9.5332 21.4323 9.5332 21.959C9.5332 22.2132 9.51466 22.4313 9.51465 22.6855V22.7588C9.47807 23.8845 9.47852 23.9573 9.47852 25.0469V26.5908C9.47852 27.0812 9.47877 27.5903 9.49707 28.0625C9.49711 28.2984 9.53304 28.4982 9.58789 28.6797C9.64278 28.8613 9.73496 29.0063 9.84473 29.1152C9.95452 29.2424 10.1009 29.3522 10.2656 29.4248C10.4485 29.5155 10.6503 29.5701 10.9062 29.6064H33.0283C33.2661 29.5701 33.4857 29.4974 33.6504 29.4248C33.8151 29.334 33.9615 29.2424 34.0713 29.1152C34.181 28.9882 34.2723 28.843 34.3271 28.6797C34.382 28.4981 34.4189 28.2985 34.4189 28.0625C34.421 25.0703 34.4216 13.0978 34.4217 6.12767C34.4218 5.29923 33.7502 4.63086 32.9217 4.63086H10.8691Z" fill="#FA9819"/>
</svg>
