<svg width="336" height="200" viewBox="0 0 336 200" fill="none" xmlns="http://www.w3.org/2000/svg">
<g opacity="0.6">
<path fill-rule="evenodd" clip-rule="evenodd" d="M326.466 -90L74.3303 -15.9526L74.3028 -15.9445L57.5559 73.2616L26.8821 83.2882L0 236.778L0.0314298 236.795L122.026 302.069L139.95 293.985L137.258 311.583L137.286 311.6L267.188 391L527 238.304L501.435 100.467L442.265 74.7506L420.554 -51.0547L326.466 -90ZM137.364 311.539L267.189 390.891L526.896 238.257L501.352 100.533L442.182 74.8159L420.471 -50.9883L326.46 -89.9013L74.3841 -15.8713L57.6375 73.3329L26.9645 83.3593L0.10364 236.728L122.03 301.965L140.069 293.829L137.36 311.535L137.365 311.538L137.364 311.539Z" fill="#FFE18A"/>
<path fill-rule="evenodd" clip-rule="evenodd" d="M324.792 -83.0312L79.3572 -11.1337L79.3212 -11.1232L63.0196 75.4914L33.1615 85.2268L6.99072 234.277L7.03198 234.299L125.789 297.681L143.217 289.84L140.599 306.909L140.635 306.931L267.09 384.029L520.01 235.759L495.121 101.907L437.525 76.9382L416.392 -45.212L324.792 -83.0312ZM140.732 306.847L267.092 383.886L519.874 235.697L495.013 101.993L437.416 77.0239L416.282 -45.125L324.785 -82.902L79.4277 -11.0272L63.1265 75.585L33.2694 85.32L7.12658 234.211L125.793 297.545L143.372 289.636L140.732 306.847Z" fill="#FFE18A"/>
<path fill-rule="evenodd" clip-rule="evenodd" d="M323.118 -76.0547L84.3837 -6.30704L84.3391 -6.29404L68.4829 77.7291L39.4404 87.1731L13.981 231.785L14.0321 231.812L129.55 293.3L146.482 285.703L143.939 302.242L143.984 302.27L266.992 377.065L513.019 233.221L488.807 103.356L432.784 79.1336L412.228 -39.3616L323.118 -76.0547ZM144.104 302.166L266.993 376.889L512.851 233.145L488.673 103.462L432.649 79.2396L412.093 -39.2538L323.11 -75.8949L84.4708 -6.17518L68.6151 77.8449L39.5738 87.2885L14.1491 231.703L129.556 293.132L146.674 285.451L144.104 302.166Z" fill="#FFE18A"/>
<path fill-rule="evenodd" clip-rule="evenodd" d="M321.445 -69.0938L89.4107 -1.496L89.3576 -1.48054L73.9466 79.951L45.7199 89.1038L20.9717 229.277L21.0328 229.309L133.313 288.904L149.748 281.55L147.279 297.56L147.334 297.593L266.894 370.086L506.029 230.668L482.493 104.788L428.044 81.3133L408.066 -33.5269L321.445 -69.0938ZM147.476 297.469L266.896 369.876L505.828 230.577L482.333 104.915L427.883 81.4398L407.905 -33.3983L321.434 -68.9034L89.5143 -1.33882L74.1041 80.0891L45.8788 89.2414L21.1721 229.179L133.319 288.704L149.977 281.251L147.476 297.469Z" fill="#FFE18A"/>
<path fill-rule="evenodd" clip-rule="evenodd" d="M319.771 -62.1172L94.4372 3.33065L94.3756 3.34856L79.41 82.1886L51.9989 91.0501L27.9619 226.784L28.033 226.822L137.074 284.523L153.014 277.413L150.62 292.894L150.683 292.932L266.795 363.122L499.038 228.131L476.179 106.236L423.304 83.5086L403.902 -27.6765L319.771 -62.1172ZM150.848 292.788L266.797 362.879L498.805 228.025L475.993 106.384L423.117 83.6556L403.716 -27.5272L319.759 -61.8963L94.5575 3.51319L79.5926 82.349L52.1832 91.21L28.1946 226.671L137.082 284.291L153.28 277.066L150.848 292.788Z" fill="#FFE18A"/>
<path fill-rule="evenodd" clip-rule="evenodd" d="M318.097 -55.1484L99.4639 8.14945L99.3936 8.16978L84.8734 84.4183L58.2779 92.9885L34.9521 224.284L35.0333 224.327L140.836 280.135L156.28 273.268L153.96 288.22L154.032 288.263L266.697 356.151L492.048 225.586L469.864 107.676L418.563 85.696L399.739 -21.834L318.097 -55.1484ZM154.22 288.098L266.699 355.874L491.782 225.465L469.653 107.845L418.35 85.8636L399.527 -21.6638L318.083 -54.8971L99.6005 8.35738L85.0812 84.6011L58.4877 93.1707L35.2172 224.155L140.845 279.871L156.582 272.873L154.22 288.098Z" fill="#FFE18A"/>
<path fill-rule="evenodd" clip-rule="evenodd" d="M316.423 -48.1719L104.491 12.9761L104.412 12.9988L90.3373 86.6558L64.5575 94.9348L41.9429 221.792L42.034 221.84L144.599 275.754L159.546 269.131L157.3 283.553L157.381 283.602L266.599 349.187L485.058 223.048L463.55 109.124L413.823 87.8913L395.577 -15.9838L316.423 -48.1719ZM157.592 283.417L266.602 348.877L484.76 222.912L463.314 109.313L413.585 88.0795L395.339 -15.7926L316.408 -47.89L104.644 13.2094L90.5702 86.8611L64.7926 95.1393L42.2403 221.647L144.609 275.458L159.885 268.689L157.592 283.417Z" fill="#FFE18A"/>
<path fill-rule="evenodd" clip-rule="evenodd" d="M314.749 -41.2031L109.518 17.7948L109.43 17.8199L95.8007 88.8854L70.8366 96.8731L48.9331 219.291L49.0345 219.344L148.361 271.366L162.812 264.985L160.64 278.879L160.73 278.933L266.501 342.215L478.067 220.503L457.236 110.564L409.082 90.0786L391.413 -10.1414L314.749 -41.2031ZM160.964 278.728L266.504 341.872L477.737 220.352L456.974 110.774L408.818 90.2875L391.15 -9.92917L314.733 -40.8908L109.687 18.0536L96.0588 89.1132L71.097 97.1001L49.263 219.13L148.371 271.038L163.188 264.496L160.964 278.728Z" fill="#FFE18A"/>
<path fill-rule="evenodd" clip-rule="evenodd" d="M313.076 -34.2422L114.545 22.6058L114.448 22.6333L101.264 91.1071L77.1158 98.8035L55.9233 216.783L56.035 216.842L152.122 266.969L166.077 260.832L163.98 274.197L164.08 274.256L266.402 335.236L471.077 217.95L450.922 111.997L404.342 92.2581L387.25 -4.30686L313.076 -34.2422ZM164.336 274.031L266.405 334.86L470.714 217.784L450.634 112.227L404.052 92.4878L386.961 -4.07356L313.057 -33.8995L114.73 22.8901L101.547 91.3575L77.4015 99.0531L56.2857 216.606L152.134 266.609L166.491 260.296L164.336 274.031Z" fill="#FFE18A"/>
<path fill-rule="evenodd" clip-rule="evenodd" d="M311.402 -27.2578L119.571 27.4401L119.467 27.4699L106.728 93.3523L83.395 100.757L62.9136 214.299L63.0355 214.362L155.884 262.596L169.343 256.702L167.321 269.538L167.429 269.603L266.304 328.279L464.086 215.421L444.607 113.452L399.601 94.4609L383.087 1.55104L311.402 -27.2578ZM167.708 269.357L266.307 327.87L463.691 215.239L444.295 113.704L399.286 94.7115L382.772 1.80553L311.382 -26.8847L119.773 27.75L107.036 93.6253L83.706 101.029L63.3085 214.105L155.897 262.205L169.793 256.119L167.708 269.357Z" fill="#FFE18A"/>
<path fill-rule="evenodd" clip-rule="evenodd" d="M309.728 -20.2969L124.599 32.251L124.486 32.2831L112.192 95.5739L89.6748 102.688L69.9043 211.791L70.0367 211.859L159.647 258.2L172.609 252.549L170.661 264.856L170.779 264.926L266.206 321.3L457.096 212.868L438.293 114.884L394.861 96.6403L378.924 7.38543L309.728 -20.2969ZM171.08 264.66L266.21 320.858L456.668 212.671L437.955 115.157L394.52 96.9118L378.584 7.66121L309.707 -19.8935L124.817 32.5864L112.525 95.8697L90.0109 102.983L70.3318 211.581L159.661 257.776L173.097 251.919L171.08 264.66Z" fill="#FFE18A"/>
<path fill-rule="evenodd" clip-rule="evenodd" d="M308.054 -13.3203L129.626 37.0774L129.504 37.1119L117.656 97.8111L95.9541 104.634L76.8945 209.298L77.0375 209.372L163.409 253.819L175.875 248.411L174.001 260.19L174.129 260.265L266.108 314.336L450.106 210.331L431.979 116.332L390.121 98.8352L374.761 13.2354L308.054 -13.3203ZM174.452 259.978L266.112 313.861L449.645 210.119L431.616 116.626L389.754 99.1278L374.396 13.5325L308.032 -12.8866L129.86 37.4385L118.014 98.1297L96.3154 104.951L77.3547 209.073L163.424 253.364L176.4 247.735L174.452 259.978Z" fill="#FFE18A"/>
<path fill-rule="evenodd" clip-rule="evenodd" d="M306.381 -6.35156L134.653 41.896L134.522 41.9327L123.119 100.04L102.234 106.572L83.8848 206.798L84.0385 206.877L167.171 249.43L179.14 244.265L177.341 255.516L177.478 255.596L266.01 307.364L443.116 207.786L425.665 117.772L385.38 101.022L370.598 19.0774L306.381 -6.35156ZM177.825 255.288L266.014 306.856L442.622 207.558L425.276 118.087L384.988 101.336L370.207 19.3961L306.357 -5.88761L134.903 42.2829L123.502 100.382L102.62 106.912L84.3777 206.556L167.187 248.944L179.703 243.543L177.825 255.288Z" fill="#FFE18A"/>
<path fill-rule="evenodd" clip-rule="evenodd" d="M304.706 0.625L139.68 46.7224L139.54 46.7613L128.583 102.277L108.513 108.517L90.8745 204.306L91.039 204.39L170.933 245.049L182.406 240.127L180.681 250.85L180.828 250.935L265.911 300.399L436.125 205.249L419.35 119.219L380.639 103.217L366.434 24.9272L304.706 0.625ZM181.196 250.607L265.916 299.859L435.599 205.005L418.936 119.556L380.222 103.552L366.018 25.2675L304.681 1.11914L139.946 47.135L128.99 102.642L108.924 108.881L91.4004 204.047L170.95 244.531L183.005 239.359L181.196 250.607Z" fill="#FFE18A"/>
<path fill-rule="evenodd" clip-rule="evenodd" d="M303.033 7.59375L144.707 51.5409L144.559 51.582L134.047 104.507L114.792 110.455L97.8647 201.806L98.0401 201.895L174.695 240.66L185.671 235.981L184.021 246.176L184.178 246.266L265.813 293.427L429.136 202.704L413.036 120.659L375.898 105.404L362.271 30.769L303.033 7.59375ZM184.569 245.917L265.818 292.855L428.576 202.445L412.597 121.017L375.456 105.76L361.83 31.1312L303.006 8.11802L144.989 51.9794L134.479 104.894L115.228 110.842L98.4236 201.53L174.713 240.111L186.309 235.167L184.569 245.917Z" fill="#FFE18A"/>
<path fill-rule="evenodd" clip-rule="evenodd" d="M301.359 14.5703L149.734 56.3672L149.577 56.4104L139.51 106.743L121.071 112.401L104.854 199.314L105.041 199.408L178.457 236.279L188.936 231.842L187.361 241.51L187.527 241.605L265.714 286.463L422.145 200.167L406.721 122.106L371.158 107.598L358.107 36.6186L301.359 14.5703ZM187.941 241.235L265.719 285.858L421.552 199.892L406.257 122.486L370.69 107.977L357.641 37.0027L301.33 15.1247L150.032 56.8317L139.967 107.155L121.532 112.811L105.446 199.021L178.476 235.698L189.612 230.984L187.941 241.235Z" fill="#FFE18A"/>
<path fill-rule="evenodd" clip-rule="evenodd" d="M299.685 21.5312L154.762 61.1777L154.596 61.2231L144.975 108.965L127.351 114.331L111.845 196.806L182.219 231.882L192.202 227.687L190.701 236.828L190.878 236.929L265.616 279.482L415.156 197.614L400.406 123.538L366.417 109.777L353.944 42.4523L299.685 21.5312ZM191.314 236.537L265.622 278.846L414.529 197.323L399.918 123.94L365.924 110.177L353.453 42.8586L299.655 22.1156L155.075 61.6683L145.455 109.399L127.837 114.764L112.47 196.496L182.239 231.27L192.915 226.785L191.314 236.537Z" fill="#FFE18A"/>
<path fill-rule="evenodd" clip-rule="evenodd" d="M298.011 28.5078L159.789 66.0039L159.615 66.0512L150.439 111.201L133.631 116.276L118.834 194.314L185.981 227.5L195.467 223.548L194.041 232.162L194.228 232.268L265.518 272.518L408.166 195.077L394.092 124.984L361.676 111.971L349.781 48.3016L298.011 28.5078ZM194.686 231.854L265.524 271.849L407.506 194.77L393.579 125.409L361.159 112.393L349.265 48.7303L297.98 29.1221L160.118 66.5206L150.944 111.659L134.141 116.733L119.493 193.987L186.002 226.858L196.218 222.601L194.686 231.854Z" fill="#FFE18A"/>
<path fill-rule="evenodd" clip-rule="evenodd" d="M296.338 35.4766L164.817 70.8221L164.634 70.8714L155.903 113.43L139.911 118.213L125.825 191.814L189.743 223.111L198.733 219.4L197.381 227.488L197.579 227.599L265.42 265.545L401.176 192.533L387.777 126.423L356.936 114.157L345.618 54.1428L296.338 35.4766ZM198.059 227.164L265.426 264.845L400.483 192.209L387.24 126.87L356.393 114.602L345.077 54.5942L296.305 36.1206L165.161 71.3652L156.432 113.912L140.446 118.694L126.517 191.47L189.765 222.438L199.522 218.411L198.059 227.164Z" fill="#FFE18A"/>
<path fill-rule="evenodd" clip-rule="evenodd" d="M294.663 42.4453L169.845 75.6403L169.653 75.6914L161.367 115.658L146.191 120.15L132.814 189.314L193.505 218.721L201.998 215.252L200.72 222.815L200.929 222.93L265.322 258.572L394.186 189.988L381.462 127.862L352.194 116.343L341.454 59.9839L294.663 42.4453ZM201.431 222.473L265.328 257.84L393.459 189.647L380.901 128.332L351.628 116.811L340.888 60.4582L294.63 43.1191L170.203 76.2099L161.92 116.165L146.749 120.655L133.54 188.952L193.528 218.018L202.825 214.22L201.431 222.473Z" fill="#FFE18A"/>
<path fill-rule="evenodd" clip-rule="evenodd" d="M292.989 49.4219L174.873 80.4661L174.672 80.519L166.832 117.894L152.471 122.095L139.804 186.823L197.268 214.339L205.263 211.112L204.06 218.149L204.281 218.27L265.224 251.606L387.197 187.452L375.147 129.308L347.453 118.537L337.29 65.8325L292.989 49.4219ZM204.804 217.79L265.23 250.844L386.435 187.093L374.562 129.801L346.862 119.027L336.701 66.3302L292.955 50.1252L175.246 81.0624L167.408 118.425L153.053 122.624L140.564 186.442L197.291 213.605L206.129 210.038L204.804 217.79Z" fill="#FFE18A"/>
<path fill-rule="evenodd" clip-rule="evenodd" d="M291.315 56.3828L179.901 85.2762L179.691 85.3307L172.296 120.114L158.751 124.024L146.793 184.315L201.03 209.941L208.527 206.955L207.399 213.468L207.632 213.593L265.125 244.625L380.208 184.899L368.832 130.739L342.712 120.714L333.126 71.6651L291.315 56.3828ZM208.177 213.091L265.132 243.832L379.411 184.523L368.223 131.255L342.097 121.229L332.513 72.1867L291.28 57.1156L180.288 85.8994L172.896 120.67L159.357 124.578L147.588 183.916L201.054 209.178L209.433 205.84L208.177 213.091Z" fill="#FFE18A"/>
<path fill-rule="evenodd" clip-rule="evenodd" d="M289.641 63.3672L184.929 90.1096L184.71 90.1656L177.761 122.357L165.031 125.976L153.782 181.832L204.792 205.567L211.792 202.821L210.738 208.81L265.027 237.667L373.219 182.371L362.517 132.192L337.97 122.915L328.962 77.5209L289.641 63.3672ZM185.33 90.76L178.383 122.939L165.66 126.555L154.612 181.413L204.816 204.773L212.737 201.667L211.55 208.416L265.034 236.844L372.387 181.977L361.884 132.733L337.332 123.453L328.325 78.0668L289.604 64.1292L185.33 90.76Z" fill="#FFE18A"/>
<path fill-rule="evenodd" clip-rule="evenodd" d="M287.967 70.3281L189.958 94.9194L189.73 94.9767L183.226 124.577L171.312 127.904L160.771 179.325L208.554 201.168L215.056 198.663L214.077 204.13L214.335 204.264L264.929 230.685L366.23 179.819L356.201 133.622L333.229 125.092L324.798 83.3528L287.967 70.3281ZM214.923 203.716L264.936 229.833L365.362 179.406L355.546 134.188L332.567 125.655L324.137 83.9236L287.93 71.1192L190.372 95.5973L183.87 125.184L171.964 128.509L161.636 178.887L208.579 200.346L216.042 197.47L214.923 203.716Z" fill="#FFE18A"/>
<path fill-rule="evenodd" clip-rule="evenodd" d="M286.293 77.3047L194.987 99.7446L194.75 99.8029L188.691 126.811L177.592 129.847L167.759 176.834L212.316 196.785L218.319 194.519L217.415 199.465L217.688 199.604L264.83 223.718L359.242 177.283L349.885 135.067L328.487 127.284L320.633 89.1998L286.293 77.3047ZM218.297 199.031L264.837 222.837L358.337 176.851L349.208 135.658L327.802 127.872L319.95 89.7964L286.255 78.1246L195.413 100.45L189.357 127.445L178.266 130.479L168.661 176.375L212.342 195.934L219.346 193.29L218.297 199.031Z" fill="#FFE18A"/>
<path fill-rule="evenodd" clip-rule="evenodd" d="M284.619 84.2734L200.017 104.562L199.77 104.621L194.157 129.038L183.874 131.782L174.747 174.336L216.079 192.394L221.583 190.367L220.754 194.792L221.042 194.936L264.733 216.743L352.254 174.74L343.569 136.503L323.745 129.467L316.468 95.0384L284.619 84.2734ZM221.672 194.338L264.74 215.834L351.312 174.287L342.871 137.121L323.038 130.082L315.764 95.6617L284.58 85.1218L200.455 105.296L194.844 129.699L184.569 132.441L175.687 173.855L216.105 191.514L222.652 189.103L221.672 194.338Z" fill="#FFE18A"/>
<path fill-rule="evenodd" clip-rule="evenodd" d="M282.944 91.25L205.047 109.386L204.791 109.446L199.623 131.271L190.155 133.724L181.734 171.845L219.841 188.01L224.845 186.22L224.091 190.129L264.634 209.774L345.267 172.205L337.252 137.946L319.001 131.657L312.303 100.884L282.944 91.25ZM205.495 110.15L200.33 131.96L190.871 134.412L182.713 171.342L219.867 187.103L225.958 184.925L225.046 189.652L264.641 208.839L344.286 171.73L336.533 138.592L318.274 132.301L311.577 101.535L282.905 92.1266L205.495 110.15Z" fill="#FFE18A"/>
<path fill-rule="evenodd" clip-rule="evenodd" d="M281.27 98.2266L210.078 114.211L209.813 114.27L205.09 133.503L196.438 135.665L188.72 169.356L223.604 183.625L228.107 182.072L227.428 185.465L264.536 202.806L338.281 169.671L330.935 139.388L314.258 133.847L308.136 106.728L281.27 98.2266ZM210.535 115.004L205.815 134.223L197.173 136.383L189.74 168.828L223.63 182.692L229.265 180.748L228.422 184.965L264.544 201.844L337.259 169.172L330.197 140.064L313.512 134.52L307.392 107.41L281.231 99.1308L210.535 115.004Z" fill="#FFE18A"/>
<path fill-rule="evenodd" clip-rule="evenodd" d="M279.595 105.195L215.11 119.027L214.836 119.085L210.558 135.727L202.722 137.598L195.705 166.859L227.367 179.232L231.367 177.914L230.764 180.795L264.439 195.828L331.297 167.129L324.616 140.821L309.514 136.027L303.969 112.564L279.595 105.195ZM215.574 119.85L211.3 136.478L203.473 138.346L196.769 166.305L227.393 178.273L232.574 176.566L231.799 180.268L264.446 194.842L330.23 166.605L323.862 141.529L308.75 136.732L303.208 113.277L279.557 106.127L215.574 119.85Z" fill="#FFE18A"/>
</g>
</svg>
