<svg width="20" height="20" viewBox="0 0 20 20" fill="none" xmlns="http://www.w3.org/2000/svg">
<path d="M13.3809 3.5C13.4856 3.5 13.5953 3.50281 13.709 3.50879L14.0605 3.53516C15.5183 3.67718 17.2778 4.97036 17.5 7.61133V8.51758C17.3172 10.7641 15.7602 12.691 10.7412 16.2627C10.2973 16.5786 9.70072 16.5786 9.25684 16.2627C4.23425 12.6933 2.67432 10.7664 2.5 8.51758V7.61914C2.70993 5.13612 4.2694 3.8453 5.66406 3.57617L5.94141 3.53516C6.89908 3.44248 7.6018 3.54376 8.16406 3.76465C8.72622 3.9855 9.18591 4.34104 9.6377 4.81836L10 5.20117L10.3633 4.81934C10.763 4.39996 11.1629 4.07573 11.6299 3.85352C12.0943 3.63257 12.6515 3.5 13.3809 3.5Z" stroke="#737373"/>
</svg>
