<svg width="16" height="16" viewBox="0 0 16 16" fill="none" xmlns="http://www.w3.org/2000/svg">
<mask id="mask0_1344_1220" style="mask-type:luminance" maskUnits="userSpaceOnUse" x="11" y="3" width="4" height="10">
<path d="M11.6897 3.11719H14.0095C14.1857 3.11719 14.3325 3.27261 14.3325 3.45911V12.5356C14.3325 12.7221 14.1857 12.8775 14.0095 12.8775H11.6897C11.5135 12.8775 11.3667 12.7221 11.3667 12.5356V3.45911C11.3667 3.27261 11.5135 3.11719 11.6897 3.11719Z" fill="white"/>
</mask>
<g mask="url(#mask0_1344_1220)">
<path d="M8.38623 4.28515L13.9801 2.09375L17.3277 11.6986L11.7338 13.8745L8.38623 4.28515Z" fill="#FA9819"/>
</g>
<mask id="mask1_1344_1220" style="mask-type:luminance" maskUnits="userSpaceOnUse" x="1" y="3" width="7" height="10">
<path d="M4.87797 3.22556L1.03125 11.3384C0.957838 11.5094 1.01657 11.7114 1.17807 11.7891L3.24825 12.8926C3.40975 12.9703 3.60062 12.9081 3.67403 12.7372L7.52075 4.62433C7.59416 4.45337 7.53543 4.25133 7.37393 4.17362L5.31843 3.07015C5.27438 3.03906 5.23034 3.03906 5.17161 3.03906C5.05415 3.03906 4.9367 3.11677 4.87797 3.22556Z" fill="white"/>
</mask>
<g mask="url(#mask1_1344_1220)">
<path d="M-2.46387 4.6107L6.56565 0.476562L11.029 11.418L1.9995 15.5522L-2.46387 4.6107Z" fill="#FA9819"/>
</g>
<mask id="mask2_1344_1220" style="mask-type:luminance" maskUnits="userSpaceOnUse" x="6" y="3" width="6" height="10">
<path d="M8.12301 3.26553L6.47861 12.1088C6.44925 12.2953 6.55202 12.4663 6.72821 12.5129L9.00394 12.9947C9.18012 13.0258 9.34163 12.917 9.38567 12.7305L11.0301 3.8872C11.0594 3.7007 10.9567 3.52974 10.7805 3.48311L8.50475 3.00131C8.49006 3.00131 8.4607 3.00131 8.44602 3.00131C8.28451 2.98577 8.15237 3.11011 8.12301 3.26553Z" fill="white"/>
</mask>
<g mask="url(#mask2_1344_1220)">
<path d="M3.36572 4.17262L10.5159 1.39062L14.1277 11.8192L6.99221 14.6012L3.36572 4.17262Z" fill="#FA9819"/>
</g>
</svg>
