<svg width="16" height="16" viewBox="0 0 16 16" fill="none" xmlns="http://www.w3.org/2000/svg">
<path fill-rule="evenodd" clip-rule="evenodd" d="M13.3585 4C14.2733 4.0003 15 4.7837 15 5.72936C14.9999 6.67493 14.2732 7.45738 13.3585 7.45767C12.6453 7.45744 12.047 6.9801 11.8185 6.32261H10.3375C10.0992 6.32261 9.88453 6.50667 9.84243 6.77412L9.7834 7.14687C9.73226 7.47214 9.59505 7.76407 9.40021 7.99948C9.59531 8.23499 9.73222 8.52759 9.7834 8.85313L9.84243 9.22588C9.88453 9.49333 10.0992 9.67739 10.3375 9.67739H10.3893C10.6178 9.01967 11.2169 8.54233 11.9303 8.54233C12.8449 8.54275 13.5707 9.32513 13.5708 10.2706C13.5708 11.2162 12.845 11.9996 11.9303 12C11.2168 12 10.6177 11.5217 10.3893 10.8639H10.3375C9.52803 10.8639 8.84896 10.2455 8.71875 9.41803L8.65971 9.04528C8.61769 8.77806 8.40266 8.59415 8.16467 8.59378H7.75455C7.52599 9.25111 6.92758 9.72859 6.21453 9.72884C5.5013 9.72884 4.90319 9.25118 4.67451 8.59378H4.18257C3.95405 9.25107 3.35552 9.72847 2.64255 9.72884C1.72755 9.72884 1 8.94532 1 7.99948C1.00026 7.05386 1.72771 6.27116 2.64255 6.27116C3.35553 6.27153 3.95406 6.74892 4.18257 7.40622H4.67451C4.90318 6.7488 5.50128 6.27116 6.21453 6.27116C6.92759 6.27141 7.526 6.74887 7.75455 7.40622H8.16467C8.40266 7.40585 8.61769 7.22194 8.65971 6.95472L8.71875 6.58197C8.84896 5.75455 9.52803 5.13611 10.3375 5.13611H11.8185C12.0469 4.47842 12.6452 4.00023 13.3585 4ZM11.9303 9.72884C11.6616 9.72884 11.4281 9.96243 11.428 10.2706C11.428 10.5789 11.6616 10.8124 11.9303 10.8124C12.1987 10.812 12.4326 10.5786 12.4326 10.2706C12.4325 9.96271 12.1987 9.72926 11.9303 9.72884ZM2.64255 7.45767C2.37396 7.45767 2.14051 7.69142 2.14026 7.99948C2.14026 8.30778 2.37381 8.54233 2.64255 8.54233C2.91094 8.54185 3.14484 8.30746 3.14484 7.99948C3.14459 7.69174 2.91079 7.45815 2.64255 7.45767ZM6.21453 7.45767C5.94594 7.45767 5.71249 7.69142 5.71224 7.99948C5.71224 8.30778 5.94579 8.54233 6.21453 8.54233C6.48303 8.54201 6.71682 8.30757 6.71682 7.99948C6.71657 7.69163 6.48289 7.45799 6.21453 7.45767ZM13.3585 5.18756C13.09 5.18785 12.8562 5.42126 12.8562 5.72936C12.8563 6.03735 13.09 6.27087 13.3585 6.27116C13.6269 6.27086 13.8617 6.03735 13.8618 5.72936C13.8618 5.42126 13.627 5.18786 13.3585 5.18756Z" fill="#FA9819"/>
</svg>
