<svg width="80" height="80" viewBox="0 0 80 80" fill="none" xmlns="http://www.w3.org/2000/svg">
<g opacity="0.1">
<path d="M72 70C72 70.0655 71.9872 70.1309 71.9615 70.1963C71.9358 70.2617 71.8972 70.3269 71.8459 70.3921C71.7946 70.4572 71.7305 70.5222 71.6537 70.5869C71.5768 70.6517 71.4873 70.7162 71.3851 70.7804C71.283 70.8446 71.1683 70.9084 71.041 70.9719C70.9137 71.0354 70.7741 71.0985 70.6221 71.1611C70.4701 71.2238 70.3058 71.2859 70.1294 71.3476C69.953 71.4092 69.7645 71.4703 69.5641 71.5307C69.3637 71.5912 69.1516 71.651 68.9277 71.7102C68.7037 71.7694 68.4683 71.8279 68.2215 71.8856C67.9746 71.9433 67.7165 72.0003 67.4473 72.0564C67.1781 72.1126 66.898 72.1678 66.607 72.2223C66.3161 72.2767 66.0146 72.3302 65.7026 72.3828C65.3907 72.4354 65.0686 72.487 64.7363 72.5376C64.4041 72.5882 64.0621 72.6377 63.7104 72.6862C63.3587 72.7347 62.9977 72.7821 62.6274 72.8284C62.2571 72.8747 61.8779 72.9198 61.4899 72.9638C61.1018 73.0078 60.7054 73.0505 60.3006 73.092C59.8958 73.1336 59.483 73.1738 59.0624 73.2128C58.6417 73.2518 58.2137 73.2895 57.7782 73.3259C57.3428 73.3622 56.9005 73.3973 56.4513 73.4309C56.0021 73.4646 55.5466 73.4968 55.0847 73.5277C54.6228 73.5585 54.1552 73.588 53.6818 73.616C53.2083 73.6439 52.7297 73.6705 52.2459 73.6955C51.762 73.7206 51.2736 73.7441 50.7805 73.7662C50.2874 73.7882 49.7903 73.8088 49.2891 73.8278C48.788 73.8468 48.2834 73.8642 47.7754 73.8801C47.2674 73.896 46.7565 73.9104 46.2429 73.9231C45.7292 73.9359 45.2134 73.9471 44.6954 73.9567C44.1773 73.9663 43.6577 73.9743 43.1365 73.9807C42.6154 73.9872 42.0932 73.992 41.5702 73.9952C41.0471 73.9984 40.5237 74 40 74C39.4763 74 38.9529 73.9984 38.4298 73.9952C37.9068 73.992 37.3846 73.9872 36.8635 73.9807C36.3423 73.9743 35.8227 73.9663 35.3046 73.9567C34.7866 73.9471 34.2708 73.9359 33.7571 73.9231C33.2435 73.9104 32.7326 73.896 32.2246 73.8801C31.7166 73.8642 31.212 73.8468 30.7109 73.8278C30.2097 73.8088 29.7126 73.7882 29.2195 73.7662C28.7264 73.7441 28.238 73.7206 27.7541 73.6955C27.2703 73.6705 26.7917 73.6439 26.3182 73.616C25.8448 73.588 25.3772 73.5585 24.9153 73.5277C24.4534 73.4968 23.9979 73.4646 23.5487 73.4309C23.0995 73.3973 22.6572 73.3622 22.2218 73.3259C21.7863 73.2895 21.3583 73.2518 20.9376 73.2128C20.517 73.1738 20.1042 73.1336 19.6994 73.092C19.2946 73.0505 18.8982 73.0078 18.5101 72.9638C18.1221 72.9198 17.7429 72.8747 17.3726 72.8284C17.0023 72.7821 16.6413 72.7347 16.2896 72.6862C15.9379 72.6377 15.5959 72.5882 15.2637 72.5376C14.9314 72.487 14.6093 72.4354 14.2974 72.3828C13.9854 72.3302 13.6839 72.2767 13.393 72.2223C13.102 72.1678 12.8219 72.1126 12.5527 72.0564C12.2834 72.0003 12.0254 71.9433 11.7785 71.8856C11.5316 71.8279 11.2963 71.7694 11.0723 71.7102C10.8484 71.651 10.6363 71.5912 10.4359 71.5307C10.2354 71.4703 10.047 71.4092 9.87059 71.3476C9.69416 71.2859 9.52993 71.2238 9.37791 71.1611C9.22589 71.0985 9.08625 71.0354 8.959 70.9719C8.83175 70.9084 8.71704 70.8446 8.61487 70.7804C8.5127 70.7162 8.42319 70.6517 8.34635 70.5869C8.26951 70.5222 8.20542 70.4572 8.15409 70.3921C8.10276 70.3269 8.06424 70.2617 8.03855 70.1963C8.01285 70.1309 8 70.0655 8 70C8 69.9345 8.01285 69.8691 8.03855 69.8037C8.06424 69.7383 8.10276 69.6731 8.15409 69.6079C8.20542 69.5428 8.26951 69.4778 8.34635 69.4131C8.42319 69.3483 8.5127 69.2838 8.61487 69.2196C8.71704 69.1554 8.83175 69.0916 8.959 69.0281C9.08625 68.9646 9.22589 68.9015 9.37791 68.8389C9.52993 68.7762 9.69416 68.7141 9.87059 68.6524C10.047 68.5908 10.2354 68.5297 10.4359 68.4693C10.6363 68.4088 10.8484 68.349 11.0723 68.2898C11.2963 68.2306 11.5316 68.1721 11.7785 68.1144C12.0254 68.0567 12.2834 67.9997 12.5527 67.9436C12.8219 67.8874 13.102 67.8321 13.393 67.7777C13.6839 67.7233 13.9854 67.6698 14.2974 67.6172C14.6093 67.5646 14.9314 67.513 15.2637 67.4624C15.5959 67.4118 15.9379 67.3623 16.2896 67.3138C16.6413 67.2653 17.0023 67.2179 17.3726 67.1716C17.7429 67.1253 18.1221 67.0802 18.5101 67.0362C18.8982 66.9922 19.2946 66.9495 19.6994 66.908C20.1042 66.8664 20.517 66.8262 20.9376 66.7872C21.3583 66.7482 21.7863 66.7105 22.2218 66.6741C22.6572 66.6378 23.0995 66.6027 23.5487 66.5691C23.9979 66.5354 24.4534 66.5032 24.9153 66.4723C25.3772 66.4415 25.8448 66.412 26.3182 66.384C26.7917 66.3561 27.2703 66.3295 27.7541 66.3045C28.238 66.2794 28.7264 66.2559 29.2195 66.2338C29.7126 66.2118 30.2097 66.1912 30.7109 66.1722C31.212 66.1532 31.7166 66.1358 32.2246 66.1199C32.7326 66.104 33.2435 66.0896 33.7571 66.0769C34.2708 66.0641 34.7866 66.0529 35.3046 66.0433C35.8227 66.0337 36.3423 66.0257 36.8635 66.0193C37.3846 66.0128 37.9068 66.008 38.4298 66.0048C38.9529 66.0016 39.4763 66 40 66C40.5237 66 41.0471 66.0016 41.5702 66.0048C42.0932 66.008 42.6154 66.0128 43.1365 66.0193C43.6577 66.0257 44.1773 66.0337 44.6954 66.0433C45.2134 66.0529 45.7292 66.0641 46.2429 66.0769C46.7565 66.0896 47.2674 66.104 47.7754 66.1199C48.2834 66.1358 48.788 66.1532 49.2891 66.1722C49.7903 66.1912 50.2874 66.2118 50.7805 66.2338C51.2736 66.2559 51.762 66.2794 52.2459 66.3045C52.7297 66.3295 53.2083 66.3561 53.6818 66.384C54.1552 66.412 54.6228 66.4415 55.0847 66.4723C55.5466 66.5032 56.0021 66.5354 56.4513 66.5691C56.9005 66.6027 57.3428 66.6378 57.7782 66.6741C58.2137 66.7105 58.6417 66.7482 59.0624 66.7872C59.483 66.8262 59.8958 66.8664 60.3006 66.908C60.7054 66.9495 61.1018 66.9922 61.4899 67.0362C61.8779 67.0802 62.2571 67.1253 62.6274 67.1716C62.9977 67.2179 63.3587 67.2653 63.7104 67.3138C64.0621 67.3623 64.4041 67.4118 64.7363 67.4624C65.0686 67.513 65.3907 67.5646 65.7026 67.6172C66.0146 67.6698 66.3161 67.7233 66.607 67.7777C66.898 67.8321 67.1781 67.8874 67.4473 67.9436C67.7165 67.9997 67.9746 68.0567 68.2215 68.1144C68.4683 68.1721 68.7037 68.2306 68.9276 68.2898C69.1516 68.349 69.3637 68.4088 69.5641 68.4693C69.7645 68.5297 69.953 68.5908 70.1294 68.6524C70.3058 68.7141 70.4701 68.7762 70.6221 68.8389C70.7741 68.9015 70.9137 68.9646 71.041 69.0281C71.1683 69.0916 71.283 69.1554 71.3851 69.2196C71.4873 69.2838 71.5768 69.3483 71.6536 69.4131C71.7305 69.4778 71.7946 69.5428 71.8459 69.6079C71.8972 69.6731 71.9358 69.7383 71.9615 69.8037C71.9872 69.8691 72 69.9345 72 70Z" fill="#FA9819"/>
</g>
<g opacity="0.2">
<path d="M55.4004 10.8787V11.3188L58.7204 14.3987L71.5204 8.19875L59.9604 15.5988V19.2388L61.8004 17.4388V17.3988L61.8404 17.4388L63.6804 19.2388L73.6004 7.11875V6.71875L55.4004 10.8787Z" fill="#FA9819"/>
</g>
<g opacity="0.5">
<path fill-rule="evenodd" clip-rule="evenodd" d="M20.9604 15.4008C17.8404 16.2008 17.2004 16.8808 16.3604 20.0008C15.5604 16.8808 14.8804 16.2408 11.7604 15.4008C14.8804 14.6008 15.5204 13.9208 16.3604 10.8008C17.1604 13.8808 17.8404 14.5608 20.9604 15.4008ZM39.4 40.2809C39.6 40.4009 39.8 40.4409 40 40.4409C40.2 40.4409 40.4 40.4009 40.6 40.2809L60.92 28.6809C61.28 28.4809 61.52 28.0809 61.52 27.6409C61.52 27.2009 61.28 26.8009 60.92 26.6009L40.6 15.0009C40.24 14.8009 39.76 14.8009 39.4 15.0009L19.08 26.6009C18.72 26.8009 18.48 27.2009 18.48 27.6409C18.48 28.0809 18.72 28.4809 19.08 28.6809L39.4 40.2809ZM40 37.8407L22.08 27.6007L40 17.4007L57.92 27.6007L40 37.8407ZM16.2 21.5608C15 21.8808 14.76 22.1208 14.44 23.3208C14.12 22.1208 13.88 21.8808 12.68 21.5608C13.88 21.2408 14.12 21.0008 14.44 19.8008C14.72 21.0008 15 21.2408 16.2 21.5608ZM36.3599 69.1209C36.5599 69.2409 36.7599 69.2809 36.9599 69.2809C37.1599 69.2809 37.3599 69.2409 37.5599 69.1209C37.9199 68.9209 38.1599 68.5209 38.1599 68.0809L38.0399 44.6809C38.0399 44.2409 37.7999 43.8409 37.4399 43.6409L17.1999 31.8409C16.8399 31.6409 16.3599 31.6409 15.9999 31.8409C15.6399 32.0409 15.3999 32.4409 15.3999 32.8809L15.5199 56.2809C15.5199 56.7209 15.7599 57.1209 16.1199 57.3209L36.3599 69.1209ZM43.04 69.2809C42.84 69.2809 42.64 69.2409 42.44 69.1209C42.08 68.9209 41.84 68.5209 41.84 68.0809L41.96 44.6809C41.96 44.2409 42.2 43.8809 42.56 43.6409L62.8 31.8409C63.16 31.6409 63.64 31.6409 64 31.8409C64.36 32.0409 64.6 32.4409 64.6 32.8809L64.48 56.2809C64.48 56.7209 64.24 57.0809 63.88 57.3209L43.64 69.1209C43.44 69.2409 43.24 69.2809 43.04 69.2809ZM35.7599 66.0007L17.9199 55.6007L17.8399 34.9607L35.6799 45.3607L35.7599 66.0007ZM44.3201 45.3607L44.2401 66.0007L62.0801 55.6007L62.1601 34.9607L44.3201 45.3607ZM70.6 61.6408C68.64 62.1608 68.2401 62.5608 67.7201 64.5208C67.2001 62.5608 66.8 62.1608 64.84 61.6408C66.8 61.1208 67.2001 60.6808 67.7201 58.7608C68.2001 60.7208 68.64 61.1208 70.6 61.6408ZM10.72 64.2408C10.04 64.2408 9.52002 63.7208 9.52002 63.0408C9.52002 62.4008 10.08 61.8408 10.72 61.8408C11.4 61.8408 11.92 62.3608 11.92 63.0408C11.92 63.7208 11.4 64.2408 10.72 64.2408ZM72.4 66.2407C71.2 66.5607 70.92 66.8007 70.6 68.0407C70.28 66.8407 70.04 66.5607 68.8 66.2407C70 65.9207 70.28 65.6407 70.6 64.4407C70.92 65.6407 71.16 65.9207 72.4 66.2407Z" fill="#FA9819"/>
</g>
<g opacity="0.2">
<path fill-rule="evenodd" clip-rule="evenodd" d="M28.44 27.6L40 21L51.56 27.6L40 34.2L28.44 27.6ZM21.08 53.8L21 40.48L32.52 47.2L32.56 60.48L21.08 53.8ZM58.9996 40.48L47.4796 47.2L47.4396 60.48L58.9196 53.8L58.9996 40.48Z" fill="#FA9819"/>
</g>
</svg>
