<svg width="80" height="80" viewBox="0 0 80 80" fill="none" xmlns="http://www.w3.org/2000/svg">
<g opacity="0.1">
<path d="M72 70C72 70.0655 71.9872 70.1309 71.9615 70.1963C71.9358 70.2617 71.8972 70.3269 71.8459 70.3921C71.7946 70.4572 71.7305 70.5222 71.6537 70.5869C71.5768 70.6517 71.4873 70.7162 71.3851 70.7804C71.283 70.8446 71.1683 70.9084 71.041 70.9719C70.9137 71.0354 70.7741 71.0985 70.6221 71.1611C70.4701 71.2238 70.3058 71.2859 70.1294 71.3476C69.953 71.4092 69.7645 71.4703 69.5641 71.5307C69.3637 71.5912 69.1516 71.651 68.9277 71.7102C68.7037 71.7694 68.4683 71.8279 68.2215 71.8856C67.9746 71.9433 67.7165 72.0003 67.4473 72.0564C67.1781 72.1126 66.898 72.1678 66.607 72.2223C66.3161 72.2767 66.0146 72.3302 65.7026 72.3828C65.3907 72.4354 65.0686 72.487 64.7363 72.5376C64.4041 72.5882 64.0621 72.6377 63.7104 72.6862C63.3587 72.7347 62.9977 72.7821 62.6274 72.8284C62.2571 72.8747 61.8779 72.9198 61.4899 72.9638C61.1018 73.0078 60.7054 73.0505 60.3006 73.092C59.8958 73.1336 59.483 73.1738 59.0624 73.2128C58.6417 73.2518 58.2137 73.2895 57.7782 73.3259C57.3428 73.3622 56.9005 73.3973 56.4513 73.4309C56.0021 73.4646 55.5466 73.4968 55.0847 73.5277C54.6228 73.5585 54.1552 73.588 53.6818 73.616C53.2083 73.6439 52.7297 73.6705 52.2459 73.6955C51.762 73.7206 51.2736 73.7441 50.7805 73.7662C50.2874 73.7882 49.7903 73.8088 49.2891 73.8278C48.788 73.8468 48.2834 73.8642 47.7754 73.8801C47.2674 73.896 46.7565 73.9104 46.2429 73.9231C45.7292 73.9359 45.2134 73.9471 44.6954 73.9567C44.1773 73.9663 43.6577 73.9743 43.1365 73.9807C42.6154 73.9872 42.0932 73.992 41.5702 73.9952C41.0471 73.9984 40.5237 74 40 74C39.4763 74 38.9529 73.9984 38.4298 73.9952C37.9068 73.992 37.3846 73.9872 36.8635 73.9807C36.3423 73.9743 35.8227 73.9663 35.3046 73.9567C34.7866 73.9471 34.2708 73.9359 33.7571 73.9231C33.2435 73.9104 32.7326 73.896 32.2246 73.8801C31.7166 73.8642 31.212 73.8468 30.7109 73.8278C30.2097 73.8088 29.7126 73.7882 29.2195 73.7662C28.7264 73.7441 28.238 73.7206 27.7541 73.6955C27.2703 73.6705 26.7917 73.6439 26.3182 73.616C25.8448 73.588 25.3772 73.5585 24.9153 73.5277C24.4534 73.4968 23.9979 73.4646 23.5487 73.4309C23.0995 73.3973 22.6572 73.3622 22.2218 73.3259C21.7863 73.2895 21.3583 73.2518 20.9376 73.2128C20.517 73.1738 20.1042 73.1336 19.6994 73.092C19.2946 73.0505 18.8982 73.0078 18.5101 72.9638C18.1221 72.9198 17.7429 72.8747 17.3726 72.8284C17.0023 72.7821 16.6413 72.7347 16.2896 72.6862C15.9379 72.6377 15.5959 72.5882 15.2637 72.5376C14.9314 72.487 14.6093 72.4354 14.2974 72.3828C13.9854 72.3302 13.6839 72.2767 13.393 72.2223C13.102 72.1678 12.8219 72.1126 12.5527 72.0564C12.2834 72.0003 12.0254 71.9433 11.7785 71.8856C11.5316 71.8279 11.2963 71.7694 11.0723 71.7102C10.8484 71.651 10.6363 71.5912 10.4359 71.5307C10.2354 71.4703 10.047 71.4092 9.87059 71.3476C9.69416 71.2859 9.52993 71.2238 9.37791 71.1611C9.22589 71.0985 9.08625 71.0354 8.959 70.9719C8.83175 70.9084 8.71704 70.8446 8.61487 70.7804C8.5127 70.7162 8.42319 70.6517 8.34635 70.5869C8.26951 70.5222 8.20542 70.4572 8.15409 70.3921C8.10276 70.3269 8.06424 70.2617 8.03855 70.1963C8.01285 70.1309 8 70.0655 8 70C8 69.9345 8.01285 69.8691 8.03855 69.8037C8.06424 69.7383 8.10276 69.6731 8.15409 69.6079C8.20542 69.5428 8.26951 69.4778 8.34635 69.4131C8.42319 69.3483 8.5127 69.2838 8.61487 69.2196C8.71704 69.1554 8.83175 69.0916 8.959 69.0281C9.08625 68.9646 9.22589 68.9015 9.37791 68.8389C9.52993 68.7762 9.69416 68.7141 9.87059 68.6524C10.047 68.5908 10.2354 68.5297 10.4359 68.4693C10.6363 68.4088 10.8484 68.349 11.0723 68.2898C11.2963 68.2306 11.5316 68.1721 11.7785 68.1144C12.0254 68.0567 12.2834 67.9997 12.5527 67.9436C12.8219 67.8874 13.102 67.8321 13.393 67.7777C13.6839 67.7233 13.9854 67.6698 14.2974 67.6172C14.6093 67.5646 14.9314 67.513 15.2637 67.4624C15.5959 67.4118 15.9379 67.3623 16.2896 67.3138C16.6413 67.2653 17.0023 67.2179 17.3726 67.1716C17.7429 67.1253 18.1221 67.0802 18.5101 67.0362C18.8982 66.9922 19.2946 66.9495 19.6994 66.908C20.1042 66.8664 20.517 66.8262 20.9376 66.7872C21.3583 66.7482 21.7863 66.7105 22.2218 66.6741C22.6572 66.6378 23.0995 66.6027 23.5487 66.5691C23.9979 66.5354 24.4534 66.5032 24.9153 66.4723C25.3772 66.4415 25.8448 66.412 26.3182 66.384C26.7917 66.3561 27.2703 66.3295 27.7541 66.3045C28.238 66.2794 28.7264 66.2559 29.2195 66.2338C29.7126 66.2118 30.2097 66.1912 30.7109 66.1722C31.212 66.1532 31.7166 66.1358 32.2246 66.1199C32.7326 66.104 33.2435 66.0896 33.7571 66.0769C34.2708 66.0641 34.7866 66.0529 35.3046 66.0433C35.8227 66.0337 36.3423 66.0257 36.8635 66.0193C37.3846 66.0128 37.9068 66.008 38.4298 66.0048C38.9529 66.0016 39.4763 66 40 66C40.5237 66 41.0471 66.0016 41.5702 66.0048C42.0932 66.008 42.6154 66.0128 43.1365 66.0193C43.6577 66.0257 44.1773 66.0337 44.6954 66.0433C45.2134 66.0529 45.7292 66.0641 46.2429 66.0769C46.7565 66.0896 47.2674 66.104 47.7754 66.1199C48.2834 66.1358 48.788 66.1532 49.2891 66.1722C49.7903 66.1912 50.2874 66.2118 50.7805 66.2338C51.2736 66.2559 51.762 66.2794 52.2459 66.3045C52.7297 66.3295 53.2083 66.3561 53.6818 66.384C54.1552 66.412 54.6228 66.4415 55.0847 66.4723C55.5466 66.5032 56.0021 66.5354 56.4513 66.5691C56.9005 66.6027 57.3428 66.6378 57.7782 66.6741C58.2137 66.7105 58.6417 66.7482 59.0624 66.7872C59.483 66.8262 59.8958 66.8664 60.3006 66.908C60.7054 66.9495 61.1018 66.9922 61.4899 67.0362C61.8779 67.0802 62.2571 67.1253 62.6274 67.1716C62.9977 67.2179 63.3587 67.2653 63.7104 67.3138C64.0621 67.3623 64.4041 67.4118 64.7363 67.4624C65.0686 67.513 65.3907 67.5646 65.7026 67.6172C66.0146 67.6698 66.3161 67.7233 66.607 67.7777C66.898 67.8321 67.1781 67.8874 67.4473 67.9436C67.7165 67.9997 67.9746 68.0567 68.2215 68.1144C68.4683 68.1721 68.7037 68.2306 68.9276 68.2898C69.1516 68.349 69.3637 68.4088 69.5641 68.4693C69.7645 68.5297 69.953 68.5908 70.1294 68.6524C70.3058 68.7141 70.4701 68.7762 70.6221 68.8389C70.7741 68.9015 70.9137 68.9646 71.041 69.0281C71.1683 69.0916 71.283 69.1554 71.3851 69.2196C71.4873 69.2838 71.5768 69.3483 71.6536 69.4131C71.7305 69.4778 71.7946 69.5428 71.8459 69.6079C71.8972 69.6731 71.9358 69.7383 71.9615 69.8037C71.9872 69.8691 72 69.9345 72 70Z" fill="#FA9819"/>
</g>
<g opacity="0.5">
<path fill-rule="evenodd" clip-rule="evenodd" d="M63.7994 15.2C64.6394 12.08 65.2794 11.4 68.3994 10.6C65.2794 9.76 64.5994 9.08 63.7994 6C62.9594 9.12 62.3194 9.8 59.1994 10.6C62.3194 11.44 62.9994 12.08 63.7994 15.2ZM69.3997 15.1599C68.1997 15.4799 67.9597 15.7199 67.6397 16.9199C67.3197 15.7199 67.0797 15.4799 65.8797 15.1599C67.0797 14.8399 67.3197 14.5999 67.6397 13.3999C67.9197 14.5999 68.1997 14.8399 69.3997 15.1599ZM16.7197 44.24C16.7197 44.92 17.2397 45.44 17.9197 45.44C18.5997 45.44 19.1197 44.92 19.1197 44.24C19.1197 43.56 18.5997 43.04 17.9197 43.04C17.2797 43.04 16.7197 43.6 16.7197 44.24ZM64.8001 65.3199C65.3601 63.1599 65.8401 62.6799 68.0001 62.1199C65.8401 61.5599 65.3601 61.0799 64.8001 58.9199C64.2401 61.0799 63.7601 61.5599 61.6001 62.1199C63.7601 62.6799 64.2401 63.1599 64.8001 65.3199ZM71.9998 65.8404C70.7998 66.1604 70.5198 66.4004 70.1998 67.6404C69.8798 66.4404 69.6398 66.1604 68.3998 65.8404C69.5998 65.5204 69.8798 65.2404 70.1998 64.0404C70.5198 65.2404 70.7598 65.5204 71.9998 65.8404Z" fill="#FA9819"/>
</g>
<g opacity="0.2">
<path fill-rule="evenodd" clip-rule="evenodd" d="M11.5996 15.5998V15.9598L14.5996 18.7598L26.1196 13.1598L15.7196 19.8398H15.6796V23.1198L17.3596 21.4798V21.4398L17.3996 21.4798L19.0796 23.1198L27.9996 12.1998V11.8398L11.5996 15.5998ZM45.9993 19.1999C37.3993 19.1999 30.3993 26.1999 30.3993 34.7999C30.3993 43.3999 37.3993 50.3999 45.9993 50.3999C54.5993 50.3999 61.5993 43.3999 61.5993 34.7999C61.5993 26.1999 54.5993 19.1999 45.9993 19.1999ZM41.9996 35.9999H49.9996C50.6796 35.9999 51.1996 35.4799 51.1996 34.7999C51.1996 34.1199 50.6796 33.5999 49.9996 33.5999H41.9996C41.3196 33.5999 40.7996 34.1199 40.7996 34.7999C40.7996 35.4799 41.3196 35.9999 41.9996 35.9999Z" fill="#FA9819"/>
</g>
<g opacity="0.5">
<path fill-rule="evenodd" clip-rule="evenodd" d="M25.1998 34.8C25.1998 23.32 34.5198 14 45.9998 14C57.4798 14 66.8398 23.32 66.8398 34.8C66.8398 46.28 57.5198 55.6 46.0398 55.6C41.1198 55.6 36.5598 53.88 32.9998 51L29.6398 54.36L29.9198 54.64C31.3198 56.04 31.3198 58.32 29.9198 59.72L21.9998 67.64C21.2798 68.32 20.3598 68.68 19.4398 68.68C18.5198 68.68 17.5998 68.36 16.8798 67.64L14.5998 65.36C13.1998 63.96 13.1998 61.68 14.5998 60.28L22.5198 52.36C23.9198 50.96 26.1998 50.96 27.5998 52.36L27.8798 52.64L31.1598 49.36C27.4798 45.6 25.1998 40.48 25.1998 34.8ZM64.3999 34.7999C64.3999 35.101 64.3925 35.402 64.3777 35.7027C64.363 36.0035 64.3408 36.3037 64.3113 36.6034C64.2818 36.9031 64.2449 37.2019 64.2007 37.4997C64.1566 37.7976 64.1051 38.0942 64.0463 38.3896C63.9876 38.6849 63.9216 38.9786 63.8485 39.2707C63.7753 39.5628 63.695 39.853 63.6076 40.1411C63.5202 40.4293 63.4257 40.7151 63.3243 40.9987C63.2229 41.2822 63.1145 41.5631 62.9993 41.8413C62.884 42.1195 62.762 42.3947 62.6333 42.6669C62.5045 42.9391 62.3692 43.208 62.2272 43.4736C62.0853 43.7392 61.9369 44.0011 61.7821 44.2594C61.6273 44.5177 61.4662 44.772 61.2989 45.0224C61.1316 45.2728 60.9583 45.5189 60.7789 45.7608C60.5995 46.0026 60.4143 46.24 60.2233 46.4727C60.0322 46.7055 59.8356 46.9335 59.6334 47.1566C59.4312 47.3797 59.2236 47.5977 59.0107 47.8107C58.7977 48.0236 58.5797 48.2312 58.3566 48.4334C58.1335 48.6356 57.9055 48.8323 57.6727 49.0233C57.44 49.2143 57.2026 49.3995 56.9608 49.5789C56.7189 49.7583 56.4728 49.9316 56.2224 50.0989C55.972 50.2662 55.7177 50.4273 55.4594 50.5821C55.2011 50.7369 54.9392 50.8853 54.6736 51.0273C54.408 51.1692 54.1391 51.3046 53.8669 51.4333C53.5947 51.5621 53.3195 51.684 53.0413 51.7993C52.7631 51.9145 52.4822 52.0229 52.1987 52.1243C51.9151 52.2258 51.6293 52.3202 51.3411 52.4076C51.053 52.495 50.7628 52.5753 50.4707 52.6485C50.1786 52.7216 49.8849 52.7876 49.5896 52.8463C49.2942 52.9051 48.9976 52.9566 48.6997 53.0007C48.4019 53.0449 48.1031 53.0818 47.8034 53.1113C47.5037 53.1408 47.2035 53.163 46.9027 53.1777C46.602 53.1925 46.301 53.1999 45.9999 53.1999C45.6988 53.1999 45.3978 53.1925 45.097 53.1777C44.7963 53.163 44.4961 53.1408 44.1964 53.1113C43.8967 53.0818 43.5979 53.0449 43.3001 53.0007C43.0022 52.9566 42.7056 52.9051 42.4102 52.8463C42.1149 52.7876 41.8212 52.7216 41.5291 52.6485C41.2369 52.5753 40.9468 52.495 40.6587 52.4076C40.3705 52.3202 40.0846 52.2258 39.8011 52.1243C39.5176 52.0229 39.2367 51.9145 38.9585 51.7993C38.6803 51.684 38.4051 51.562 38.1329 51.4333C37.8607 51.3046 37.5918 51.1692 37.3262 51.0272C37.0606 50.8853 36.7987 50.7369 36.5404 50.5821C36.2821 50.4273 36.0278 50.2662 35.7774 50.0989C35.527 49.9316 35.2809 49.7583 35.039 49.5789C34.7972 49.3995 34.5598 49.2143 34.3271 49.0233C34.0943 48.8323 33.8663 48.6356 33.6432 48.4334C33.4201 48.2312 33.2021 48.0236 32.9891 47.8107C32.7762 47.5977 32.5686 47.3797 32.3664 47.1566C32.1642 46.9335 31.9675 46.7055 31.7765 46.4727C31.5855 46.24 31.4003 46.0026 31.2209 45.7608C31.0415 45.5189 30.8681 45.2728 30.7008 45.0224C30.5336 44.772 30.3725 44.5177 30.2177 44.2594C30.0629 44.0011 29.9145 43.7392 29.7725 43.4736C29.6306 43.208 29.4952 42.9391 29.3665 42.6669C29.2377 42.3947 29.1157 42.1195 29.0005 41.8413C28.8853 41.5631 28.7769 41.2822 28.6755 40.9987C28.574 40.7151 28.4796 40.4293 28.3922 40.1411C28.3048 39.853 28.2245 39.5628 28.1513 39.2707C28.0782 38.9786 28.0122 38.6849 27.9534 38.3896C27.8947 38.0942 27.8432 37.7976 27.799 37.4997C27.7549 37.2019 27.718 36.9031 27.6885 36.6034C27.659 36.3037 27.6368 36.0035 27.6221 35.7027C27.6073 35.402 27.5999 35.101 27.5999 34.7999C27.5999 34.4988 27.6073 34.1978 27.6221 33.8971C27.6368 33.5963 27.659 33.2961 27.6885 32.9964C27.718 32.6967 27.7549 32.3979 27.799 32.1001C27.8432 31.8022 27.8947 31.5056 27.9534 31.2102C28.0122 30.9149 28.0782 30.6212 28.1513 30.3291C28.2245 30.037 28.3048 29.7468 28.3922 29.4587C28.4796 29.1705 28.574 28.8847 28.6755 28.6011C28.7769 28.3176 28.8853 28.0367 29.0005 27.7585C29.1157 27.4803 29.2377 27.2051 29.3665 26.9329C29.4952 26.6607 29.6306 26.3918 29.7725 26.1262C29.9145 25.8606 30.0629 25.5987 30.2177 25.3404C30.3725 25.0821 30.5336 24.8278 30.7008 24.5774C30.8682 24.327 31.0415 24.0809 31.2209 23.839C31.4003 23.5972 31.5855 23.3598 31.7765 23.1271C31.9675 22.8943 32.1642 22.6663 32.3664 22.4432C32.5686 22.2201 32.7762 22.0021 32.9891 21.7891C33.2021 21.5762 33.4201 21.3686 33.6432 21.1664C33.8663 20.9642 34.0943 20.7675 34.3271 20.5765C34.5598 20.3855 34.7972 20.2003 35.039 20.0209C35.2809 19.8415 35.527 19.6682 35.7774 19.5009C36.0278 19.3336 36.2821 19.1725 36.5404 19.0177C36.7987 18.8629 37.0606 18.7145 37.3262 18.5726C37.5918 18.4306 37.8607 18.2952 38.1329 18.1665C38.4051 18.0377 38.6803 17.9158 38.9585 17.8005C39.2367 17.6853 39.5176 17.5769 39.8011 17.4755C40.0846 17.374 40.3705 17.2796 40.6587 17.1922C40.9468 17.1048 41.237 17.0245 41.5291 16.9513C41.8212 16.8782 42.1149 16.8122 42.4102 16.7535C42.7056 16.6947 43.0022 16.6432 43.3001 16.5991C43.5979 16.5549 43.8967 16.518 44.1964 16.4885C44.4961 16.459 44.7963 16.4368 45.0971 16.4221C45.3978 16.4073 45.6988 16.3999 45.9999 16.3999C46.301 16.3999 46.602 16.4073 46.9027 16.4221C47.2035 16.4368 47.5037 16.459 47.8034 16.4885C48.1031 16.518 48.4019 16.5549 48.6997 16.5991C48.9976 16.6432 49.2942 16.6947 49.5896 16.7535C49.8849 16.8122 50.1786 16.8782 50.4707 16.9513C50.7628 17.0245 51.053 17.1048 51.3411 17.1922C51.6293 17.2796 51.9151 17.374 52.1987 17.4755C52.4822 17.5769 52.7631 17.6853 53.0413 17.8005C53.3195 17.9158 53.5947 18.0377 53.8669 18.1665C54.1391 18.2952 54.408 18.4306 54.6736 18.5726C54.9392 18.7145 55.2011 18.8629 55.4594 19.0177C55.7177 19.1725 55.972 19.3336 56.2224 19.5009C56.4728 19.6682 56.7189 19.8415 56.9608 20.0209C57.2026 20.2003 57.44 20.3855 57.6727 20.5765C57.9055 20.7675 58.1335 20.9642 58.3566 21.1664C58.5797 21.3686 58.7977 21.5762 59.0107 21.7891C59.2236 22.0021 59.4312 22.2201 59.6334 22.4432C59.8356 22.6663 60.0322 22.8943 60.2233 23.1271C60.4143 23.3598 60.5995 23.5972 60.7789 23.839C60.9583 24.0809 61.1316 24.327 61.2989 24.5774C61.4662 24.8278 61.6273 25.0821 61.7821 25.3404C61.9369 25.5987 62.0853 25.8606 62.2272 26.1262C62.3692 26.3918 62.5045 26.6607 62.6333 26.9329C62.762 27.2051 62.884 27.4803 62.9993 27.7585C63.1145 28.0367 63.2229 28.3176 63.3243 28.6011C63.4257 28.8847 63.5202 29.1705 63.6076 29.4587C63.695 29.7468 63.7753 30.037 63.8485 30.3291C63.9216 30.6212 63.9876 30.9149 64.0463 31.2102C64.1051 31.5056 64.1566 31.8022 64.2007 32.1001C64.2449 32.3979 64.2818 32.6967 64.3113 32.9964C64.3408 33.2961 64.363 33.5963 64.3777 33.8971C64.3925 34.1978 64.3999 34.4988 64.3999 34.7999ZM28.1999 58.04L20.2799 65.9601C19.7999 66.4401 19.0399 66.4401 18.5999 65.9601L16.3199 63.68C15.8399 63.2 15.8399 62.4401 16.3199 62.0001L24.2399 54.08C24.4799 53.84 24.7999 53.7201 25.0799 53.7201C25.3999 53.7201 25.6799 53.84 25.9199 54.08L28.1999 56.36C28.6399 56.8 28.6399 57.5601 28.1999 58.04Z" fill="#FA9819"/>
</g>
</svg>
