<svg width="40" height="40" viewBox="0 0 40 40" fill="none" xmlns="http://www.w3.org/2000/svg">
<g filter="url(#filter0_d_1344_564)">
<path d="M29.7953 12.5034C29.8559 12.6406 29.9052 12.8005 29.9431 12.9833C29.981 13.1662 30 13.3566 30 13.5546C30 13.7527 29.9621 13.9507 29.8863 14.1488C29.8104 14.3469 29.6891 14.5373 29.5223 14.7201C29.3403 14.9029 29.1773 15.0629 29.0332 15.2C28.8892 15.3371 28.7641 15.459 28.6579 15.5656C28.5366 15.6875 28.4229 15.7942 28.3167 15.8856L24.063 11.6122C24.245 11.4446 24.4611 11.2428 24.7113 11.0066C24.9615 10.7705 25.17 10.5839 25.3368 10.4468C25.5491 10.2792 25.769 10.1611 25.9965 10.0926C26.224 10.024 26.4477 9.99353 26.6675 10.0011C26.8874 10.0088 27.0997 10.043 27.3045 10.104C27.5092 10.1649 27.6874 10.2335 27.839 10.3096C28.1575 10.4772 28.5101 10.7705 28.8968 11.1895C29.2835 11.6084 29.583 12.0464 29.7953 12.5034ZM12.0752 23.6553C12.1662 23.5639 12.3785 23.3468 12.7122 23.004C13.0458 22.6612 13.4628 22.2384 13.9633 21.7357L15.6238 20.0675L17.4663 18.2165L22.357 13.3033L26.6107 17.5995L21.72 22.5127L19.9003 24.3637C19.2937 24.9578 18.7477 25.5025 18.2625 25.9976C17.7772 26.4927 17.3753 26.9003 17.0569 27.2202C16.7384 27.5401 16.5488 27.723 16.4882 27.7687C16.3365 27.9058 16.1621 28.0505 15.965 28.2028C15.7679 28.3552 15.5631 28.4771 15.3508 28.5685C15.1385 28.6751 14.8276 28.8046 14.4182 28.957C14.0087 29.1093 13.5803 29.2579 13.133 29.4026C12.6856 29.5473 12.261 29.673 11.8591 29.7796C11.4573 29.8863 11.1578 29.9548 10.9606 29.9853C10.5512 30.031 10.2782 29.9701 10.1417 29.8025C10.0052 29.6349 9.96734 29.3531 10.028 28.957C10.0583 28.7437 10.1304 28.4352 10.2441 28.0315C10.3578 27.6277 10.4791 27.2088 10.608 26.7746C10.7369 26.3404 10.8621 25.9405 10.9834 25.5749C11.1047 25.2092 11.2033 24.9578 11.2791 24.8207C11.3701 24.6074 11.4724 24.4132 11.5862 24.238C11.6999 24.0628 11.8629 23.8686 12.0752 23.6553Z" fill="white"/>
</g>
<defs>
<filter id="filter0_d_1344_564" x="2" y="2" width="36" height="36" filterUnits="userSpaceOnUse" color-interpolation-filters="sRGB">
<feFlood flood-opacity="0" result="BackgroundImageFix"/>
<feColorMatrix in="SourceAlpha" type="matrix" values="0 0 0 0 0 0 0 0 0 0 0 0 0 0 0 0 0 0 127 0" result="hardAlpha"/>
<feOffset/>
<feGaussianBlur stdDeviation="4"/>
<feComposite in2="hardAlpha" operator="out"/>
<feColorMatrix type="matrix" values="0 0 0 0 0 0 0 0 0 0 0 0 0 0 0 0 0 0 0.3 0"/>
<feBlend mode="normal" in2="BackgroundImageFix" result="effect1_dropShadow_1344_564"/>
<feBlend mode="normal" in="SourceGraphic" in2="effect1_dropShadow_1344_564" result="shape"/>
</filter>
</defs>
</svg>
