<svg width="68" height="69" viewBox="0 0 68 69" fill="none" xmlns="http://www.w3.org/2000/svg">
<g opacity="0.6">
<path fill-rule="evenodd" clip-rule="evenodd" d="M45.0776 3.60791L52.7142 3.74578L21.0005 67.8628L14.5238 67.7459C14.2381 67.7407 13.9617 67.7358 13.6751 67.7306C11.772 67.6962 10.5651 65.713 11.4365 64.0521L42.4368 4.96802C42.8848 4.11417 43.788 3.58463 44.7664 3.60229C44.8025 3.60294 44.9062 3.60482 45.0776 3.60791Z" fill="url(#paint0_linear_1282_2698)"/>
<path d="M19.0733 64.1849C18.2018 65.8458 19.4088 67.829 21.3118 67.8634C22.2902 67.8811 23.1935 67.3515 23.6415 66.4977L54.6417 7.4136C55.5131 5.75273 54.3062 3.76946 52.4031 3.73511C51.4248 3.71744 50.5215 4.24698 50.0735 5.10083L19.0733 64.1849Z" fill="#FFC415"/>
<path fill-rule="evenodd" clip-rule="evenodd" d="M13.6277 0.224035C13.4078 0.220065 13.1899 0.225263 12.9744 0.239264C12.7202 0.216742 12.4607 0.202966 12.1959 0.198185C4.55932 0.0603171 1.08197 7.55298 0.913761 16.87C0.745554 26.1871 3.95019 33.8004 11.5867 33.9383C11.8516 33.9431 12.1114 33.9387 12.3663 33.9253C12.5811 33.9471 12.7987 33.9602 13.0186 33.9641L18.746 34.0675L18.7462 34.0575C11.4531 33.6165 8.38565 26.1286 8.55031 17.0079C8.71497 7.88728 12.0507 0.514924 19.355 0.337446L19.3551 0.327436L13.6277 0.224035Z" fill="url(#paint1_linear_1282_2698)"/>
<path fill-rule="evenodd" clip-rule="evenodd" d="M15.56 25.4869L15.5589 25.4846C16.5737 23.4441 17.0817 20.4749 17.1415 17.1632C17.2013 13.8515 16.8008 10.8659 15.8603 8.79008C16.7489 7.00344 18.0259 5.92878 19.7309 5.95956C23.3832 6.0255 24.8902 11.0897 24.778 17.301C24.6659 23.5124 22.9771 28.5189 19.3248 28.453C17.6206 28.4222 16.3835 27.3031 15.56 25.4869Z" fill="url(#paint2_linear_1282_2698)"/>
<path fill-rule="evenodd" clip-rule="evenodd" d="M19.223 34.0789C26.8595 34.2168 30.3369 26.7241 30.5051 17.407C30.6733 8.08997 27.4686 0.476677 19.8321 0.33881C12.1955 0.200942 8.7182 7.6936 8.54999 17.0107C8.38178 26.3277 11.5864 33.941 19.223 34.0789ZM19.3245 28.4556C22.9768 28.5215 24.6655 23.515 24.7777 17.3036C24.8898 11.0923 23.3828 6.0281 19.7306 5.96216C16.0783 5.89622 14.3895 10.9027 14.2774 17.1141C14.1653 23.3255 15.6722 28.3896 19.3245 28.4556Z" fill="#FFC415"/>
<path fill-rule="evenodd" clip-rule="evenodd" d="M49.3089 33.685C49.089 33.681 48.8711 33.6862 48.6556 33.7002C48.4014 33.6777 48.1419 33.6639 47.877 33.6591C40.2405 33.5213 36.7631 41.0139 36.5949 50.331C36.4267 59.6481 39.6313 67.2613 47.2679 67.3992C47.5327 67.404 47.7926 67.3996 48.0474 67.3863C48.2623 67.4081 48.4798 67.4211 48.6997 67.4251L54.4272 67.5285L54.4273 67.5185C47.1343 67.0774 44.0668 59.5895 44.2315 50.4689C44.3961 41.3482 47.7319 33.9759 55.0361 33.7984L55.0363 33.7884L49.3089 33.685Z" fill="url(#paint3_linear_1282_2698)"/>
<path fill-rule="evenodd" clip-rule="evenodd" d="M51.2406 58.9401L51.2396 58.9377C52.2544 56.8972 52.7623 53.928 52.8221 50.6163C52.8819 47.3046 52.4815 44.319 51.541 42.2432C52.4295 40.4566 53.7066 39.3819 55.4116 39.4127C59.0639 39.4786 60.5708 44.5428 60.4587 50.7542C60.3465 56.9656 58.6578 61.972 55.0055 61.9061C53.3013 61.8753 52.0641 60.7562 51.2406 58.9401Z" fill="url(#paint4_linear_1282_2698)"/>
<path fill-rule="evenodd" clip-rule="evenodd" d="M54.9041 67.532C62.5407 67.6699 66.018 60.1772 66.1862 50.8602C66.3544 41.5431 63.1498 33.9298 55.5133 33.7919C47.8767 33.6541 44.3994 41.1467 44.2311 50.4638C44.0629 59.7809 47.2676 67.3942 54.9041 67.532ZM55.0056 61.9087C58.6579 61.9746 60.3467 56.9681 60.4588 50.7568C60.571 44.5454 59.064 39.4812 55.4117 39.4153C51.7595 39.3493 50.0707 44.3558 49.9586 50.5672C49.8464 56.7786 51.3534 61.8427 55.0056 61.9087Z" fill="#FFC415"/>
</g>
<defs>
<linearGradient id="paint0_linear_1282_2698" x1="46.5411" y1="2.83594" x2="20.0411" y2="68.8359" gradientUnits="userSpaceOnUse">
<stop stop-color="#FFDF33"/>
<stop offset="0.240385" stop-color="#FFFFB6"/>
<stop offset="0.653846" stop-color="#FFDF33"/>
<stop offset="0.913462" stop-color="#FEC206"/>
<stop offset="1" stop-color="#EBAA32"/>
</linearGradient>
<linearGradient id="paint1_linear_1282_2698" x1="10.2867" y1="0.163718" x2="9.6776" y2="33.9038" gradientUnits="userSpaceOnUse">
<stop stop-color="#FFDF33"/>
<stop offset="0.264423" stop-color="#FFFFB6"/>
<stop offset="0.802885" stop-color="#FFDF33"/>
<stop offset="0.985577" stop-color="#F2BC27"/>
</linearGradient>
<linearGradient id="paint2_linear_1282_2698" x1="23.0413" y1="3.83594" x2="20.0413" y2="28.8359" gradientUnits="userSpaceOnUse">
<stop stop-color="#DF9500"/>
<stop offset="0.527657" stop-color="#ECBC2B"/>
<stop offset="1" stop-color="#CE8A00"/>
</linearGradient>
<linearGradient id="paint3_linear_1282_2698" x1="45.9679" y1="33.6247" x2="45.3587" y2="67.3647" gradientUnits="userSpaceOnUse">
<stop stop-color="#FFDF33"/>
<stop offset="0.264423" stop-color="#FFFFB6"/>
<stop offset="0.802885" stop-color="#FFDF33"/>
<stop offset="0.985577" stop-color="#F2BC27"/>
</linearGradient>
<linearGradient id="paint4_linear_1282_2698" x1="58.722" y1="37.2891" x2="55.722" y2="62.2891" gradientUnits="userSpaceOnUse">
<stop stop-color="#DF9500"/>
<stop offset="0.527657" stop-color="#ECBC2B"/>
<stop offset="1" stop-color="#CE8A00"/>
</linearGradient>
</defs>
</svg>
