<svg width="20" height="20" viewBox="0 0 20 20" fill="none" xmlns="http://www.w3.org/2000/svg">
<mask id="mask0_1282_2448" style="mask-type:alpha" maskUnits="userSpaceOnUse" x="6" y="1" width="13" height="16">
<path d="M12.5004 1.66406C15.7221 1.66406 18.3338 2.87664 18.3338 4.37242V5.4141C18.3338 5.59234 18.2961 5.76632 18.2253 5.93494C18.2961 6.10356 18.3338 6.27754 18.3338 6.45578V7.49746C18.3338 7.6757 18.2961 7.84967 18.2253 8.0183C18.2961 8.18692 18.3338 8.3609 18.3338 8.53913V9.58081C18.3338 9.75905 18.2961 9.93303 18.2253 10.1017C18.2961 10.2703 18.3338 10.4443 18.3338 10.6225V11.6642C18.3338 11.8424 18.2961 12.0164 18.2253 12.185C18.2961 12.3536 18.3338 12.5276 18.3338 12.7058V13.7475C18.3338 14.4818 17.7043 15.1475 16.6824 15.6354C16.6778 15.6376 16.6731 15.6397 16.6685 15.6419C16.2061 15.8612 15.6641 16.0441 15.0641 16.1806C15.0621 16.1811 15.0602 16.1816 15.0582 16.182C14.8634 16.2262 14.6625 16.2656 14.4562 16.2996C14.448 16.301 14.4398 16.3024 14.4316 16.3037C14.3862 16.3111 14.3407 16.3182 14.2948 16.3251C14.2889 16.3259 14.283 16.3268 14.2771 16.3277C14.1218 16.3507 13.9636 16.3705 13.8029 16.3875C13.9027 16.1502 13.9587 15.8952 13.9587 15.6225V12.4975C13.9587 11.3609 12.9918 10.5279 11.8884 10.0156C10.7331 9.47922 9.18105 9.16414 7.50033 9.16414C7.21851 9.16414 6.94032 9.17311 6.66699 9.19039V8.53913C6.66699 8.36092 6.70447 8.1869 6.77523 8.0183C6.70447 7.84969 6.66699 7.67567 6.66699 7.49746V6.45578C6.66699 6.27757 6.70447 6.10354 6.77523 5.93494C6.70447 5.76634 6.66699 5.59232 6.66699 5.4141V4.37242C6.66699 4.35209 6.66746 4.33182 6.66842 4.31159C6.66874 4.3048 6.66921 4.29802 6.66964 4.29125C6.671 4.26968 6.67289 4.24819 6.67533 4.22675C6.67582 4.22247 6.67643 4.21821 6.67696 4.21393C6.67886 4.19864 6.68103 4.18338 6.68347 4.16816C6.68397 4.16504 6.68437 4.16191 6.6849 4.1588C6.68599 4.15228 6.68716 4.14577 6.68835 4.13927L6.6971 4.09553C6.69773 4.09267 6.69849 4.08984 6.69914 4.08698C6.69964 4.08475 6.70005 4.0825 6.70056 4.08027C6.70154 4.07605 6.7026 4.07186 6.70361 4.06765C6.70627 4.05665 6.70902 4.04566 6.71196 4.03469C6.71344 4.02914 6.71487 4.02356 6.71643 4.01801C6.7209 4.00215 6.72582 3.98638 6.73088 3.97061C6.732 3.96709 6.73298 3.96353 6.73413 3.96003L6.74247 3.93581C6.74411 3.93112 6.74587 3.92646 6.74756 3.92178L6.75122 3.9116C6.75198 3.90955 6.75289 3.90755 6.75366 3.9055C6.75815 3.89352 6.76288 3.88161 6.7677 3.86969C6.77097 3.86162 6.77425 3.85353 6.77767 3.84548C6.78039 3.83908 6.78279 3.83254 6.78561 3.82615C6.78859 3.81939 6.79187 3.81275 6.79496 3.80601C6.79736 3.80078 6.79982 3.79557 6.80229 3.79035C6.80379 3.78717 6.80524 3.78396 6.80676 3.78078C6.81278 3.76825 6.81909 3.75581 6.82548 3.74335C6.82935 3.73581 6.83328 3.72828 6.83728 3.72077C6.84754 3.70148 6.85828 3.68231 6.86943 3.66319C6.87421 3.65499 6.87893 3.64674 6.88387 3.63857C6.89924 3.61317 6.91518 3.58778 6.93209 3.56268C6.9343 3.55941 6.93657 3.55618 6.9388 3.55292C6.95413 3.53048 6.97007 3.50816 6.98662 3.48598C6.99267 3.47786 6.99892 3.46985 7.00513 3.46177C7.0192 3.44347 7.03378 3.42536 7.04867 3.40724C7.05428 3.40042 7.05983 3.3935 7.06556 3.3867C7.08653 3.36179 7.10816 3.33697 7.13066 3.31244C7.13467 3.30806 7.13881 3.30378 7.14287 3.29941C7.161 3.27993 7.17973 3.26068 7.19882 3.24143C7.20656 3.23363 7.21432 3.2258 7.22221 3.21803C7.24173 3.19883 7.26178 3.17982 7.28223 3.16086C7.28775 3.15576 7.29313 3.15049 7.29871 3.1454C7.30875 3.13625 7.31898 3.12723 7.32923 3.11814C7.33218 3.11553 7.33522 3.11301 7.33818 3.11041C7.34978 3.10021 7.36131 3.08981 7.37318 3.07969C7.38466 3.06989 7.39643 3.06032 7.40817 3.05059C7.42561 3.03615 7.44328 3.02174 7.46127 3.00746C7.47031 3.00028 7.47935 2.99303 7.48853 2.98589C7.51472 2.96554 7.5414 2.94527 7.56869 2.92527C7.57155 2.92317 7.57438 2.92105 7.57724 2.91896C7.6089 2.89589 7.64138 2.87319 7.67449 2.8506C7.68082 2.84628 7.68724 2.84208 7.69361 2.83778C7.71906 2.82064 7.74486 2.80357 7.77113 2.78671C7.78131 2.78018 7.79155 2.77367 7.80185 2.76718C7.90461 2.70246 8.0133 2.63974 8.12778 2.5796C8.13684 2.57484 8.14592 2.57008 8.15504 2.56536C8.18556 2.54955 8.21653 2.53403 8.24782 2.51856C8.25775 2.51366 8.26772 2.50879 8.27773 2.50392C8.31642 2.48507 8.35569 2.46649 8.39553 2.44817C8.40263 2.4449 8.40975 2.44165 8.41689 2.4384C8.45007 2.4233 8.48365 2.40838 8.5176 2.39364C8.52949 2.38848 8.54142 2.3833 8.55341 2.37818C8.63787 2.34213 8.72467 2.30733 8.81362 2.27361C8.821 2.27081 8.82839 2.26804 8.8358 2.26527C8.8752 2.25048 8.91499 2.23584 8.95522 2.22152C8.96457 2.2182 8.97392 2.21485 8.9833 2.21155C9.12374 2.1622 9.26915 2.11579 9.4191 2.07239C9.42513 2.07065 9.43115 2.06884 9.4372 2.0671L9.47566 2.05612C10.3576 1.80732 11.393 1.66406 12.5004 1.66406Z" fill="#FFE3A0"/>
</mask>
<g mask="url(#mask0_1282_2448)">
<path d="M18.334 12.6953V13.7373C18.3335 15.2329 15.7223 16.4453 12.501 16.4453C9.2796 16.4453 6.66751 15.2329 6.66699 13.7373V12.6953C6.66713 14.191 9.27937 15.4033 12.501 15.4033C15.7225 15.4033 18.3338 14.191 18.334 12.6953Z" fill="#262626"/>
<ellipse cx="12.5004" cy="12.7005" rx="5.83339" ry="2.70836" fill="#FA9819"/>
<path d="M15.209 16.1354C14.8165 16.2311 14.3978 16.3068 13.959 16.3592V15.3175C14.3978 15.2651 14.8165 15.1894 15.209 15.0938V16.1354Z" fill="#FFC983"/>
<path d="M17.2922 15.2839C16.9965 15.4812 16.6459 15.6594 16.2505 15.8137V14.772C16.6459 14.6177 16.9965 14.4395 17.2922 14.2422V15.2839Z" fill="#FFC983"/>
<path d="M18.334 10.6094V11.6514C18.3336 13.147 15.7224 14.3593 12.501 14.3594C9.2795 14.3594 6.66734 13.147 6.66699 11.6514V10.6094C6.66699 12.1052 9.27928 13.3174 12.501 13.3174C15.7226 13.3173 18.334 12.1051 18.334 10.6094Z" fill="#262626"/>
<ellipse cx="12.5009" cy="10.6146" rx="5.83339" ry="2.70836" fill="#FA9819"/>
<path d="M15.209 14.0495C14.8165 14.1452 14.3978 14.2209 13.959 14.2733V13.2316C14.3978 13.1792 14.8165 13.1035 15.209 13.0078V14.0495Z" fill="#FFC983"/>
<path d="M17.2922 13.1979C16.9965 13.3952 16.6459 13.5735 16.2505 13.7277V12.686C16.6459 12.5318 16.9965 12.3535 17.2922 12.1562V13.1979Z" fill="#FFC983"/>
<path d="M18.334 8.53125V9.57324C18.334 11.069 15.7226 12.2812 12.501 12.2812C9.27928 12.2812 6.66699 11.069 6.66699 9.57324V8.53125C6.66699 10.027 9.27928 11.2402 12.501 11.2402C15.7226 11.2402 18.334 10.027 18.334 8.53125Z" fill="#262626"/>
<ellipse cx="12.5009" cy="8.53649" rx="5.83339" ry="2.70836" fill="#FA9819"/>
<path d="M15.209 11.9792C14.8165 12.0749 14.3978 12.1505 13.959 12.203V11.1613C14.3978 11.1089 14.8165 11.0332 15.209 10.9375V11.9792Z" fill="#FFC983"/>
<path d="M17.2922 11.1198C16.9965 11.3171 16.6459 11.4953 16.2505 11.6496V10.6079C16.6459 10.4537 16.9965 10.2754 17.2922 10.0781V11.1198Z" fill="#FFC983"/>
<path d="M18.334 6.44531V7.4873C18.3335 8.98285 15.7223 10.1953 12.501 10.1953C9.2796 10.1953 6.66751 8.98289 6.66699 7.4873V6.44531C6.66713 7.94104 9.27937 9.15332 12.501 9.15332C15.7225 9.15327 18.3338 7.94101 18.334 6.44531Z" fill="#262626"/>
<ellipse cx="12.5004" cy="6.45055" rx="5.83339" ry="2.70836" fill="#FA9819"/>
<path d="M15.209 9.88543C14.8165 9.98112 14.3978 10.0568 13.959 10.1092V9.06755C14.3978 9.01511 14.8165 8.93944 15.209 8.84375V9.88543Z" fill="#FFC983"/>
<path d="M17.2922 9.03386C16.9965 9.23116 16.6459 9.40941 16.2505 9.56366V8.52198C16.6459 8.36773 16.9965 8.18948 17.2922 7.99219V9.03386Z" fill="#FFC983"/>
<path d="M18.334 4.35938V5.40137C18.3336 6.89698 15.7224 8.10932 12.501 8.10938C9.2795 8.10938 6.66734 6.89702 6.66699 5.40137V4.35938C6.66699 5.85516 9.27928 7.06738 12.501 7.06738C15.7226 7.06733 18.334 5.85513 18.334 4.35938Z" fill="#262626"/>
<ellipse cx="12.5009" cy="4.36461" rx="5.83339" ry="2.70836" fill="#FFA530"/>
<path d="M15.209 7.79949C14.8165 7.89518 14.3978 7.97085 13.959 8.02329V6.98161C14.3978 6.92917 14.8165 6.8535 15.209 6.75781V7.79949Z" fill="#FFC983"/>
<path d="M17.2922 6.94793C16.9965 7.14522 16.6459 7.32347 16.2505 7.47772V6.43604C16.6459 6.28179 16.9965 6.10354 17.2922 5.90625V6.94793Z" fill="#FFC983"/>
<path opacity="0.2" d="M16.2422 6.44043C15.2294 6.83402 13.925 7.07224 12.501 7.07227C9.2795 7.07227 6.66734 5.85991 6.66699 4.36426C6.66699 3.3582 7.84959 2.48266 9.60352 2.01562L16.2422 6.44043Z" fill="#FFE3A0"/>
<path opacity="0.2" d="M13.9658 6.99219C13.4976 7.04843 13.007 7.08202 12.501 7.08203C9.27928 7.08203 6.66699 5.86883 6.66699 4.37305C6.66729 3.56474 7.43092 2.8399 8.64062 2.34375L13.9658 6.99219Z" fill="#FFE3A0"/>
</g>
<path d="M13.3335 14.5938V15.6357C13.3332 17.1314 10.7219 18.3437 7.50049 18.3438C4.27896 18.3438 1.66678 17.1314 1.6665 15.6357V14.5938C1.6665 16.0895 4.27879 17.3018 7.50049 17.3018C10.7221 17.3017 13.3335 16.0895 13.3335 14.5938Z" fill="#262626"/>
<ellipse cx="7.4999" cy="14.5834" rx="5.83339" ry="2.70836" fill="#FA9819"/>
<path d="M10.2085 18.0261C9.81606 18.1217 9.39729 18.1974 8.9585 18.2499V17.2082C9.39729 17.1557 9.81606 17.0801 10.2085 16.9844V18.0261Z" fill="#FFC983"/>
<path d="M12.2917 17.1667C11.996 17.364 11.6454 17.5422 11.25 17.6965V16.6548C11.6454 16.5005 11.996 16.3223 12.2917 16.125V17.1667Z" fill="#FFC983"/>
<path d="M13.3335 12.5V13.542C13.3334 15.0377 10.722 16.2499 7.50049 16.25C4.27886 16.25 1.66661 15.0377 1.6665 13.542V12.5C1.6665 13.9958 4.27879 15.209 7.50049 15.209C10.7221 15.2089 13.3335 13.9958 13.3335 12.5Z" fill="#262626"/>
<ellipse cx="7.50039" cy="12.4974" rx="5.83339" ry="2.70836" fill="#FFA530"/>
<ellipse cx="7.50039" cy="12.4974" rx="5.83339" ry="2.70836" fill="#FFA530"/>
<path d="M10.2085 15.9401C9.81606 16.0358 9.39729 16.1115 8.9585 16.1639V15.1222C9.39729 15.0698 9.81606 14.9941 10.2085 14.8984V15.9401Z" fill="#FFC983"/>
<path d="M12.2917 15.0807C11.996 15.278 11.6454 15.4563 11.25 15.6105V14.5689C11.6454 14.4146 11.996 14.2364 12.2917 14.0391V15.0807Z" fill="#FFC983"/>
<path opacity="0.2" d="M11.2407 14.5811C10.2281 14.9744 8.92408 15.2129 7.50049 15.2129C4.27879 15.2129 1.6665 13.9997 1.6665 12.5039C1.66664 11.4981 2.8488 10.6233 4.60205 10.1562L11.2407 14.5811Z" fill="#FFE3A0"/>
<path opacity="0.2" d="M8.96533 15.1172C8.49713 15.1734 8.00655 15.207 7.50049 15.207C4.27913 15.207 1.66706 13.9946 1.6665 12.499C1.6665 11.6905 2.43019 10.965 3.64014 10.4688L8.96533 15.1172Z" fill="#FFE3A0"/>
</svg>
