<svg width="28" height="28" viewBox="0 0 28 28" fill="none" xmlns="http://www.w3.org/2000/svg">
<path d="M14 6C18.4176 6 22 9.1824 22 13.1112C21.9987 15.5653 20.0093 17.5543 17.5552 17.5552H15.9824C15.2448 17.5552 14.6488 18.1512 14.6488 18.8888C14.6488 19.2264 14.7824 19.5376 14.9864 19.7688C15.2 20.0088 15.3336 20.32 15.3336 20.6664C15.3336 21.4048 14.72 22 14 22C9.5824 22 6 18.4176 6 14C6 9.5824 9.5824 6 14 6ZM10.4 14C11.0627 14 11.6 13.4627 11.6 12.8C11.6 12.1373 11.0627 11.6 10.4 11.6C9.73726 11.6 9.2 12.1373 9.2 12.8C9.2 13.4627 9.73726 14 10.4 14ZM17.6 14C18.2627 14 18.8 13.4627 18.8 12.8C18.8 12.1373 18.2627 11.6 17.6 11.6C16.9373 11.6 16.4 12.1373 16.4 12.8C16.4 13.4627 16.9373 14 17.6 14ZM14 11.6C14.6627 11.6 15.2 11.0627 15.2 10.4C15.2 9.73726 14.6627 9.2 14 9.2C13.3373 9.2 12.8 9.73726 12.8 10.4C12.8 11.0627 13.3373 11.6 14 11.6Z" fill="white"/>
</svg>
