<svg width="28" height="28" viewBox="0 0 28 28" fill="none" xmlns="http://www.w3.org/2000/svg">
<path d="M0 14C0 6.26801 6.26801 0 14 0C21.732 0 28 6.26801 28 14C28 21.732 21.732 28 14 28C6.26801 28 0 21.732 0 14Z" fill="black" fill-opacity="0.6"/>
<path d="M14.0918 17.9026C14.7049 17.839 15.1962 17.3085 15.1962 16.6806V10.1888L16.8976 11.8909C17.3466 12.3401 18.041 12.3625 18.5169 12.0377L18.6092 11.9685L18.636 11.9463L18.6599 11.9223C19.1439 11.4381 19.1438 10.676 18.6599 10.1916L14.9997 6.53086C14.9898 6.51305 14.9818 6.49386 14.9702 6.4764C14.8872 6.35194 14.7827 6.27392 14.6943 6.22533L14.6915 6.22257C14.6871 6.21979 14.682 6.21778 14.6777 6.21518C14.6451 6.18826 14.594 6.14933 14.5264 6.11549C14.4701 6.08735 14.4158 6.06973 14.3668 6.05734C14.3168 6.03975 14.2624 6.02394 14.2025 6.01396C14.1056 5.99781 14.0161 6.00011 13.9995 6.00011C13.9001 6.00011 13.7703 6.00206 13.564 6.05365L13.3611 6.10442L13.2494 6.21703C13.2377 6.22493 13.2218 6.2351 13.206 6.24656C13.1817 6.26427 13.1353 6.29893 13.087 6.34717L12.8656 6.5687V6.60009L9.33914 10.1279C8.85503 10.6123 8.85501 11.3752 9.33914 11.8595L9.43325 11.9445C9.88536 12.3153 10.5238 12.3153 10.976 11.9445L11.0701 11.8595L12.7401 10.1888V16.6806C12.7401 17.3502 13.2988 17.9091 13.9682 17.9091L14.0918 17.9026Z" fill="white"/>
<path d="M19.5116 22C20.8735 21.9997 21.9998 20.874 22 19.5115V14.9425C21.9998 14.2731 21.4401 13.7142 20.771 13.7139C20.1019 13.7141 19.5431 14.2731 19.5429 14.9425V19.5115C19.5429 19.5215 19.5412 19.5275 19.5402 19.53C19.5392 19.5322 19.5365 19.5355 19.5365 19.5355C19.535 19.5369 19.5326 19.5389 19.53 19.5401C19.5277 19.5411 19.5217 19.5428 19.5116 19.5429H8.48844C8.47874 19.5428 8.47256 19.5411 8.46998 19.5401C8.4675 19.539 8.46583 19.5369 8.46445 19.5355C8.46303 19.5341 8.46098 19.5325 8.45984 19.53C8.45886 19.5276 8.4571 19.5217 8.45707 19.5115V14.9425C8.4569 14.2731 7.89808 13.7142 7.22899 13.7139C6.5597 13.7139 6.00017 14.273 6 14.9425V19.5115C6.00017 20.8741 7.12642 21.9998 8.48844 22H19.5116Z" fill="white"/>
</svg>
