<svg width="20" height="20" viewBox="0 0 20 20" fill="none" xmlns="http://www.w3.org/2000/svg">
<path d="M8.53613 11.667H11.4639C13.6948 11.6671 15.5 13.4683 15.5 15.6875V15.9785C15.5 16.0099 15.5017 16.0532 15.3809 16.1279C15.2359 16.2175 14.9816 16.3014 14.5918 16.3643C13.8186 16.4889 12.7283 16.5 11.4639 16.5H8.53613C7.26756 16.5 6.17888 16.4984 5.40527 16.3779C5.01605 16.3173 4.76485 16.2337 4.62207 16.1445C4.50618 16.072 4.5 16.0261 4.5 15.9785V15.6875L4.50488 15.4805C4.61292 13.3572 6.37489 11.6671 8.53613 11.667ZM9.85352 3.5C11.5185 3.50012 12.8652 4.84515 12.8652 6.5C12.8651 8.15513 11.5184 9.49988 9.85352 9.5C8.18862 9.5 6.84198 8.15523 6.8418 6.5C6.84178 4.84471 8.18888 3.5 9.85352 3.5Z" stroke="#737373"/>
</svg>
