<?xml version="1.0" standalone="no"?><!DOCTYPE svg PUBLIC "-//W3C//DTD SVG 1.1//EN" "http://www.w3.org/Graphics/SVG/1.1/DTD/svg11.dtd"><svg t="1739715313754" class="icon" viewBox="0 0 1024 1024" version="1.1" xmlns="http://www.w3.org/2000/svg" p-id="8253" xmlns:xlink="http://www.w3.org/1999/xlink" width="200" height="200"><path d="M84.437781 425.078755l832.637799-346.962519a25.918335 25.918335 0 0 1 35.129729 30.253109l-207.707911 829.657642a25.828027 25.828027 0 0 1-41.722197 13.546168L522.972396 801.481612a25.828027 25.828027 0 0 0-34.858806 1.62554L395.728724 895.401711a25.918335 25.918335 0 0 1-44.160508-18.061558V682.00441a25.918335 25.918335 0 0 1 7.585854-18.061558l375.680395-375.861011-443.501543 332.603581a25.918335 25.918335 0 0 1-32.149572-0.81277L77.845313 468.787724a25.828027 25.828027 0 0 1 6.592468-43.708969z m0 0" fill="#607B96" p-id="8254"></path></svg>