<svg fill="none" viewBox="0 0 24 24" xmlns="http://www.w3.org/2000/svg"><path clip-rule="evenodd" d="m20.5129 3.4866c-2.2247-2.23938-5.2532-3.49497473-8.4097-3.48655796-6.55356 0-11.887144 5.33301796-11.889424 11.88825796-.002799 2.0863.544634 4.1364 1.587074 5.9436l-1.686836 6.1613 6.302706-1.6532c1.74303.9498 3.69638 1.4474 5.68138 1.4474h.0051c6.5524 0 11.8865-5.3336 11.8888-11.8888.0102-3.15612-1.2426-6.18513-3.4791-8.412zm-8.4097 18.2902h-.004c-1.7698.0008-3.50725-.4743-5.03032-1.3756l-.36085-.2138-3.73967.9811.99877-3.6485-.23544-.3739c-.98838-1.5752-1.5113-3.3977-1.50841-5.2572 0-5.44705 4.43287-9.88107 9.88392-9.88107 2.6212.00151 5.1345 1.04424 6.9869 2.89879s2.8922 4.36902 2.8907 6.99028c-.0023 5.4487-4.4352 9.8799-9.8816 9.8799zm5.4202-7.4013c-.297-.1488-1.7575-.867-2.03-.9691-.2725-.102-.4703-.1488-.6681.1488s-.7673.9663-.9406 1.1647c-.1733.1983-.3466.2228-.6437.0741-.297-.1488-1.2541-.4624-2.3891-1.4742-.88306-.7879-1.48221-1.7604-1.65323-2.058s-.01824-.4561.13055-.6066c.13339-.1328.297-.3466.44522-.5204.14822-.1739.19839-.29704.29696-.49542.0987-.19839.0496-.37169-.0245-.52048-.07407-.14879-.66866-1.61102-.91607-2.2056-.24114-.5792-.4857-.5011-.66812-.51307-.17102-.00855-.37169-.01026-.57007-.01026-.30442.00796-.59167.1427-.7924.37169-.27193.29757-1.03924 1.01586-1.03924 2.4781s1.06432 2.87484 1.21254 3.07324 2.09501 3.1987 5.07366 4.4859c.5532.2386 1.1185.4479 1.6937.6271.7114.228 1.359.1944 1.8709.118.5701-.0855 1.7576-.7189 2.0055-1.4127.248-.6937.2475-1.2889.1711-1.4126s-.268-.1921-.565-.3409z" fill="#758ca3" fill-rule="evenodd"/></svg>