<svg width="910" height="140" viewBox="0 0 910 140" fill="none" xmlns="http://www.w3.org/2000/svg">
<g clip-path="url(#clip0_1037_1229)">
<rect width="910" height="140" fill="white"/>
<path d="M456.537 71.8008C498.055 71.8008 551.815 21.2133 593.332 21.2133C634.849 21.2133 670.32 65.4266 711.837 65.4266C753.354 65.4266 814.736 43.2429 856.253 43.2428C894.462 43.2428 953.419 75 967.898 75V-36H-419.102V55.5622C-412.561 56.8632 -405.75 57.6515 -398.525 57.6515C-325.365 57.6515 -298.675 32.8759 -257.158 32.876C-215.641 32.876 -204.557 65.4266 -163.04 65.4266C-121.523 65.4266 -86.0524 21.2133 -44.5353 21.2133C-3.01822 21.2133 50.7423 71.8008 92.2595 71.8008C163.097 71.8009 182.186 43.4609 274.398 43.4609C366.611 43.4609 385.7 71.8009 456.537 71.8008Z" fill="#FA9819" fill-opacity="0.08"/>
<path opacity="0.12" d="M274.398 72C342.106 72 380.066 50.2169 447.773 50.2169C515.481 50.2169 549.512 64.739 595.237 64.739C640.963 64.739 682.878 40.5356 742.702 40.5356C802.525 40.5356 820.053 68.9722 871.875 68.9722C910.742 68.9722 941.035 50.0272 967.898 31.4782V-28H-419.102V31.4782C-392.238 50.0272 -361.945 64.1315 -323.078 64.1315C-271.257 64.1315 -253.728 40.5356 -193.905 40.5356C-134.081 40.5356 -92.1658 69.5797 -46.4406 69.5797C-0.715271 69.5797 33.3163 50.2169 101.023 50.2169C168.731 50.2169 206.691 72 274.398 72Z" fill="#FA9819"/>
</g>
<defs>
<clipPath id="clip0_1037_1229">
<rect width="910" height="140" fill="white"/>
</clipPath>
</defs>
</svg>
