<svg width="16" height="16" viewBox="0 0 16 16" fill="none" xmlns="http://www.w3.org/2000/svg">
<path d="M13.4373 6.50376H11.1875C10.8769 6.50376 10.6251 6.25191 10.6251 5.94125C10.6251 5.63059 10.8769 5.37875 11.1875 5.37875H12.1051C10.3184 2.5678 6.30374 2.33331 4.20212 4.91715C2.10051 7.50098 3.14691 11.3849 6.26197 12.5626C9.37703 13.7403 12.7303 11.5199 12.8629 8.19159H12.8724C12.8724 7.88084 13.1243 7.62892 13.4349 7.62892C13.7456 7.62892 13.9975 7.88084 13.9975 8.19159C13.9994 8.22629 13.9962 8.2611 13.988 8.29487C13.788 12.329 9.73928 15.0161 5.94532 13.6328C2.15136 12.2495 0.781288 7.5867 3.22367 4.37016C5.66605 1.15362 10.5245 1.22237 12.8749 4.50672V3.69091C12.8749 3.38016 13.1268 3.12825 13.4375 3.12825C13.7481 3.12825 14 3.38016 14 3.69091V5.94125C13.9991 6.25168 13.7477 6.50306 13.4373 6.50376Z" fill="#737373"/>
</svg>
