<svg width="910" height="34" viewBox="0 0 910 34" fill="none" xmlns="http://www.w3.org/2000/svg">
<g clip-path="url(#clip0_1037_1250)">
<path d="M886 3C888.209 3 890 4.79086 890 7C890 9.20914 888.209 11 886 11H880V4H30V11H24C21.7909 11 20 9.20913 20 7C20 4.79086 21.7909 3 24 3H886Z" fill="#CCCCCC"/>
<path d="M886.206 3.00488C888.319 3.11212 890 4.85997 890 7C890 9.20914 888.209 11 886 11H880V10H886C887.657 10 889 8.65685 889 7C889 5.34316 887.657 4.00001 886 4H24C22.3431 4 21 5.34315 21 7C21 8.65684 22.3431 9.99999 24 10H30V11H24C21.7909 11 20 9.20913 20 7C20 4.85996 21.6806 3.11211 23.7939 3.00488L24 3H886L886.206 3.00488Z" fill="#262626"/>
<g filter="url(#filter0_f_1037_1250)">
<rect x="22" width="868" height="28" fill="url(#paint0_linear_1037_1250)"/>
</g>
</g>
<defs>
<filter id="filter0_f_1037_1250" x="10" y="-12" width="892" height="52" filterUnits="userSpaceOnUse" color-interpolation-filters="sRGB">
<feFlood flood-opacity="0" result="BackgroundImageFix"/>
<feBlend mode="normal" in="SourceGraphic" in2="BackgroundImageFix" result="shape"/>
<feGaussianBlur stdDeviation="6" result="effect1_foregroundBlur_1037_1250"/>
</filter>
<linearGradient id="paint0_linear_1037_1250" x1="466" y1="0" x2="466" y2="28" gradientUnits="userSpaceOnUse">
<stop stop-opacity="0.3"/>
<stop offset="1" stop-color="#737373" stop-opacity="0"/>
</linearGradient>
<clipPath id="clip0_1037_1250">
<rect width="910" height="34" fill="white"/>
</clipPath>
</defs>
</svg>
