<svg width="290" height="82" viewBox="0 0 290 82" fill="none" xmlns="http://www.w3.org/2000/svg">
<path d="M13.5 67.3682C36.5 67.3682 59.0109 44.7519 86.25 44.752C113.489 44.752 140.761 66.2109 168 66.2109C195.239 66.2109 218.511 32.9892 245.75 32.9893C259.188 32.9893 274.581 42.2408 290 51.6152V0H0V65.7988C4.29148 66.7764 8.75993 67.3682 13.5 67.3682Z" fill="#FA9819" fill-opacity="0.08"/>
<path opacity="0.12" d="M244.5 63.1846C260.345 63.1846 274.05 59.1353 290 55.3125V0H0V48.6084C27.5 48.6084 41.5001 59.0986 67 59.0986C101 59.0986 116.5 48.4014 147.75 48.4014C179 48.4014 214.5 63.1846 244.5 63.1846Z" fill="#FA9819"/>
</svg>
