<svg width="290" height="82" viewBox="0 0 290 82" fill="none" xmlns="http://www.w3.org/2000/svg">
<path d="M276.5 67.3682C253.5 67.3682 230.989 44.7519 203.75 44.752C176.511 44.752 149.239 66.2109 122 66.2109C94.761 66.2109 71.489 32.9892 44.25 32.9893C30.812 32.9893 15.4191 42.2408 0 51.6152V0H290V65.7988C285.709 66.7764 281.24 67.3682 276.5 67.3682Z" fill="#FA9819" fill-opacity="0.08"/>
<path opacity="0.12" d="M45.5 63.1846C29.6552 63.1846 15.9501 59.1353 0 55.3125V0H290V48.6084C262.5 48.6084 248.5 59.0986 223 59.0986C189 59.0986 173.5 48.4014 142.25 48.4014C111 48.4014 75.5 63.1846 45.5 63.1846Z" fill="#FA9819"/>
</svg>
