<svg width="290" height="82" viewBox="0 0 290 82" fill="none" xmlns="http://www.w3.org/2000/svg">
<rect width="290" height="82" fill="white"/>
<path d="M290 0V63.1748C281.082 67.76 272.449 71 264.5 71C218.024 71 205.5 49.7061 145 49.7061C84.5 49.7061 71.9757 71 25.5 71C17.5506 71 8.91839 67.76 0 63.1748V0H290Z" fill="#FA9819" fill-opacity="0.08"/>
<path opacity="0.12" d="M290 0V50.5557C280.768 49.429 270.537 48.6631 258.75 48.6631C214.328 48.6631 189.422 65 145 65C100.578 65 75.6721 48.6631 31.25 48.6631C19.4632 48.6631 9.23186 49.6852 0 51.1875V0H290Z" fill="#FA9819"/>
</svg>
