<svg width="72" height="72" viewBox="0 0 72 72" fill="none" xmlns="http://www.w3.org/2000/svg">
<g clip-path="url(#clip0_1079_1532)">
<mask id="mask0_1079_1532" style="mask-type:alpha" maskUnits="userSpaceOnUse" x="21" y="0" width="51" height="64">
<path d="M46.7996 0C60.7172 0 71.9996 5.23827 71.9996 11.7V16.2C71.9996 16.97 71.8369 17.7216 71.5312 18.45C71.8369 19.1784 71.9996 19.93 71.9996 20.7V25.2C71.9996 25.97 71.8369 26.7216 71.5312 27.45C71.8369 28.1784 71.9996 28.93 71.9996 29.7V34.2C71.9996 34.97 71.8369 35.7216 71.5312 36.45C71.8369 37.1784 71.9996 37.93 71.9996 38.7V43.2C71.9996 43.97 71.8369 44.7216 71.5312 45.45C71.8369 46.1784 71.9996 46.93 71.9996 47.7V52.2C71.9996 55.372 69.2802 58.2479 64.8655 60.3554C64.8457 60.3648 64.8257 60.374 64.8058 60.3835C62.808 61.3308 60.4666 62.1211 57.8747 62.7108C57.8662 62.7128 57.8577 62.7151 57.8492 62.717C57.0075 62.908 56.1396 63.0778 55.2485 63.225C55.2131 63.2309 55.1777 63.2368 55.1422 63.2426C54.9464 63.2745 54.7495 63.3052 54.5516 63.3349C54.5261 63.3387 54.5006 63.3425 54.4751 63.3463C53.804 63.4458 53.1206 63.5311 52.4264 63.6047C52.8576 62.5792 53.0996 61.4777 53.0996 60.3V46.8C53.0996 41.8898 48.9226 38.2914 44.1559 36.0782C39.1652 33.7611 32.4602 32.4 25.1996 32.4C23.9822 32.4 22.7804 32.4387 21.5996 32.5134V29.7C21.5996 28.9301 21.7615 28.1783 22.0672 27.45C21.7615 26.7217 21.5996 25.9699 21.5996 25.2V20.7C21.5996 19.9301 21.7615 19.1783 22.0672 18.45C21.7615 17.7217 21.5996 16.9699 21.5996 16.2V11.7C21.5996 11.6122 21.6016 11.5246 21.6058 11.4372C21.6072 11.4079 21.6092 11.3786 21.611 11.3493C21.6169 11.2562 21.6251 11.1633 21.6356 11.0707C21.6378 11.0522 21.6404 11.0338 21.6427 11.0153C21.6509 10.9493 21.6602 10.8834 21.6708 10.8176C21.673 10.8041 21.6747 10.7906 21.677 10.7771C21.6817 10.749 21.6867 10.7209 21.6919 10.6928L21.7297 10.5038C21.7324 10.4915 21.7357 10.4792 21.7385 10.4669C21.7407 10.4573 21.7424 10.4475 21.7446 10.4379C21.7488 10.4197 21.7534 10.4016 21.7578 10.3834C21.7693 10.3359 21.7812 10.2884 21.7938 10.241C21.8003 10.217 21.8064 10.1929 21.8132 10.1689C21.8325 10.1004 21.8538 10.0323 21.8756 9.96416C21.8804 9.94899 21.8847 9.93361 21.8896 9.91846L21.9257 9.81387C21.9328 9.79359 21.9403 9.77346 21.9477 9.75322L21.9635 9.70928C21.9668 9.7004 21.9707 9.69178 21.974 9.68291C21.9934 9.63117 22.0138 9.57973 22.0347 9.52822C22.0488 9.49334 22.063 9.45841 22.0777 9.42363C22.0895 9.39599 22.0999 9.36771 22.112 9.34014C22.1249 9.31093 22.1391 9.28225 22.1524 9.25313C22.1628 9.23052 22.1734 9.20801 22.1841 9.18545C22.1906 9.17171 22.1968 9.15786 22.2034 9.14414C22.2294 9.09 22.2567 9.03627 22.2843 8.98242C22.301 8.94984 22.318 8.91734 22.3353 8.88486C22.3796 8.80155 22.426 8.71873 22.4741 8.63613C22.4948 8.60072 22.5152 8.56506 22.5365 8.52979C22.6029 8.42004 22.6718 8.31037 22.7448 8.20195C22.7543 8.18782 22.7642 8.17387 22.7738 8.15977C22.84 8.06282 22.9089 7.96644 22.9804 7.87061C23.0065 7.83554 23.0335 7.80093 23.0604 7.76602C23.1211 7.68697 23.1841 7.60872 23.2484 7.53047C23.2727 7.50097 23.2966 7.47109 23.3214 7.4417C23.412 7.33411 23.5054 7.22691 23.6026 7.1209C23.62 7.10199 23.6378 7.0835 23.6554 7.06465C23.7337 6.98046 23.8146 6.89731 23.8971 6.81416C23.9305 6.78045 23.964 6.74663 23.9981 6.71309C24.0825 6.63013 24.1691 6.54799 24.2574 6.46611C24.2812 6.44405 24.3045 6.4213 24.3286 6.39932C24.372 6.35978 24.4162 6.32082 24.4604 6.28154C24.4732 6.27026 24.4863 6.25941 24.4991 6.24814C24.5492 6.20407 24.599 6.15917 24.6503 6.11543C24.6999 6.0731 24.7508 6.03176 24.8015 5.98975C24.8768 5.92733 24.9532 5.86512 25.0309 5.80342C25.0699 5.7724 25.109 5.74109 25.1486 5.71025C25.2618 5.62231 25.377 5.53477 25.4949 5.44834C25.5072 5.43931 25.5195 5.43011 25.5318 5.42109C25.6686 5.32144 25.8089 5.22336 25.952 5.12578C25.9793 5.10714 26.007 5.08898 26.0346 5.07041C26.1445 4.99635 26.256 4.92262 26.3694 4.8498C26.4134 4.82158 26.4576 4.79346 26.5021 4.76543C26.9461 4.48583 27.4156 4.21489 27.9102 3.95508C27.9493 3.93453 27.9885 3.91397 28.0279 3.89355C28.1597 3.82527 28.2935 3.75823 28.4287 3.69141C28.4716 3.67021 28.5147 3.64917 28.5579 3.62812C28.7251 3.54673 28.8947 3.46644 29.0668 3.3873C29.0975 3.3732 29.1282 3.35915 29.1591 3.34512C29.3024 3.27986 29.4475 3.21542 29.5941 3.15176C29.6455 3.12945 29.697 3.10707 29.7488 3.08496C30.1137 2.92921 30.4887 2.77886 30.8729 2.6332C30.9048 2.62113 30.9368 2.60917 30.9688 2.59717C31.139 2.53328 31.3108 2.47005 31.4847 2.4082C31.525 2.39385 31.5654 2.37938 31.606 2.36514C32.2126 2.15195 32.8408 1.95142 33.4886 1.76396C33.5146 1.75642 33.5407 1.74861 33.5668 1.74111L33.7329 1.69365C37.543 0.618855 42.0156 0 46.7996 0Z" fill="#FFE3A0"/>
</mask>
<g mask="url(#mask0_1079_1532)">
<path d="M72 47.6953V52.1953C71.9998 58.6569 60.7171 63.8954 46.7998 63.8955C32.8824 63.8955 21.5998 58.657 21.5996 52.1953V47.6953C21.5998 54.157 32.8824 59.3955 46.7998 59.3955C60.7171 59.3954 71.9998 54.1569 72 47.6953Z" fill="#262626"/>
<ellipse cx="46.7996" cy="47.7" rx="25.2" ry="11.7" fill="#FA9819"/>
<path d="M58.4996 62.5625C56.8042 62.9759 54.9952 63.3028 53.0996 63.5293V59.0293C54.9952 58.8028 56.8042 58.4759 58.4996 58.0625V62.5625Z" fill="#FFC983"/>
<path d="M67.5 58.8711C66.2229 59.7234 64.7083 60.4934 63 61.1598V56.6598C64.7083 55.9934 66.2229 55.2234 67.5 54.3711V58.8711Z" fill="#FFC983"/>
<path d="M72 38.6953V43.1953C71.9998 49.6569 60.7171 54.8954 46.7998 54.8955C32.8824 54.8955 21.5998 49.657 21.5996 43.1953V38.6953C21.5998 45.157 32.8824 50.3955 46.7998 50.3955C60.7171 50.3954 71.9998 45.1569 72 38.6953Z" fill="#262626"/>
<ellipse cx="46.7996" cy="38.7" rx="25.2" ry="11.7" fill="#FA9819"/>
<path d="M58.4996 53.5625C56.8042 53.9759 54.9952 54.3028 53.0996 54.5293V50.0293C54.9952 49.8028 56.8042 49.4759 58.4996 49.0625V53.5625Z" fill="#FFC983"/>
<path d="M67.5 49.8711C66.2229 50.7234 64.7083 51.4934 63 52.1598V47.6598C64.7083 46.9934 66.2229 46.2234 67.5 45.3711V49.8711Z" fill="#FFC983"/>
<path d="M72 29.6953V34.1953C71.9998 40.6569 60.7171 45.8954 46.7998 45.8955C32.8824 45.8955 21.5998 40.657 21.5996 34.1953V29.6953C21.5998 36.157 32.8824 41.3955 46.7998 41.3955C60.7171 41.3954 71.9998 36.1569 72 29.6953Z" fill="#262626"/>
<ellipse cx="46.7996" cy="29.7" rx="25.2" ry="11.7" fill="#FA9819"/>
<path d="M58.4996 44.5625C56.8042 44.9759 54.9952 45.3028 53.0996 45.5293V41.0293C54.9952 40.8028 56.8042 40.4759 58.4996 40.0625V44.5625Z" fill="#FFC983"/>
<path d="M67.5 40.8711C66.2229 41.7234 64.7083 42.4934 63 43.1598V38.6598C64.7083 37.9934 66.2229 37.2234 67.5 36.3711V40.8711Z" fill="#FFC983"/>
<path d="M72 20.6953V25.1953C71.9998 31.6569 60.7171 36.8954 46.7998 36.8955C32.8824 36.8955 21.5998 31.657 21.5996 25.1953V20.6953C21.5998 27.157 32.8824 32.3955 46.7998 32.3955C60.7171 32.3954 71.9998 27.1569 72 20.6953Z" fill="#262626"/>
<ellipse cx="46.7996" cy="20.7" rx="25.2" ry="11.7" fill="#FA9819"/>
<path d="M58.4996 35.5625C56.8042 35.9759 54.9952 36.3028 53.0996 36.5293V32.0293C54.9952 31.8028 56.8042 31.4759 58.4996 31.0625V35.5625Z" fill="#FFC983"/>
<path d="M67.5 31.8711C66.2229 32.7234 64.7083 33.4934 63 34.1598V29.6598C64.7083 28.9934 66.2229 28.2234 67.5 27.3711V31.8711Z" fill="#FFC983"/>
<path d="M72 11.6953V16.1953C71.9998 22.6569 60.7171 27.8954 46.7998 27.8955C32.8824 27.8955 21.5998 22.657 21.5996 16.1953V11.6953C21.5998 18.157 32.8824 23.3955 46.7998 23.3955C60.7171 23.3954 71.9998 18.1569 72 11.6953Z" fill="#262626"/>
<ellipse cx="46.7996" cy="11.7" rx="25.2" ry="11.7" fill="#FFA530"/>
<path d="M58.4996 26.5625C56.8042 26.9759 54.9952 27.3028 53.0996 27.5293V23.0293C54.9952 22.8028 56.8042 22.4759 58.4996 22.0625V26.5625Z" fill="#FFC983"/>
<path d="M67.5 22.8711C66.2229 23.7234 64.7083 24.4934 63 25.1598V20.6598C64.7083 19.9934 66.2229 19.2234 67.5 18.3711V22.8711Z" fill="#FFC983"/>
<path opacity="0.2" d="M62.9629 20.6748C58.5877 22.3749 52.9515 23.4004 46.7998 23.4004C32.8824 23.4004 21.5998 18.1618 21.5996 11.7002C21.5996 7.35633 26.6982 3.56526 34.2686 1.54688L62.9629 20.6748Z" fill="#FFE3A0"/>
<path opacity="0.2" d="M53.1162 23.0283C51.0976 23.2702 48.9811 23.4004 46.7998 23.4004C32.8824 23.4004 21.5998 18.1618 21.5996 11.7002C21.5996 8.21209 24.8875 5.08107 30.1025 2.9375L53.1162 23.0283Z" fill="#FFE3A0"/>
</g>
<path d="M50.4004 55.8047V60.3047C50.4004 66.7664 39.1177 72.0048 25.2002 72.0049C11.2826 72.0049 0 66.7664 0 60.3047V55.8047C0 62.2664 11.2826 67.5049 25.2002 67.5049C39.1177 67.5048 50.4004 62.2664 50.4004 55.8047Z" fill="#262626"/>
<ellipse cx="25.2" cy="55.8016" rx="25.2" ry="11.7" fill="#FA9819"/>
<path d="M36.9 70.6641C35.2046 71.0774 33.3956 71.4043 31.5 71.6309V67.1309C33.3956 66.9043 35.2046 66.5774 36.9 66.1641V70.6641Z" fill="#FFC983"/>
<path d="M45.9004 66.9727C44.6233 67.825 43.1087 68.595 41.4004 69.2613V64.7613C43.1087 64.095 44.6233 63.325 45.9004 62.4727V66.9727Z" fill="#FFC983"/>
<path d="M50.4004 46.8047V51.3047C50.4004 57.7664 39.1177 63.0048 25.2002 63.0049C11.2826 63.0049 0 57.7664 0 51.3047V46.8047C0 53.2664 11.2826 58.5049 25.2002 58.5049C39.1177 58.5048 50.4004 53.2664 50.4004 46.8047Z" fill="#262626"/>
<ellipse cx="25.2" cy="46.8016" rx="25.2" ry="11.7" fill="#FFA530"/>
<ellipse cx="25.2" cy="46.8016" rx="25.2" ry="11.7" fill="#FFA530"/>
<path d="M36.9 61.6641C35.2046 62.0774 33.3956 62.4043 31.5 62.6309V58.1309C33.3956 57.9043 35.2046 57.5774 36.9 57.1641V61.6641Z" fill="#FFC983"/>
<path d="M45.9004 57.9727C44.6233 58.825 43.1087 59.595 41.4004 60.2613V55.7613C43.1087 55.095 44.6233 54.325 45.9004 53.4727V57.9727Z" fill="#FFC983"/>
<path opacity="0.2" d="M41.3623 55.7725C36.9872 57.4723 31.3514 58.497 25.2002 58.4971C11.2826 58.4971 0 53.2586 0 46.7969C0.000152705 42.453 5.09932 38.6628 12.6699 36.6445L41.3623 55.7725Z" fill="#FFE3A0"/>
<path opacity="0.2" d="M31.5176 58.1221C29.4987 58.364 27.3819 58.4932 25.2002 58.4932C11.2826 58.4932 2.77535e-07 53.2547 0 46.793C0 43.3049 3.28806 40.1748 8.50293 38.0312L31.5176 58.1221Z" fill="#FFE3A0"/>
</g>
<defs>
<clipPath id="clip0_1079_1532">
<rect width="72" height="72" fill="white"/>
</clipPath>
</defs>
</svg>
