<svg width="18" height="18" viewBox="0 0 18 18" fill="none" xmlns="http://www.w3.org/2000/svg">
<path d="M16.2693 1.10815C16.0129 0.998291 15.7383 0.943359 15.4636 0.943359H2.53638C2.24341 0.943359 1.96875 0.998291 1.7124 1.08984C0.833496 1.43774 0.210938 2.26172 0.210938 3.25049V14.7678C0.210938 15.7566 0.833496 16.5806 1.73071 16.9102C1.98706 17.0017 2.26172 17.0566 2.55469 17.0566H15.4636C16.7454 17.0566 17.7891 16.0129 17.7891 14.7312V3.25049C17.7891 2.26172 17.1665 1.43774 16.2693 1.10815ZM7.24219 6.12524C7.24219 7.07739 6.45483 7.84644 5.48438 7.84644C4.51392 7.84644 3.72656 7.07739 3.72656 6.12524C3.72656 5.1731 4.51392 4.40405 5.48438 4.40405C6.45483 4.40405 7.24219 5.1731 7.24219 6.12524ZM15.4636 15.8848H2.53638C1.98706 15.8848 1.51099 15.5002 1.40112 14.9692C1.38281 14.896 1.38281 14.8228 1.38281 14.7495V13.8706L4.84351 10.9409L6.08862 12.1311C6.72949 12.7537 7.75488 12.7903 8.45068 12.2227L14.2917 7.38867C15.4087 8.59717 16.1777 9.40283 16.6538 9.82397V14.7312C16.6172 15.3721 16.1045 15.8848 15.4636 15.8848Z" fill="#262626"/>
</svg>
