<svg width="297" height="56" viewBox="0 0 297 56" fill="none" xmlns="http://www.w3.org/2000/svg">
<path fill-rule="evenodd" clip-rule="evenodd" d="M13.8966 26.5308C13.7292 27.0676 13.5059 27.5762 13.2548 28.0847C13.0316 28.5368 12.7804 28.9606 12.4735 29.3562C12.7804 29.78 13.0316 30.2038 13.2548 30.6276C13.5059 31.1362 13.7292 31.6448 13.8966 32.1816C14.1198 32.888 14.2873 33.6508 14.3989 34.4137C14.5105 35.2331 14.5384 36.0524 14.5384 36.8718C14.5384 37.2674 14.5105 37.6064 14.5105 38.002V38.115C14.4547 39.8668 14.4547 39.9798 14.4547 41.6751V41.7598C14.4547 42.4944 14.4547 43.2573 14.4547 44.0767C14.4547 44.8395 14.4547 45.6307 14.4826 46.3653C14.4826 46.7326 14.5384 47.0434 14.6221 47.3259C14.7058 47.6085 14.8454 47.8345 15.0128 48.004C15.1802 48.2018 15.4035 48.3713 15.6546 48.4843C15.9337 48.6256 16.2406 48.7104 16.6313 48.7669C16.715 48.7669 16.9661 48.7669 17.3568 48.7669C17.9707 48.7669 18.9474 48.7669 20.2031 48.7669H27.57H32.844H45.0942C46.908 48.7669 48.3312 48.7669 49.252 48.7669C49.8939 48.7669 50.2845 48.7669 50.3682 48.7669C50.731 48.7104 51.0659 48.5974 51.317 48.4843C51.5681 48.3431 51.7914 48.2018 51.9588 48.004C52.1262 47.8062 52.2658 47.5802 52.3495 47.3259C52.4332 47.0434 52.489 46.7326 52.489 46.3653C52.5727 43.3703 52.5448 40.3188 52.5169 37.2674C52.5169 36.1636 52.5005 35.0433 52.4929 33.9444C52.489 33.3922 52.0413 32.9445 51.489 32.9445H40.2893C39.8446 32.9445 39.484 33.305 39.484 33.7497C39.484 35.0839 38.4025 36.1655 37.0683 36.1655H29.0024C27.3455 36.1655 26.0024 34.8223 26.0024 33.1655V25.5186C26.0024 23.8618 27.3455 22.5186 29.0024 22.5186H36.9835C38.3645 22.5186 39.484 23.6382 39.484 25.0191C39.484 25.4795 39.8572 25.8526 40.3175 25.8526H57.3913H57.6326C58.7372 25.8526 59.6326 26.7481 59.6326 27.8526V33.4988V36.222V36.3067C59.6047 36.7588 59.6326 37.1826 59.6326 37.6347C59.6326 37.889 59.6326 38.115 59.6326 38.2845V42.2401V44.7548C59.6326 45.6024 59.6047 46.3935 59.5489 47.0999C59.4931 47.8062 59.4094 48.4843 59.242 49.1059C59.0746 49.784 58.8513 50.4056 58.5444 50.999C58.2374 51.5923 57.8467 52.1857 57.3444 52.7507C56.9259 53.2311 56.4236 53.7114 55.8655 54.1352C55.3632 54.5308 54.8051 54.8698 54.1912 55.1806C53.6331 55.4349 53.0192 55.6609 52.3774 55.8022C51.7635 55.9435 51.1217 56 50.452 56H33.8486H16.4359C15.7662 56 15.1244 55.9152 14.5105 55.8022C13.8687 55.6609 13.2548 55.4349 12.6967 55.1806C12.0828 54.8981 11.5247 54.5308 11.0224 54.1352C10.4643 53.6831 9.96202 53.2311 9.54345 52.7507C9.04116 52.1857 8.65049 51.6206 8.34354 50.999C8.03658 50.4056 7.81335 49.784 7.64592 49.1059C7.50639 48.4843 7.39477 47.8062 7.33896 47.0999C7.28315 46.3935 7.28315 45.6024 7.25525 44.7548V42.4944C7.25525 40.6579 7.25525 39.2452 7.25525 37.2956V37.1261C7.25525 36.335 7.14363 35.6004 6.9762 34.9223C6.78087 34.2159 6.50182 33.5943 6.13905 33.0575C6.08324 33.001 6.05534 32.9162 5.99953 32.8597C5.94372 32.8032 5.88791 32.7467 5.86001 32.6902C5.10658 31.9556 4.21362 31.3622 3.23695 30.9384C2.28819 30.5429 1.25571 30.3168 0.167417 30.3168H-1.17812e-05V30.1473V29.3279V28.5368V28.3673H0.167417C1.28361 28.3673 2.3719 28.1412 3.34857 27.7174C4.35314 27.2936 5.274 26.6438 6.02743 25.8526L6.08325 25.7679L6.16696 25.6549C6.55763 25.118 6.83668 24.4682 7.00411 23.7901C7.17153 23.112 7.28315 22.3774 7.28315 21.5863V21.4167C7.28315 20.004 7.28315 18.9586 7.28315 15.5963V13.9576C7.28315 13.11 7.31106 12.3188 7.36687 11.6125C7.42268 10.9061 7.50639 10.228 7.67382 9.60643C7.84125 8.92833 8.06449 8.30674 8.37144 7.7134C8.6784 7.12006 9.06906 6.52671 9.57135 5.96163C9.98992 5.48131 10.4922 5.00098 11.0503 4.57717C11.5526 4.18161 12.1107 3.84256 12.7246 3.53176C13.2827 3.27747 13.8966 3.05144 14.5384 2.91017C15.1523 2.76889 15.7941 2.71239 16.4639 2.71239H37.4092C37.9085 2.71239 38.3133 2.30759 38.3133 1.80825C38.3133 0.809565 39.1229 -2.67409e-05 40.1216 -2.67409e-05H48.8147C49.9193 -2.67409e-05 50.8147 0.895404 50.8147 1.99997V10.6579C50.8147 11.7625 49.9193 12.6579 48.8147 12.6579H42.9467H41.7735H40.1405C39.1314 12.6579 38.3133 11.8399 38.3133 10.8308C38.3133 10.3262 37.9043 9.91723 37.3998 9.91723H37.3088C35.6903 9.91723 32.9835 9.91723 28.5187 9.91723H19.0311C17.301 9.91723 16.715 9.91723 16.5755 9.91723C16.2127 9.97374 15.9058 10.0868 15.6267 10.1998C15.3756 10.341 15.1523 10.4823 14.9849 10.6801C14.8175 10.8779 14.6779 11.1039 14.5942 11.3582C14.5105 11.6407 14.4547 11.9515 14.4547 12.3188C14.4268 13.5338 14.4268 13.7033 14.4268 14.4944V15.2573V15.6246C14.4268 16.557 14.4547 17.4046 14.4547 17.6024C14.4547 18.2522 14.4547 18.7891 14.4826 19.2694C14.4826 19.7497 14.5105 20.1735 14.5105 20.5691V20.6821C14.5105 21.0494 14.5384 21.4167 14.5384 21.8123C14.5384 22.6317 14.5105 23.451 14.3989 24.2704C14.2873 25.0333 14.1477 25.7679 13.8966 26.5025V26.5308ZM54.833 10.2985C54.833 9.19397 55.7284 8.29854 56.833 8.29854H59C60.1046 8.29854 61 9.19397 61 10.2985V12.5407C61 13.6452 60.1046 14.5407 59 14.5407H56.833C55.7284 14.5407 54.833 13.6452 54.833 12.5407V10.2985ZM56.7305 11.2198C56.7305 10.6675 57.1783 10.2198 57.7305 10.2198H58.0746C58.6268 10.2198 59.0746 10.6675 59.0746 11.2198V11.6194C59.0746 12.1717 58.6268 12.6194 58.0746 12.6194H57.7305C57.1783 12.6194 56.7305 12.1717 56.7305 11.6194V11.2198ZM30.1591 28.7568C30.1591 27.6522 31.0545 26.7568 32.1591 26.7568H33.3199C34.4245 26.7568 35.3199 27.6522 35.3199 28.7568V29.9838C35.3199 31.0884 34.4245 31.9838 33.3199 31.9838H32.1591C31.0545 31.9838 30.1591 31.0884 30.1591 29.9838V28.7568ZM42.1921 5.87081C42.1921 4.76624 43.0876 3.87081 44.1921 3.87081H44.9638C46.0684 3.87081 46.9638 4.76624 46.9638 5.87081V6.70229C46.9638 7.80686 46.0684 8.7023 44.9638 8.7023H44.1921C43.0875 8.7023 42.1921 7.80686 42.1921 6.70229V5.87081Z" fill="#FA9819"/>
<path d="M89.3087 40.0787H100.723C100.194 45.1433 96.0363 48.5827 90.6693 48.5827C84.4331 48.5827 79.8221 43.6693 79.8221 37.0173C79.8221 30.4031 84.5087 25.5654 90.8583 25.5654C94.1465 25.5654 96.6032 26.6236 99.4378 29.3827L104.729 24.4693C100.987 20.7276 95.8851 18.611 90.6315 18.611C80.2378 18.611 72.0363 26.6992 72.0363 36.9795C72.0363 47.2598 80.2756 55.4614 90.6315 55.4614C98.4174 55.4614 105.485 50.4724 107.791 43.2535C108.471 41.0236 108.811 38.4535 108.811 34.9386V34.1449H89.4221V40.0031L89.3087 40.0787Z" fill="#FA9819"/>
<path d="M128.049 42.7244C128.049 46.8063 126.575 48.8472 123.589 48.8472C120.754 48.8472 119.167 46.8441 119.167 43.0646V30.252H112.439V44.0094C112.439 51.1905 116.635 55.537 123.665 55.537C130.468 55.537 134.814 51.1527 134.814 44.1606V30.252H128.049V42.7244Z" fill="#FA9819"/>
<path d="M146.682 26.1323H150.802C157.189 26.1323 161.611 30.6677 161.611 37.2819C161.611 43.6315 157.567 47.8268 151.595 47.9779L149.706 48.0157V54.8189H152.88C162.14 54.8189 169.397 47.1465 169.397 37.2819C169.397 33.011 168.036 28.8913 165.391 25.6031C161.951 21.2945 157.113 19.2535 150.31 19.2535H139.161V54.7811H146.682V26.0567V26.1323Z" fill="#FA9819"/>
<path d="M188.446 42.7244C188.446 46.8063 186.972 48.8472 183.986 48.8472C181.151 48.8472 179.564 46.8441 179.564 43.0646V30.252H172.836V44.0094C172.836 51.1905 177.031 55.537 184.061 55.537C190.865 55.537 195.211 51.1527 195.211 44.1606V30.252H188.446V42.7244Z" fill="#FA9819"/>
<path d="M214.6 42.7244C214.6 46.8063 213.126 48.8472 210.14 48.8472C207.306 48.8472 205.718 46.8441 205.718 43.0646V30.252H198.991V44.0094C198.991 51.1905 203.186 55.537 210.216 55.537C217.019 55.537 221.365 51.1527 221.365 44.1606V30.252H214.6V42.7244Z" fill="#FA9819"/>
<path d="M250.997 18.611C240.754 18.611 232.477 26.8504 232.477 37.0929C232.477 47.2598 240.792 55.537 250.997 55.537C261.164 55.537 269.441 47.2976 269.441 37.0551C269.441 26.8882 261.202 18.611 250.997 18.611ZM250.997 48.1669C245.025 48.1669 240.225 43.178 240.225 37.0173C240.225 30.8945 245.025 25.9811 250.997 25.9811C256.817 25.9811 261.58 30.9323 261.58 36.9417C261.58 43.1024 256.855 48.1291 250.997 48.1291V48.1669ZM284.71 54.8189C292.269 54.8189 296.691 51.1906 296.691 44.9543C296.691 41.4772 295.255 39.2094 291.778 37.1307L283.576 32.2173L281.989 31.2724C281.044 30.6677 280.515 29.874 280.515 29.0425C280.515 26.8126 281.951 26.0945 286.638 26.0945H294.839V19.2913H284.257C276.924 19.2913 272.691 22.6929 272.691 28.6268C272.691 31.7638 274.354 34.4472 277.416 36.337L285.315 41.326C288.036 43.0268 288.603 43.6693 288.603 44.8787C288.603 46.9953 286.676 47.978 282.329 47.978H272.805V54.7811H284.748L284.71 54.8189Z" fill="#FA9819"/>
</svg>
