<svg width="111" height="101" viewBox="0 0 111 101" fill="none" xmlns="http://www.w3.org/2000/svg">
<path fill-rule="evenodd" clip-rule="evenodd" d="M25.0635 47.8501C24.7615 48.8183 24.3589 49.7356 23.906 50.6528C23.5033 51.4682 23.0504 52.2326 22.4968 52.946C23.0504 53.7104 23.5033 54.4747 23.906 55.2391C24.3589 56.1564 24.7615 57.0736 25.0635 58.0418C25.4661 59.3158 25.7681 60.6917 25.9694 62.0676C26.1707 63.5454 26.2211 65.0232 26.2211 66.501C26.2211 67.2144 26.1707 67.8259 26.1707 68.5393V68.7431C26.0701 71.9026 26.0701 72.1064 26.0701 75.1639V75.3168C26.0701 76.6417 26.0701 78.0176 26.0701 79.4954C26.0701 80.8713 26.0701 82.2981 26.1204 83.6231C26.1204 84.2855 26.2211 84.8461 26.3721 85.3557C26.523 85.8653 26.7747 86.2729 27.0766 86.5787C27.3786 86.9354 27.7812 87.2411 28.2342 87.445C28.7375 87.6998 29.2911 87.8526 29.9957 87.9546C30.1467 87.9546 30.5996 87.9546 31.3042 87.9546C32.4115 87.9546 34.173 87.9546 36.4377 87.9546H49.7244H59.2365H81.3307C84.602 87.9546 87.1687 87.9546 88.8296 87.9546C89.9871 87.9546 90.6917 87.9546 90.8427 87.9546C91.497 87.8526 92.1009 87.6488 92.5539 87.445C93.0068 87.1902 93.4095 86.9354 93.7114 86.5787C94.0134 86.222 94.265 85.8143 94.416 85.3557C94.567 84.8461 94.6677 84.2855 94.6677 83.6231C94.8186 78.2215 94.7683 72.7179 94.718 67.2144C94.718 64.9538 94.6799 62.6547 94.67 60.4177C94.6676 59.8654 94.22 59.4177 93.6677 59.4177H72.2123C71.66 59.4177 71.2123 59.8654 71.2123 60.4177V62.227C71.2123 63.8839 69.8691 65.227 68.2123 65.227H49.8972C48.2403 65.227 46.8972 63.8839 46.8972 62.227V43.614C46.8972 41.9571 48.2403 40.614 49.8972 40.614H68.2123C69.8691 40.614 71.2123 41.9571 71.2123 43.614V45.6271C71.2123 46.1794 71.66 46.6271 72.2123 46.6271H103.509H105.552C106.656 46.6271 107.552 47.5225 107.552 48.6271V60.4175V65.3289V65.4818C107.501 66.2971 107.552 67.0615 107.552 67.8768C107.552 68.3355 107.552 68.7431 107.552 69.0489V76.1831V80.7184C107.552 82.2472 107.501 83.674 107.401 84.948C107.3 86.222 107.149 87.445 106.847 88.5661C106.545 89.7891 106.143 90.9102 105.589 91.9803C105.035 93.0504 104.331 94.1206 103.425 95.1397C102.67 96.006 101.764 96.8723 100.757 97.6367C99.8515 98.3501 98.8449 98.9616 97.7377 99.5222C96.7311 99.9808 95.6239 100.388 94.4664 100.643C93.3591 100.898 92.2016 101 90.9937 101H61.0483H29.6434C28.4355 101 27.278 100.847 26.1707 100.643C25.0132 100.388 23.906 99.9808 22.8994 99.5222C21.7922 99.0126 20.7856 98.3501 19.8797 97.6367C18.8731 96.8214 17.9672 96.006 17.2123 95.1397C16.3064 94.1206 15.6018 93.1014 15.0482 91.9803C14.4946 90.9102 14.0919 89.7891 13.79 88.5661C13.5383 87.445 13.337 86.222 13.2363 84.948C13.1357 83.674 13.1357 82.2472 13.0854 80.7184V76.6417C13.0854 73.3294 13.0854 70.7815 13.0854 67.2654V66.9596C13.0854 65.5328 12.884 64.2078 12.5821 62.9848C12.2298 61.7109 11.7265 60.5898 11.0722 59.6216C10.9716 59.5196 10.9212 59.3668 10.8206 59.2648C10.7199 59.1629 10.6193 59.061 10.5689 58.9591C9.21007 57.6342 7.59957 56.564 5.83807 55.7997C4.12691 55.0862 2.26476 54.6786 0.301949 54.6786H-2.12483e-05V54.3728V52.895V51.4682V51.1624H0.301949C2.31508 51.1624 4.27789 50.7547 6.03938 49.9904C7.85121 49.226 9.51204 48.0539 10.8709 46.6271L10.9716 46.4742L11.1226 46.2704C11.8271 45.3022 12.3304 44.1301 12.6324 42.9071C12.9344 41.6841 13.1357 40.3592 13.1357 38.9324V38.6266C13.1357 36.0787 13.1357 34.1932 13.1357 28.1291V25.1735C13.1357 23.6448 13.186 22.2179 13.2867 20.944C13.3873 19.67 13.5383 18.447 13.8403 17.3259C14.1423 16.1029 14.5449 14.9818 15.0985 13.9117C15.6521 12.8415 16.3567 11.7714 17.2626 10.7522C18.0175 9.88593 18.9235 9.01963 19.93 8.25525C20.8359 7.54183 21.8425 6.93033 22.9497 6.36978C23.9563 5.91115 25.0635 5.50348 26.2211 5.24869C27.3283 4.9939 28.4858 4.89198 29.6937 4.89198H68.1008C68.6531 4.89198 69.1008 4.44427 69.1008 3.89198V1.99995C69.1008 0.895382 69.9963 -4.82291e-05 71.1008 -4.82291e-05H89.648C90.7525 -4.82291e-05 91.648 0.895382 91.648 1.99995V20.8294C91.648 21.934 90.7525 22.8294 89.648 22.8294H77.4575H75.3416H71.1008C69.9963 22.8294 69.1008 21.934 69.1008 20.8294V18.8864C69.1008 18.3341 68.6531 17.8864 68.1008 17.8864H67.289C64.37 17.8864 59.4881 17.8864 51.4356 17.8864H34.3239C31.2036 17.8864 30.1467 17.8864 29.895 17.8864C29.2408 17.9883 28.6872 18.1922 28.1839 18.396C27.7309 18.6508 27.3283 18.9056 27.0263 19.2623C26.7243 19.619 26.4727 20.0267 26.3217 20.4853C26.1707 20.9949 26.0701 21.5555 26.0701 22.2179C26.0198 24.4091 26.0198 24.7149 26.0198 26.1417V27.5176V28.1801C26.0198 29.8617 26.0701 31.3905 26.0701 31.7472C26.0701 32.9192 26.0701 33.8874 26.1204 34.7537C26.1204 35.62 26.1707 36.3844 26.1707 37.0978V37.3017C26.1707 37.9641 26.2211 38.6266 26.2211 39.34C26.2211 40.8178 26.1707 42.2956 25.9694 43.7734C25.7681 45.1493 25.5165 46.4742 25.0635 47.7992V47.8501ZM98.8952 16.967C98.8952 15.8624 99.7907 14.967 100.895 14.967H108.018C109.122 14.967 110.018 15.8624 110.018 16.967V24.2252C110.018 25.3297 109.122 26.2252 108.018 26.2252H100.895C99.7907 26.2252 98.8952 25.3297 98.8952 24.2252V16.967ZM102.318 19.4321C102.318 18.8798 102.765 18.4321 103.318 18.4321H105.545C106.097 18.4321 106.545 18.8798 106.545 19.4321V21.7601C106.545 22.3124 106.097 22.7601 105.545 22.7601H103.318C102.765 22.7601 102.318 22.3124 102.318 21.7601V19.4321ZM54.3941 50.2578C54.3941 49.1532 55.2896 48.2578 56.3941 48.2578H61.702C62.8066 48.2578 63.702 49.1532 63.702 50.2578V55.6851C63.702 56.7897 62.8066 57.6851 61.702 57.6851H56.3941C55.2896 57.6851 54.3941 56.7897 54.3941 55.6851V50.2578ZM76.0965 8.98129C76.0965 7.87672 76.9919 6.98129 78.0965 6.98129H82.7026C83.8072 6.98129 84.7026 7.87672 84.7026 8.98129V13.6952C84.7026 14.7998 83.8072 15.6952 82.7026 15.6952H78.0965C76.9919 15.6952 76.0965 14.7998 76.0965 13.6952V8.98129Z" fill="#FA9819"/>
</svg>
