<svg width="225" height="38" viewBox="0 0 225 38" fill="none" xmlns="http://www.w3.org/2000/svg">
<path d="M17.3087 22.0787H28.7229C28.1937 27.1433 24.0363 30.5827 18.6693 30.5827C12.4331 30.5827 7.82208 25.6693 7.82208 19.0173C7.82208 12.4031 12.5087 7.56535 18.8583 7.56535C22.1465 7.56535 24.6032 8.62362 27.4378 11.3827L32.7292 6.46929C28.9874 2.72756 23.8851 0.611023 18.6315 0.611023C8.23783 0.611023 0.0362549 8.69921 0.0362549 18.9795C0.0362549 29.2598 8.27563 37.4614 18.6315 37.4614C26.4174 37.4614 33.4851 32.4724 35.7906 25.2535C36.4709 23.0236 36.8111 20.4535 36.8111 16.9386V16.1449H17.4221V22.0031L17.3087 22.0787Z" fill="#FA9819"/>
<path d="M56.0489 24.7244C56.0489 28.8063 54.5749 30.8472 51.5891 30.8472C48.7544 30.8472 47.167 28.8441 47.167 25.0646V12.252H40.4395V26.0094C40.4395 33.1905 44.6347 37.537 51.6646 37.537C58.4678 37.537 62.8143 33.1527 62.8143 26.1606V12.252H56.0489V24.7244Z" fill="#FA9819"/>
<path d="M74.6819 8.13228H78.8016C85.189 8.13228 89.611 12.6677 89.611 19.2819C89.611 25.6315 85.5669 29.8268 79.5953 29.9779L77.7055 30.0157V36.8189H80.8803C90.1402 36.8189 97.3969 29.1465 97.3969 19.2819C97.3969 15.011 96.0362 10.8913 93.3906 7.60315C89.9512 3.29448 85.1134 1.25354 78.3103 1.25354H67.1606V36.7811H74.6819V8.05669V8.13228Z" fill="#FA9819"/>
<path d="M116.446 24.7244C116.446 28.8063 114.972 30.8472 111.986 30.8472C109.151 30.8472 107.564 28.8441 107.564 25.0646V12.252H100.836V26.0094C100.836 33.1905 105.031 37.537 112.061 37.537C118.865 37.537 123.211 33.1527 123.211 26.1606V12.252H116.446V24.7244Z" fill="#FA9819"/>
<path d="M142.6 24.7244C142.6 28.8063 141.126 30.8472 138.14 30.8472C135.306 30.8472 133.718 28.8441 133.718 25.0646V12.252H126.991V26.0094C126.991 33.1905 131.186 37.537 138.216 37.537C145.019 37.537 149.365 33.1527 149.365 26.1606V12.252H142.6V24.7244Z" fill="#FA9819"/>
<path d="M178.997 0.611023C168.754 0.611023 160.477 8.85039 160.477 19.0929C160.477 29.2598 168.792 37.537 178.997 37.537C189.164 37.537 197.441 29.2976 197.441 19.0551C197.441 8.88819 189.202 0.611023 178.997 0.611023ZM178.997 30.1669C173.025 30.1669 168.225 25.178 168.225 19.0173C168.225 12.8945 173.025 7.9811 178.997 7.9811C184.817 7.9811 189.58 12.9323 189.58 18.9417C189.58 25.1024 184.855 30.1291 178.997 30.1291V30.1669ZM212.71 36.8189C220.269 36.8189 224.691 33.1906 224.691 26.9543C224.691 23.4772 223.255 21.2094 219.778 19.1307L211.576 14.2173L209.989 13.2724C209.044 12.6677 208.515 11.874 208.515 11.0425C208.515 8.8126 209.951 8.09449 214.638 8.09449H222.839V1.29134H212.257C204.924 1.29134 200.691 4.69291 200.691 10.6268C200.691 13.7638 202.354 16.4472 205.416 18.337L213.315 23.326C216.036 25.0268 216.603 25.6693 216.603 26.8787C216.603 28.9953 214.676 29.978 210.329 29.978H200.805V36.7811H212.748L212.71 36.8189Z" fill="#FA9819"/>
</svg>
