<svg width="298" height="57" viewBox="0 0 298 57" fill="none" xmlns="http://www.w3.org/2000/svg">
<path fill-rule="evenodd" clip-rule="evenodd" d="M14.6714 27.4977C14.504 28.0345 14.2807 28.5431 14.0296 29.0517C13.8063 29.5037 13.5552 29.9275 13.2482 30.3231C13.5552 30.7469 13.8063 31.1707 14.0296 31.5945C14.2807 32.1031 14.504 32.6117 14.6714 33.1485C14.8946 33.8549 15.0621 34.6178 15.1737 35.3806C15.2853 36.2 15.3132 37.0194 15.3132 37.8387C15.3132 38.2343 15.2853 38.5734 15.2853 38.9689V39.0819C15.2295 40.8337 15.2295 40.9467 15.2295 42.642V42.7267C15.2295 43.4613 15.2295 44.2242 15.2295 45.0436C15.2295 45.8065 15.2295 46.5976 15.2574 47.3322C15.2574 47.6995 15.3132 48.0103 15.3969 48.2928C15.4806 48.5754 15.6201 48.8014 15.7876 48.9709C15.955 49.1687 16.1782 49.3382 16.4294 49.4513C16.7084 49.5925 17.0154 49.6773 17.4061 49.7338C17.4898 49.7338 17.7409 49.7338 18.1316 49.7338C18.7455 49.7338 19.7222 49.7338 20.9779 49.7338H28.3448H33.6188H45.869C47.6828 49.7338 49.106 49.7338 50.0268 49.7338C50.6686 49.7338 51.0593 49.7338 51.143 49.7338C51.5058 49.6773 51.8406 49.5643 52.0918 49.4513C52.3429 49.31 52.5662 49.1687 52.7336 48.9709C52.901 48.7732 53.0406 48.5471 53.1243 48.2928C53.208 48.0103 53.2638 47.6995 53.2638 47.3322C53.3475 44.3372 53.3196 41.2858 53.2917 38.2343C53.2917 37.1305 53.2753 36.0102 53.2677 34.9114C53.2638 34.3591 52.8161 33.9114 52.2638 33.9114H41.0641C40.6193 33.9114 40.2588 34.2719 40.2588 34.7166C40.2588 36.0508 39.1773 37.1324 37.8431 37.1324H29.7772C28.1203 37.1324 26.7772 35.7892 26.7772 34.1324V26.4856C26.7772 24.8287 28.1203 23.4856 29.7772 23.4856H37.7583C39.1393 23.4856 40.2588 24.6051 40.2588 25.9861C40.2588 26.4464 40.632 26.8196 41.0923 26.8196H58.1661H58.4074C59.512 26.8196 60.4074 27.715 60.4074 28.8196V34.4658V37.1889V37.2737C60.3795 37.7257 60.4074 38.1495 60.4074 38.6016C60.4074 38.8559 60.4074 39.0819 60.4074 39.2515V43.2071V45.7217C60.4074 46.5693 60.3795 47.3604 60.3237 48.0668C60.2679 48.7732 60.1842 49.4513 60.0168 50.0728C59.8493 50.751 59.6261 51.3726 59.3191 51.9659C59.0122 52.5592 58.6215 53.1526 58.1192 53.7177C57.7007 54.198 57.1984 54.6783 56.6403 55.1021C56.138 55.4977 55.5799 55.8367 54.966 56.1475C54.4079 56.4018 53.794 56.6278 53.1522 56.7691C52.5383 56.9104 51.8964 56.9669 51.2267 56.9669H34.6233H17.2107C16.541 56.9669 15.8992 56.8821 15.2853 56.7691C14.6435 56.6278 14.0296 56.4018 13.4715 56.1475C12.8576 55.865 12.2995 55.4977 11.7972 55.1021C11.2391 54.65 10.7368 54.198 10.3182 53.7177C9.81594 53.1526 9.42527 52.5875 9.11832 51.9659C8.81136 51.3726 8.58813 50.751 8.4207 50.0728C8.28117 49.4513 8.16955 48.7732 8.11374 48.0668C8.05793 47.3604 8.05793 46.5693 8.03003 45.7217V43.4613C8.03003 41.6248 8.03003 40.2121 8.03003 38.2626V38.093C8.03003 37.3019 7.91841 36.5673 7.75098 35.8892C7.55565 35.1828 7.2766 34.5612 6.91383 34.0244C6.85803 33.9679 6.83012 33.8831 6.77431 33.8266C6.7185 33.7701 6.66269 33.7136 6.63479 33.6571C5.88136 32.9225 4.9884 32.3292 4.01173 31.9053C3.06297 31.5098 2.03049 31.2837 0.942198 31.2837H0.774768V31.1142V30.2948V29.5037V29.3342H0.942198C2.05839 29.3342 3.14668 29.1082 4.12335 28.6844C5.12792 28.2605 6.04878 27.6107 6.80222 26.8196L6.85803 26.7348L6.94174 26.6218C7.33241 26.085 7.61146 25.4351 7.77889 24.757C7.94631 24.0789 8.05793 23.3443 8.05793 22.5532V22.3836C8.05793 20.9709 8.05793 19.9255 8.05793 16.5633V14.9245C8.05793 14.0769 8.08584 13.2858 8.14165 12.5794C8.19746 11.873 8.28117 11.1949 8.4486 10.5734C8.61603 9.89525 8.83927 9.27365 9.14622 8.68031C9.45318 8.08697 9.84384 7.49363 10.3461 6.92855C10.7647 6.44823 11.267 5.9679 11.8251 5.54409C12.3274 5.14853 12.8855 4.80948 13.4994 4.49868C14.0575 4.24439 14.6714 4.01836 15.3132 3.87708C15.9271 3.73581 16.5689 3.6793 17.2386 3.6793H38.184C38.6833 3.6793 39.0881 3.27451 39.0881 2.77517C39.0881 1.77648 39.8977 0.966892 40.8964 0.966892H49.5895C50.6941 0.966892 51.5895 1.86232 51.5895 2.96689V11.6248C51.5895 12.7294 50.6941 13.6248 49.5895 13.6248H43.7215H42.5483H40.9152C39.9062 13.6248 39.0881 12.8068 39.0881 11.7977C39.0881 11.2932 38.6791 10.8841 38.1746 10.8841H38.0835C36.4651 10.8841 33.7583 10.8841 29.2935 10.8841H19.8059C18.0758 10.8841 17.4898 10.8841 17.3502 10.8841C16.9875 10.9407 16.6805 11.0537 16.4015 11.1667C16.1503 11.308 15.9271 11.4492 15.7597 11.647C15.5922 11.8448 15.4527 12.0708 15.369 12.3251C15.2853 12.6077 15.2295 12.9185 15.2295 13.2858C15.2016 14.5007 15.2016 14.6702 15.2016 15.4613V16.2242V16.5915C15.2016 17.5239 15.2295 18.3715 15.2295 18.5693C15.2295 19.2192 15.2295 19.756 15.2574 20.2363C15.2574 20.7166 15.2853 21.1405 15.2853 21.536V21.649C15.2853 22.0163 15.3132 22.3836 15.3132 22.7792C15.3132 23.5986 15.2853 24.418 15.1737 25.2373C15.0621 26.0002 14.9225 26.7348 14.6714 27.4694V27.4977ZM55.6078 11.2655C55.6078 10.1609 56.5032 9.26546 57.6078 9.26546H59.7748C60.8793 9.26546 61.7748 10.1609 61.7748 11.2655V13.5076C61.7748 14.6122 60.8793 15.5076 59.7748 15.5076H57.6078C56.5032 15.5076 55.6078 14.6122 55.6078 13.5076V11.2655ZM57.5053 12.1867C57.5053 11.6344 57.953 11.1867 58.5053 11.1867H58.8493C59.4016 11.1867 59.8493 11.6344 59.8493 12.1867V12.5864C59.8493 13.1386 59.4016 13.5864 58.8493 13.5864H58.5053C57.953 13.5864 57.5053 13.1386 57.5053 12.5864V12.1867ZM30.9339 29.7237C30.9339 28.6191 31.8293 27.7237 32.9339 27.7237H34.0947C35.1993 27.7237 36.0947 28.6191 36.0947 29.7237V30.9508C36.0947 32.0553 35.1993 32.9508 34.0947 32.9508H32.9339C31.8293 32.9508 30.9339 32.0553 30.9339 30.9508V29.7237ZM42.9669 6.83773C42.9669 5.73316 43.8623 4.83773 44.9669 4.83773H45.7386C46.8432 4.83773 47.7386 5.73316 47.7386 6.83773V7.66921C47.7386 8.77378 46.8432 9.66921 45.7386 9.66921H44.9669C43.8623 9.66921 42.9669 8.77378 42.9669 7.66921V6.83773Z" fill="#FEFEFE"/>
<path d="M90.0835 41.0457H101.498C100.969 46.1102 96.811 49.5496 91.4441 49.5496C85.2079 49.5496 80.5969 44.6362 80.5969 37.9842C80.5969 31.3701 85.2835 26.5323 91.6331 26.5323C94.9213 26.5323 97.378 27.5905 100.213 30.3496L105.504 25.4362C101.762 21.6945 96.6599 19.5779 91.4063 19.5779C81.0126 19.5779 72.811 27.6661 72.811 37.9464C72.811 48.2268 81.0504 56.4283 91.4063 56.4283C99.1921 56.4283 106.26 51.4394 108.565 44.2205C109.246 41.9905 109.586 39.4205 109.586 35.9055V35.1118H90.1969V40.9701L90.0835 41.0457Z" fill="#FEFEFE"/>
<path d="M128.824 43.6913C128.824 47.7732 127.35 49.8141 124.364 49.8141C121.529 49.8141 119.942 47.811 119.942 44.0315V31.2189H113.214V44.9764C113.214 52.1575 117.409 56.5039 124.439 56.5039C131.242 56.5039 135.589 52.1197 135.589 45.1275V31.2189H128.824V43.6913Z" fill="#FEFEFE"/>
<path d="M147.457 27.0992H151.576C157.964 27.0992 162.386 31.6346 162.386 38.2488C162.386 44.5984 158.342 48.7937 152.37 48.9449L150.48 48.9827V55.7858H153.655C162.915 55.7858 170.172 48.1134 170.172 38.2488C170.172 33.9779 168.811 29.8583 166.165 26.5701C162.726 22.2614 157.888 20.2205 151.085 20.2205H139.935V55.748H147.457V27.0236V27.0992Z" fill="#FEFEFE"/>
<path d="M189.221 43.6913C189.221 47.7732 187.747 49.8141 184.761 49.8141C181.926 49.8141 180.339 47.811 180.339 44.0315V31.2189H173.611V44.9764C173.611 52.1575 177.806 56.5039 184.836 56.5039C191.639 56.5039 195.986 52.1197 195.986 45.1275V31.2189H189.221V43.6913Z" fill="#FEFEFE"/>
<path d="M215.375 43.6913C215.375 47.7732 213.901 49.8141 210.915 49.8141C208.08 49.8141 206.493 47.811 206.493 44.0315V31.2189H199.765V44.9764C199.765 52.1575 203.961 56.5039 210.991 56.5039C217.794 56.5039 222.14 52.1197 222.14 45.1275V31.2189H215.375V43.6913Z" fill="#FEFEFE"/>
<path d="M251.772 19.5779C241.529 19.5779 233.252 27.8173 233.252 38.0598C233.252 48.2268 241.567 56.5039 251.772 56.5039C261.939 56.5039 270.216 48.2646 270.216 38.022C270.216 27.8551 261.976 19.5779 251.772 19.5779ZM251.772 49.1338C245.8 49.1338 241 44.1449 241 37.9842C241 31.8614 245.8 26.948 251.772 26.948C257.592 26.948 262.354 31.8992 262.354 37.9087C262.354 44.0693 257.63 49.0961 251.772 49.0961V49.1338ZM285.485 55.7858C293.044 55.7858 297.466 52.1575 297.466 45.9212C297.466 42.4441 296.03 40.1764 292.553 38.0976L284.351 33.1842L282.764 32.2394C281.819 31.6346 281.29 30.8409 281.29 30.0094C281.29 27.7795 282.726 27.0614 287.413 27.0614H295.614V20.2583H285.031C277.699 20.2583 273.466 23.6598 273.466 29.5937C273.466 32.7307 275.129 35.4142 278.191 37.3039L286.09 42.2929C288.811 43.9937 289.378 44.6362 289.378 45.8457C289.378 47.9622 287.45 48.9449 283.104 48.9449H273.58V55.748H285.523L285.485 55.7858Z" fill="#FEFEFE"/>
</svg>
