<svg width="1144" height="188" viewBox="0 0 1144 188" fill="none" xmlns="http://www.w3.org/2000/svg">
<path d="M87.9386 109.298H146.051C143.357 135.083 122.19 152.594 94.8659 152.594C63.1157 152.594 39.6397 127.578 39.6397 93.7114C39.6397 60.0368 63.5005 35.4063 95.8281 35.4063C112.569 35.4063 125.077 40.7943 139.509 54.8414L166.448 29.826C147.398 10.7758 121.421 0 94.6735 0C41.7564 0 0 41.1791 0 93.5189C0 145.859 41.9488 187.615 94.6735 187.615C134.313 187.615 170.297 162.215 182.035 125.462C185.499 114.108 187.23 101.024 187.23 83.1279V79.087H88.5159V108.913L87.9386 109.298Z" fill="#FEFEFE"/>
<path d="M285.175 122.767C285.175 143.549 277.67 153.94 262.469 153.94C248.037 153.94 239.955 143.742 239.955 124.499V59.2669H205.703V129.31C205.703 165.871 227.063 188 262.854 188C297.49 188 319.619 165.678 319.619 130.08V59.2669H285.175V122.767Z" fill="#FEFEFE"/>
<path d="M380.041 38.2927H401.015C433.535 38.2927 456.049 61.3838 456.049 95.0583C456.049 127.386 435.459 148.745 405.056 149.515L395.435 149.707V184.344H411.599C458.743 184.344 495.689 145.281 495.689 95.0583C495.689 73.3142 488.761 52.3398 475.292 35.5987C457.781 13.6622 433.15 3.27118 398.514 3.27118H341.748V184.151H380.041V37.9078V38.2927Z" fill="#FEFEFE"/>
<path d="M592.671 122.767C592.671 143.549 585.167 153.94 569.965 153.94C555.533 153.94 547.451 143.742 547.451 124.499V59.2669H513.2V129.31C513.2 165.871 534.559 188 570.35 188C604.987 188 627.116 165.678 627.116 130.08V59.2669H592.671V122.767Z" fill="#FEFEFE"/>
<path d="M725.83 122.767C725.83 143.549 718.326 153.94 703.124 153.94C688.692 153.94 680.61 143.742 680.61 124.499V59.2669H646.358V129.31C646.358 165.871 667.718 188 703.509 188C738.145 188 760.274 165.678 760.274 130.08V59.2669H725.83V122.767Z" fill="#FEFEFE"/>
<path d="M911.136 0C858.988 0 816.847 41.9488 816.847 94.0962C816.847 145.859 859.181 188 911.136 188C962.898 188 1005.04 146.051 1005.04 93.9038C1005.04 42.1412 963.091 0 911.136 0ZM911.136 150.477C880.733 150.477 856.294 125.077 856.294 93.7114C856.294 62.5384 880.733 37.523 911.136 37.523C940.769 37.523 965.015 62.7308 965.015 93.3265C965.015 124.692 940.962 150.285 911.136 150.285V150.477ZM1082.78 184.344C1121.26 184.344 1143.78 165.871 1143.78 134.121C1143.78 116.418 1136.47 104.872 1118.76 94.2886L1077.01 69.2733L1068.92 64.4626C1064.11 61.3838 1061.42 57.3429 1061.42 53.1095C1061.42 41.7564 1068.73 38.1003 1092.59 38.1003H1134.35V3.46366H1080.47C1043.14 3.46366 1021.59 20.782 1021.59 50.9928C1021.59 66.9642 1030.05 80.6264 1045.64 90.2477L1085.86 115.648C1099.71 124.307 1102.6 127.578 1102.6 133.736C1102.6 144.512 1092.79 149.515 1070.66 149.515H1022.17V184.151H1082.97L1082.78 184.344Z" fill="#FEFEFE"/>
</svg>
