<svg width="80" height="80" viewBox="0 0 80 80" fill="none" xmlns="http://www.w3.org/2000/svg">
<g clip-path="url(#clip0_255_245)">
<g opacity="0.1">
<path d="M72 70C72 70.0655 71.9872 70.1309 71.9615 70.1963C71.9358 70.2617 71.8972 70.3269 71.8459 70.3921C71.7946 70.4572 71.7305 70.5222 71.6536 70.5869C71.5768 70.6517 71.4873 70.7162 71.3851 70.7804C71.283 70.8446 71.1683 70.9084 71.041 70.9719C70.9137 71.0354 70.7741 71.0985 70.6221 71.1611C70.4701 71.2238 70.3058 71.2859 70.1294 71.3476C69.953 71.4092 69.7646 71.4703 69.5641 71.5307C69.3637 71.5912 69.1516 71.651 68.9277 71.7102C68.7037 71.7694 68.4683 71.8279 68.2215 71.8856C67.9746 71.9433 67.7166 72.0003 67.4473 72.0564C67.1781 72.1126 66.898 72.1679 66.607 72.2223C66.3161 72.2767 66.0146 72.3302 65.7026 72.3828C65.3907 72.4354 65.0686 72.487 64.7363 72.5376C64.4041 72.5882 64.0621 72.6377 63.7104 72.6862C63.3587 72.7347 62.9977 72.7821 62.6274 72.8284C62.2571 72.8747 61.8779 72.9198 61.4899 72.9638C61.1018 73.0078 60.7054 73.0505 60.3006 73.092C59.8958 73.1336 59.483 73.1738 59.0624 73.2128C58.6417 73.2518 58.2137 73.2895 57.7782 73.3259C57.3428 73.3622 56.9005 73.3973 56.4513 73.4309C56.0021 73.4646 55.5466 73.4968 55.0847 73.5277C54.6228 73.5585 54.1552 73.588 53.6818 73.616C53.2083 73.6439 52.7297 73.6705 52.2459 73.6955C51.762 73.7206 51.2736 73.7441 50.7805 73.7662C50.2874 73.7882 49.7903 73.8088 49.2891 73.8278C48.788 73.8468 48.2834 73.8642 47.7754 73.8801C47.2674 73.896 46.7565 73.9104 46.2429 73.9231C45.7293 73.9359 45.2134 73.9471 44.6954 73.9567C44.1773 73.9663 43.6577 73.9743 43.1366 73.9807C42.6154 73.9872 42.0932 73.992 41.5702 73.9952C41.0471 73.9984 40.5237 74 40 74C39.4763 74 38.9529 73.9984 38.4298 73.9952C37.9068 73.992 37.3846 73.9872 36.8635 73.9807C36.3423 73.9743 35.8227 73.9663 35.3046 73.9567C34.7866 73.9471 34.2708 73.9359 33.7571 73.9231C33.2435 73.9104 32.7326 73.896 32.2246 73.8801C31.7166 73.8642 31.212 73.8468 30.7109 73.8278C30.2097 73.8088 29.7126 73.7882 29.2195 73.7662C28.7264 73.7441 28.238 73.7206 27.7541 73.6955C27.2703 73.6705 26.7917 73.6439 26.3182 73.616C25.8448 73.588 25.3772 73.5585 24.9153 73.5277C24.4534 73.4968 23.9979 73.4646 23.5487 73.4309C23.0995 73.3973 22.6572 73.3623 22.2218 73.3259C21.7863 73.2895 21.3583 73.2518 20.9376 73.2128C20.517 73.1738 20.1042 73.1336 19.6994 73.092C19.2946 73.0505 18.8982 73.0078 18.5101 72.9638C18.1221 72.9198 17.7429 72.8747 17.3726 72.8284C17.0023 72.7821 16.6413 72.7347 16.2896 72.6862C15.9379 72.6377 15.5959 72.5882 15.2637 72.5376C14.9314 72.487 14.6093 72.4354 14.2974 72.3828C13.9854 72.3302 13.6839 72.2767 13.393 72.2223C13.102 72.1679 12.8219 72.1126 12.5527 72.0564C12.2834 72.0003 12.0254 71.9433 11.7785 71.8856C11.5316 71.8279 11.2963 71.7694 11.0723 71.7102C10.8484 71.651 10.6363 71.5912 10.4359 71.5307C10.2354 71.4703 10.047 71.4092 9.87059 71.3476C9.69416 71.2859 9.52993 71.2238 9.37791 71.1611C9.22589 71.0985 9.08625 71.0354 8.959 70.9719C8.83175 70.9084 8.71704 70.8446 8.61487 70.7804C8.5127 70.7162 8.42319 70.6517 8.34635 70.5869C8.26951 70.5222 8.20542 70.4572 8.15409 70.3921C8.10276 70.3269 8.06424 70.2617 8.03855 70.1963C8.01285 70.1309 8 70.0655 8 70C8 69.9345 8.01285 69.8691 8.03855 69.8037C8.06424 69.7383 8.10276 69.6731 8.15409 69.6079C8.20542 69.5428 8.26951 69.4778 8.34635 69.4131C8.42319 69.3483 8.5127 69.2838 8.61487 69.2196C8.71704 69.1554 8.83175 69.0916 8.959 69.0281C9.08625 68.9646 9.22589 68.9015 9.37791 68.8389C9.52993 68.7762 9.69416 68.7141 9.87059 68.6524C10.047 68.5908 10.2354 68.5297 10.4359 68.4693C10.6363 68.4088 10.8484 68.349 11.0723 68.2898C11.2963 68.2306 11.5316 68.1721 11.7785 68.1144C12.0254 68.0567 12.2834 67.9997 12.5527 67.9436C12.8219 67.8874 13.102 67.8321 13.393 67.7777C13.6839 67.7233 13.9854 67.6698 14.2974 67.6172C14.6093 67.5646 14.9314 67.513 15.2637 67.4624C15.5959 67.4118 15.9379 67.3623 16.2896 67.3138C16.6413 67.2653 17.0023 67.2179 17.3726 67.1716C17.7429 67.1253 18.1221 67.0802 18.5101 67.0362C18.8982 66.9922 19.2946 66.9495 19.6994 66.908C20.1042 66.8664 20.517 66.8262 20.9376 66.7872C21.3583 66.7482 21.7863 66.7105 22.2218 66.6741C22.6572 66.6377 23.0995 66.6027 23.5487 66.5691C23.9979 66.5354 24.4534 66.5032 24.9153 66.4723C25.3772 66.4415 25.8448 66.412 26.3182 66.384C26.7917 66.3561 27.2703 66.3295 27.7541 66.3045C28.238 66.2794 28.7264 66.2559 29.2195 66.2338C29.7126 66.2118 30.2097 66.1912 30.7109 66.1722C31.212 66.1532 31.7166 66.1358 32.2246 66.1199C32.7326 66.104 33.2435 66.0896 33.7571 66.0769C34.2708 66.0641 34.7866 66.0529 35.3046 66.0433C35.8227 66.0337 36.3423 66.0257 36.8635 66.0193C37.3846 66.0128 37.9068 66.008 38.4298 66.0048C38.9529 66.0016 39.4763 66 40 66C40.5237 66 41.0471 66.0016 41.5702 66.0048C42.0932 66.008 42.6154 66.0128 43.1366 66.0193C43.6577 66.0257 44.1773 66.0337 44.6954 66.0433C45.2134 66.0529 45.7293 66.0641 46.2429 66.0769C46.7565 66.0896 47.2674 66.104 47.7754 66.1199C48.2834 66.1358 48.788 66.1532 49.2891 66.1722C49.7903 66.1912 50.2874 66.2118 50.7805 66.2338C51.2736 66.2559 51.762 66.2794 52.2459 66.3045C52.7297 66.3295 53.2083 66.3561 53.6818 66.384C54.1552 66.412 54.6228 66.4415 55.0847 66.4723C55.5466 66.5032 56.0021 66.5354 56.4513 66.5691C56.9005 66.6027 57.3428 66.6377 57.7782 66.6741C58.2137 66.7105 58.6417 66.7482 59.0624 66.7872C59.483 66.8262 59.8958 66.8664 60.3006 66.908C60.7054 66.9495 61.1018 66.9922 61.4899 67.0362C61.8779 67.0802 62.2571 67.1253 62.6274 67.1716C62.9977 67.2179 63.3587 67.2653 63.7104 67.3138C64.0621 67.3623 64.4041 67.4118 64.7363 67.4624C65.0686 67.513 65.3907 67.5646 65.7026 67.6172C66.0146 67.6698 66.3161 67.7233 66.607 67.7777C66.898 67.8321 67.1781 67.8874 67.4473 67.9436C67.7166 67.9997 67.9746 68.0567 68.2215 68.1144C68.4683 68.1721 68.7037 68.2306 68.9277 68.2898C69.1516 68.349 69.3637 68.4088 69.5641 68.4693C69.7646 68.5297 69.953 68.5908 70.1294 68.6524C70.3058 68.7141 70.4701 68.7762 70.6221 68.8389C70.7741 68.9015 70.9137 68.9646 71.041 69.0281C71.1683 69.0916 71.283 69.1554 71.3851 69.2196C71.4873 69.2838 71.5768 69.3483 71.6536 69.4131C71.7305 69.4778 71.7946 69.5428 71.8459 69.6079C71.8972 69.6731 71.9358 69.7383 71.9615 69.8037C71.9872 69.8691 72 69.9345 72 70Z" fill="#FA9819"/>
</g>
<g opacity="0.5">
<path fill-rule="evenodd" clip-rule="evenodd" d="M68.9598 12.1996C65.8398 12.9996 65.1998 13.6796 64.3598 16.7996C63.5598 13.6796 62.8798 13.0396 59.7598 12.1996C62.8798 11.3996 63.5198 10.7196 64.3598 7.59961C65.1598 10.6796 65.8398 11.3596 68.9598 12.1996ZM63.8001 18.3596C62.6001 18.6796 62.3601 18.9196 62.0401 20.1196C61.7201 18.9196 61.4801 18.6796 60.2801 18.3596C61.4801 18.0396 61.7201 17.7996 62.0401 16.5996C62.3201 17.7996 62.6001 18.0396 63.8001 18.3596ZM12.9197 28.1196C13.4397 26.1596 13.8397 25.7596 15.7997 25.2396C13.8397 24.7196 13.3997 24.3196 12.9197 22.3596C12.3997 24.2796 11.9997 24.7196 10.0397 25.2396C11.9997 25.7596 12.3997 26.1596 12.9197 28.1196ZM10.3201 30.6393C9.64012 30.6393 9.12012 30.1193 9.12012 29.4393C9.12012 28.7993 9.68012 28.2393 10.3201 28.2393C11.0001 28.2393 11.5201 28.7593 11.5201 29.4393C11.5201 30.1193 11.0001 30.6393 10.3201 30.6393ZM72.4001 64.9996C70.8801 65.3996 70.5601 65.7196 70.2001 67.1996C69.8001 65.6796 69.4801 65.3596 68.0001 64.9996C69.4801 64.5996 69.8401 64.2796 70.2001 62.7996C70.5601 64.2796 70.8801 64.6396 72.4001 64.9996Z" fill="#FA9819"/>
</g>
<g opacity="0.5">
<path fill-rule="evenodd" clip-rule="evenodd" d="M67.1998 43.04V43.12C67.1998 43.16 67.1998 43.16 67.2398 43.2V59.2C67.2398 64.28 63.1198 68.4 58.0398 68.4H22.0398C16.9598 68.4 12.8398 64.28 12.8398 59.2V43.04C12.8398 42.96 12.8398 42.92 12.8798 42.84V42.8L21.4798 20.36C22.7198 16.56 26.2398 14 30.2398 14H49.7998C53.7998 14 57.3198 16.56 58.5598 20.36L67.1598 42.8V42.84C67.1598 42.92 67.1998 42.96 67.1998 43.04ZM23.7198 21.2C23.7198 21.2 23.7198 21.16 23.7598 21.16C24.6398 18.28 27.2798 16.4 30.2398 16.4H49.7598C52.7198 16.4 55.3598 18.28 56.2798 21.12C56.2798 21.12 56.2798 21.16 56.3198 21.16L64.2798 41.96H45.9998C45.3198 41.96 44.7998 42.48 44.7998 43.16C44.7998 45.8 42.6398 47.96 39.9998 47.96C37.3598 47.96 35.1998 45.8 35.1998 43.16C35.1998 42.48 34.6798 41.96 33.9998 41.96H15.7598L23.7198 21.2ZM64.7998 59.2004C64.7998 62.9604 61.7598 66.0004 57.9998 66.0004H21.9998C18.2398 66.0004 15.1998 62.9604 15.1998 59.2004V44.4004H32.9198C33.4798 47.8004 36.4398 50.4004 39.9998 50.4004C43.5598 50.4004 46.5198 47.8004 47.0798 44.4004H64.7998V59.2004Z" fill="#FA9819"/>
</g>
<g opacity="0.2">
<path d="M39.9998 45.1992C38.8798 45.1992 37.9998 44.3192 37.9998 43.1992V39.1992H19.7998L26.3598 22.0792L26.3998 21.9992C26.9598 20.3192 28.4798 19.1992 30.2398 19.1992H49.7598C51.5198 19.1992 53.0398 20.3192 53.5998 21.9992L53.6398 22.0792L60.1998 39.1992H41.9998V43.1992C41.9998 44.3192 41.1198 45.1992 39.9998 45.1992Z" fill="#FA9819"/>
</g>
</g>
<defs>
<clipPath id="clip0_255_245">
<rect width="80" height="80" fill="white"/>
</clipPath>
</defs>
</svg>
