<svg width="20" height="20" viewBox="0 0 20 20" fill="none" xmlns="http://www.w3.org/2000/svg">
<path d="M10 2.375C10.4832 2.375 10.875 2.76675 10.875 3.25V9.125H16.75C17.2332 9.125 17.625 9.51675 17.625 10C17.625 10.4832 17.2332 10.875 16.75 10.875H10.875V16.75C10.875 17.2332 10.4832 17.625 10 17.625C9.51675 17.625 9.125 17.2332 9.125 16.75V10.875H3.25C2.76675 10.875 2.375 10.4832 2.375 10C2.375 9.51675 2.76675 9.125 3.25 9.125H9.125V3.25C9.125 2.76675 9.51675 2.375 10 2.375Z" fill="white"/>
</svg>
