<svg width="20" height="20" viewBox="0 0 20 20" fill="none" xmlns="http://www.w3.org/2000/svg">
<path fill-rule="evenodd" clip-rule="evenodd" d="M7.82356 10.864C8.5382 10.8644 9.12206 11.449 9.12208 12.1641V16.2814C9.1219 16.9964 8.5381 17.5811 7.82356 17.5815H3.70947C2.9947 17.5814 2.41033 16.9966 2.41016 16.2814V12.1641C2.41017 11.4488 2.9946 10.8641 3.70947 10.864H7.82356ZM3.83356 16.1581H7.69948V12.2874H3.83356V16.1581Z" fill="#262626"/>
<path fill-rule="evenodd" clip-rule="evenodd" d="M16.2775 10.864C16.9922 10.8643 17.5768 11.4489 17.5768 12.1641V16.2814C17.5766 16.9965 16.9921 17.5813 16.2775 17.5815H12.1634C11.4489 17.5812 10.8651 16.9965 10.8649 16.2814V12.1641C10.8649 11.449 11.4488 10.8644 12.1634 10.864H16.2775ZM12.2883 16.1581H16.1534V12.2874H12.2883V16.1581Z" fill="#262626"/>
<path fill-rule="evenodd" clip-rule="evenodd" d="M13.1649 2.68067C13.6316 2.3031 14.3478 2.3293 14.7789 2.76072L17.2182 5.23206L17.299 5.32012C17.4763 5.53358 17.5768 5.79618 17.5768 6.08386L17.5712 6.20555C17.5428 6.4855 17.416 6.73664 17.2174 6.93566L14.7789 9.37818C14.58 9.57716 14.3285 9.7029 14.0487 9.73123L13.9271 9.73683C13.5987 9.73674 13.3026 9.60548 13.0753 9.37818L10.6367 6.93566C10.4381 6.73666 10.3114 6.48548 10.2829 6.20555L10.2773 6.08386C10.2773 5.75489 10.4095 5.45957 10.6367 5.23206L13.0753 2.76152L13.1649 2.68067ZM11.808 6.08306L13.9551 8.23097L16.0734 6.08386L13.9263 3.93595L11.808 6.08306Z" fill="#262626"/>
<path fill-rule="evenodd" clip-rule="evenodd" d="M7.82356 2.43089C8.53818 2.43129 9.12203 3.01589 9.12208 3.73101V7.8491C9.1217 8.56393 8.53799 9.14881 7.82356 9.14922H3.70947C2.99481 9.14909 2.41053 8.5641 2.41016 7.8491V3.73101C2.4102 3.01572 2.99461 2.43102 3.70947 2.43089H7.82356ZM3.83356 7.72502H7.69948V3.85429H3.83356V7.72502Z" fill="#262626"/>
</svg>
