<svg width="20" height="20" viewBox="0 0 20 20" fill="none" xmlns="http://www.w3.org/2000/svg">
<path d="M16.7189 15.4688C17.0645 15.4688 17.3439 15.7481 17.3458 16.0938C17.3458 16.2344 17.2989 16.3711 17.213 16.4805C16.8802 16.9037 16.3138 17.6238 16.0026 18.0195C15.8626 18.1974 15.6129 18.3008 15.3866 18.3008C14.7677 18.3007 14.4558 17.5816 14.8375 17.0945C14.8949 17.0213 14.9524 16.9481 15.0099 16.875H12.2657C11.8774 16.875 11.5626 16.5602 11.5626 16.1719C11.5626 15.7836 11.8774 15.4688 12.2657 15.4688H16.7189Z" fill="white"/>
<path fill-rule="evenodd" clip-rule="evenodd" d="M9.98058 1.69922C12.6563 1.69926 14.8243 3.86722 14.8243 6.54297C14.8243 9.21872 12.6563 11.3867 9.98058 11.3867C8.4181 11.3867 6.95323 11.9961 5.84972 13.1035C4.78136 14.1738 4.17784 15.5859 4.13878 17.0938C4.13399 17.2996 3.99999 17.75 3.39757 17.75C2.79508 17.75 2.65168 17.2967 2.65636 17.0859C2.67589 16.1523 2.86925 15.2441 3.23058 14.3887C3.59972 13.5137 4.12707 12.7285 4.80089 12.0547C5.47471 11.3789 6.25794 10.8496 7.13097 10.4805C7.13488 10.4785 7.14078 10.4765 7.14855 10.4727C5.9298 9.59375 5.13683 8.16016 5.13683 6.54297C5.13683 3.86719 7.3048 1.69922 9.98058 1.69922ZM9.98058 3.18359C8.12511 3.18359 6.6212 4.6875 6.6212 6.54297C6.6212 8.39844 8.12511 9.90234 9.98058 9.90234C11.836 9.9023 13.34 8.39841 13.34 6.54297C13.34 4.68753 11.836 3.18364 9.98058 3.18359Z" fill="white"/>
<path d="M15.3866 11.3875C15.6129 11.3875 15.8626 11.4908 16.0026 11.6687C16.3138 12.0645 16.8802 12.7846 17.213 13.2078C17.2989 13.3171 17.3458 13.4539 17.3458 13.5945C17.3439 13.9402 17.0645 14.2194 16.7189 14.2195H12.2657C11.8774 14.2195 11.5626 13.9047 11.5626 13.5164C11.5626 13.128 11.8774 12.8132 12.2657 12.8132H15.0099C14.9524 12.7401 14.8949 12.6669 14.8375 12.5938C14.4558 12.1066 14.7677 11.3875 15.3866 11.3875Z" fill="white"/>
</svg>
