<svg width="20" height="20" viewBox="0 0 20 20" fill="none" xmlns="http://www.w3.org/2000/svg">
<path d="M10.0002 1.5C11.2226 1.49996 12.2265 2.4544 12.2733 3.66115L12.2749 3.74713V5.01724H16.2967C17.5192 5.0172 18.5231 5.97164 18.5698 7.17839L18.5714 7.26437V9.21839C18.5714 9.5961 18.2615 9.9023 17.8791 9.9023H17.3846V16.2529C17.3847 17.4605 16.4185 18.4522 15.1969 18.4984L15.1099 18.5H4.89025C3.66778 18.5 2.66388 17.5456 2.61711 16.3389L2.61552 16.2529V9.9023H2.12102C1.76076 9.90229 1.46073 9.62934 1.43108 9.27467L1.42871 9.21839V7.26437C1.42871 6.02331 2.44714 5.01724 3.70344 5.01724H7.72545V3.74713C7.72545 2.50607 8.74388 1.5 10.0002 1.5ZM16 9.9023H4.00014V16.2529C4.00008 16.7152 4.36243 17.0986 4.82933 17.1302L4.89025 17.1322H6.94136C6.93935 17.1184 6.93777 17.1046 6.93661 17.0908L6.93424 17.0345V14.6897C6.93441 14.323 7.22721 14.0217 7.59804 14.0066C7.96887 13.9915 8.28578 14.268 8.31648 14.6334L8.31885 14.6897V17.0345C8.31885 17.0677 8.31648 17.1009 8.31173 17.1326H11.6886C11.6866 17.1187 11.685 17.1047 11.6839 17.0908L11.6815 17.0345V14.6897C11.6817 14.323 11.9745 14.0217 12.3453 14.0066C12.7161 13.9915 13.033 14.268 13.0637 14.6334L13.0661 14.6897V17.0345C13.0661 17.0677 13.0637 17.1009 13.059 17.1326L15.1099 17.1322C15.5779 17.1322 15.966 16.7743 15.998 16.3131L16 16.2529L16 9.9023ZM16.2967 6.38506H3.70344C3.21184 6.38506 2.81333 6.77874 2.81333 7.26437V8.53448H17.1868V7.26437C17.1869 6.80205 16.8245 6.41865 16.3576 6.38701L16.2967 6.38506ZM10.0002 2.86782C9.53218 2.86776 9.14407 3.22571 9.11204 3.68694L9.11006 3.74713V5.01724H10.8903V3.74713C10.8903 3.2615 10.4918 2.86782 10.0002 2.86782Z" fill="white"/>
</svg>
