<svg width="20" height="20" viewBox="0 0 20 20" fill="none" xmlns="http://www.w3.org/2000/svg">
<path d="M16.7017 11.394C17.1457 11.394 17.4999 11.7374 17.5 12.1525V16.7415C17.4999 17.1566 17.1463 17.4999 16.7025 17.5H3.29834C2.85428 17.5 2.50013 17.1567 2.5 16.7415V12.1525C2.50015 11.7374 2.85432 11.394 3.29834 11.394C3.74216 11.3943 4.09572 11.7375 4.09587 12.1525V15.9823H15.9041V12.1525C15.9043 11.7375 16.2578 11.3943 16.7017 11.394Z" fill="white"/>
<path d="M10 2.5C10.444 2.50001 10.7974 2.84335 10.7975 3.25846V10.7544L12.9468 8.65804C13.1027 8.50596 13.3098 8.42942 13.5181 8.42936C13.7205 8.42937 13.9231 8.50179 14.078 8.64665C14.3905 8.93955 14.3953 9.41724 14.0894 9.71598L10.5713 13.1486C10.4216 13.2947 10.2156 13.3781 10 13.3781C9.78457 13.378 9.57834 13.2946 9.42871 13.1486L5.91146 9.7168C5.6051 9.4179 5.61012 8.94031 5.92285 8.64746C6.23792 8.35251 6.74485 8.35719 7.05322 8.65804L9.20247 10.7544V3.25846C9.20265 2.84337 9.55604 2.50005 10 2.5Z" fill="white"/>
</svg>
