<svg width="20" height="20" viewBox="0 0 20 20" fill="none" xmlns="http://www.w3.org/2000/svg">
<path d="M13.0632 6.71993C13.3762 6.40479 13.8825 6.40487 14.1955 6.71993L16.8852 9.43005C17.1982 9.74522 17.1982 10.2549 16.8852 10.5701L14.1955 13.2783C14.039 13.4358 13.8342 13.5156 13.6294 13.5156C13.4246 13.5156 13.2197 13.4378 13.0632 13.2802C12.7504 12.9651 12.7504 12.4553 13.0632 12.1402L14.3878 10.8065H7.27125C6.82888 10.8064 6.4713 10.4465 6.4713 10.0011C6.4713 9.55561 6.82888 9.19574 7.27125 9.19561H14.3897L13.0632 7.86001C12.7504 7.54486 12.7504 7.03507 13.0632 6.71993Z" fill="#262626"/>
<path d="M15.4004 2.2002C16.7256 2.20041 17.7996 3.27444 17.7998 4.59961V5.2002C17.7998 5.64192 17.4417 6 17 6C16.5583 6 16.2002 5.64192 16.2002 5.2002V4.59961C16.2 4.15809 15.8419 3.80002 15.4004 3.7998H4.59961C4.15809 3.80002 3.80002 4.15809 3.7998 4.59961V15.4004C3.80002 15.8419 4.15809 16.2 4.59961 16.2002H15.4004C15.8419 16.2 16.2 15.8419 16.2002 15.4004V14.7998C16.2002 14.3581 16.5583 14 17 14C17.4417 14 17.7998 14.3581 17.7998 14.7998V15.4004C17.7996 16.7256 16.7256 17.7996 15.4004 17.7998H4.59961C3.27444 17.7996 2.20041 16.7256 2.2002 15.4004V4.59961C2.20041 3.27444 3.27444 2.20041 4.59961 2.2002H15.4004Z" fill="#262626"/>
</svg>
