<svg width="20" height="20" viewBox="0 0 20 20" fill="none" xmlns="http://www.w3.org/2000/svg">
<path d="M17.8906 7.31055C18.1849 8.17201 18.333 9.07551 18.333 9.99805C18.333 11.1233 18.1135 12.2161 17.6797 13.2432C17.2589 14.2355 16.6587 15.1271 15.8936 15.8926C15.1284 16.658 14.237 17.2578 13.2451 17.6787C12.2161 18.1127 11.1259 18.333 10.001 18.333C9.08973 18.333 8.19809 18.1871 7.3457 17.9014C7.44381 17.8599 7.54229 17.8163 7.64258 17.7705C8.12428 17.5459 8.62128 17.2772 9.12695 16.9697C9.41468 17.0046 9.70454 17.0244 10.001 17.0244C13.8748 17.0244 17.0252 13.8734 17.0254 9.99805C17.0254 9.695 17.0058 9.3959 16.9688 9.10156C17.2608 8.61749 17.5159 8.14196 17.7295 7.67969C17.7862 7.55537 17.8405 7.43268 17.8906 7.31055Z" fill="#262626"/>
<path fill-rule="evenodd" clip-rule="evenodd" d="M9.99902 1.66602C11.1239 1.66604 12.2164 1.88633 13.2432 2.32031C14.235 2.74123 15.1264 3.34195 15.8916 4.10742C15.9896 4.2055 16.086 4.30773 16.1797 4.41016C16.1143 4.84852 15.9615 5.3658 15.7217 5.93066C14.4464 4.14234 12.3578 2.97271 9.99902 2.97266C6.12503 2.97266 2.97461 6.12449 2.97461 10C2.97466 12.3728 4.15858 14.4754 5.96582 15.749C5.40337 15.9933 4.89942 16.152 4.46777 16.2305C4.34579 16.1215 4.22603 16.0103 4.1084 15.8926C3.76174 15.5448 3.4503 15.1696 3.17188 14.7725C3.22271 14.8452 3.27201 14.9191 3.3252 14.9902C3.19003 15.6838 3.2601 16.1946 3.51953 16.4541C3.69391 16.6263 3.97746 16.7158 4.35449 16.7158C5.8631 16.7158 8.84818 15.2824 12.042 12.083C13.8339 10.2904 15.2573 8.35789 16.0508 6.6416C16.7222 5.1892 16.8573 4.00687 16.4082 3.55762C16.2338 3.38548 15.9502 3.2959 15.5732 3.2959C15.4098 3.2959 15.2267 3.31375 15.0283 3.34863C14.5532 2.98888 14.0409 2.67948 13.4961 2.42871C14.1521 2.18018 14.7556 2.03614 15.2939 1.99902C16.3774 1.92487 17.0016 2.30424 17.333 2.63574C17.6665 2.96732 18.045 3.59101 17.9688 4.67676C17.9186 5.40728 17.673 6.25352 17.2393 7.19336C16.3825 9.04715 14.8666 11.1153 12.9678 13.0127C11.069 14.9099 9.00431 16.4281 7.15137 17.2852C6.21192 17.719 5.36596 17.9655 4.63574 18.0156C4.54206 18.0222 4.45043 18.0244 4.36328 18.0244C3.44578 18.0244 2.90072 17.682 2.59766 17.3789C2.26415 17.0475 1.88477 16.4235 1.96094 15.3398C2.00017 14.7795 2.15213 14.1487 2.41797 13.4619C2.3851 13.3906 2.35127 13.3194 2.32031 13.2471C1.88655 12.2178 1.66699 11.1272 1.66699 10.002C1.667 8.87667 1.88653 7.78399 2.32031 6.75684C2.74105 5.76454 3.34127 4.87291 4.10645 4.10742C4.87165 3.34192 5.76295 2.74123 6.75488 2.32031C7.78384 1.88635 8.87416 1.66602 9.99902 1.66602Z" fill="#262626"/>
<path d="M5.24121 9.37109C5.28312 9.37945 5.32379 9.39186 5.36328 9.4082C5.40292 9.42464 5.44088 9.4449 5.47656 9.46875C5.51227 9.49263 5.54581 9.51941 5.57617 9.5498C5.60653 9.58019 5.63337 9.61369 5.65723 9.64941C5.68105 9.68512 5.70136 9.72303 5.71777 9.7627C5.7341 9.80218 5.74652 9.84286 5.75488 9.88477C5.76325 9.92684 5.76756 9.9698 5.76758 10.0127C5.76758 10.0557 5.76326 10.0985 5.75488 10.1406C5.7465 10.1828 5.73421 10.224 5.71777 10.2637C5.70135 10.3033 5.68105 10.3413 5.65723 10.377C5.63347 10.4125 5.60637 10.4453 5.57617 10.4756C5.54581 10.506 5.51227 10.5337 5.47656 10.5576C5.44095 10.5814 5.40284 10.6008 5.36328 10.6172C5.32371 10.6336 5.28322 10.6469 5.24121 10.6553C5.19909 10.6637 5.15622 10.667 5.11328 10.667C5.07037 10.667 5.02744 10.6637 4.98535 10.6553C4.94335 10.6469 4.90285 10.6336 4.86328 10.6172C4.82368 10.6008 4.78565 10.5814 4.75 10.5576C4.71435 10.5338 4.68169 10.5059 4.65137 10.4756C4.62104 10.4452 4.59317 10.4126 4.56934 10.377C4.5455 10.3412 4.52522 10.3033 4.50879 10.2637C4.49236 10.224 4.48006 10.1828 4.47168 10.1406C4.46331 10.0985 4.45898 10.0557 4.45898 10.0127C4.459 9.9698 4.46332 9.92684 4.47168 9.88477C4.48003 9.84288 4.49248 9.80217 4.50879 9.7627C4.52519 9.72306 4.54553 9.68509 4.56934 9.64941C4.59319 9.61368 4.621 9.58019 4.65137 9.5498C4.68162 9.51958 4.71445 9.49252 4.75 9.46875C4.78571 9.44487 4.82361 9.42465 4.86328 9.4082C4.90277 9.39185 4.94345 9.37947 4.98535 9.37109C5.02744 9.36272 5.07037 9.3584 5.11328 9.3584C5.15622 9.3584 5.19909 9.36271 5.24121 9.37109Z" fill="#262626"/>
<path d="M9.00684 8.36621C9.36816 8.36621 9.66127 8.65895 9.66113 9.02051C9.66149 9.38225 9.36829 9.67578 9.00684 9.67578C8.64542 9.67573 8.35219 9.38222 8.35254 9.02051C8.3524 8.65898 8.64555 8.36626 9.00684 8.36621Z" fill="#262626"/>
<path d="M9.97949 4.04395C10.051 4.04395 10.1222 4.05048 10.1924 4.06445C10.2625 4.07842 10.3304 4.09959 10.3965 4.12695C10.4625 4.15434 10.5255 4.18779 10.585 4.22754C10.6444 4.26728 10.6994 4.31271 10.75 4.36328C10.8005 4.41384 10.846 4.46889 10.8857 4.52832C10.9255 4.58788 10.9589 4.6516 10.9863 4.71777C11.0136 4.78384 11.0349 4.85175 11.0488 4.92188C11.0628 4.9921 11.0693 5.06316 11.0693 5.13477C11.0693 5.20637 11.0628 5.27742 11.0488 5.34766C11.0349 5.41791 11.0137 5.48656 10.9863 5.55273C10.959 5.61875 10.9254 5.68178 10.8857 5.74121C10.846 5.80068 10.8005 5.85566 10.75 5.90625C10.6994 5.95685 10.6444 6.00223 10.585 6.04199C10.5255 6.08176 10.4626 6.11518 10.3965 6.14258C10.3304 6.16995 10.2625 6.19111 10.1924 6.20508C10.1222 6.21905 10.051 6.22558 9.97949 6.22559C9.90792 6.22559 9.8368 6.21905 9.7666 6.20508C9.69649 6.19111 9.62855 6.16995 9.5625 6.14258C9.49644 6.11519 9.43348 6.08174 9.37402 6.04199C9.31458 6.00224 9.25955 5.95683 9.20898 5.90625C9.15845 5.85568 9.11296 5.80066 9.07324 5.74121C9.03357 5.68179 9.00001 5.61874 8.97266 5.55273C8.94527 5.48656 8.92412 5.41791 8.91016 5.34766C8.8962 5.27742 8.88965 5.20638 8.88965 5.13477C8.88965 5.06316 8.8962 4.9921 8.91016 4.92188C8.9241 4.85174 8.94533 4.78384 8.97266 4.71777C9.00005 4.6516 9.03348 4.58788 9.07324 4.52832C9.11295 4.46891 9.15848 4.41382 9.20898 4.36328C9.25953 4.31273 9.31461 4.26727 9.37402 4.22754C9.43346 4.18781 9.49646 4.15433 9.5625 4.12695C9.62854 4.09959 9.6965 4.07841 9.7666 4.06445C9.8368 4.05048 9.90792 4.04395 9.97949 4.04395Z" fill="#262626"/>
</svg>
