<svg width="20" height="20" viewBox="0 0 20 20" fill="none" xmlns="http://www.w3.org/2000/svg">
<path fill-rule="evenodd" clip-rule="evenodd" d="M9.99999 6.66699C11.8409 6.66709 13.3333 8.15944 13.3333 10.0003C13.3333 11.8412 11.8409 13.3336 9.99999 13.3337C8.15904 13.3337 6.66666 11.8413 6.66666 10.0003C6.66666 8.15938 8.15904 6.66699 9.99999 6.66699ZM9.99999 8.16683C8.98747 8.16683 8.16649 8.9878 8.16649 10.0003C8.16649 11.0128 8.98747 11.8338 9.99999 11.8338C11.0124 11.8337 11.8335 11.0128 11.8335 10.0003C11.8335 8.98787 11.0124 8.16693 9.99999 8.16683Z" fill="white"/>
<path fill-rule="evenodd" clip-rule="evenodd" d="M12.9753 1.66699C14.2009 1.66699 15.3234 2.35413 15.8813 3.44434L18.4733 8.51514C18.9502 9.44842 18.9502 10.5533 18.4733 11.4855L15.8813 16.5563L15.7698 16.7557C15.1828 17.73 14.1246 18.3337 12.9753 18.3337H7.07519L6.84813 18.3255C5.72229 18.247 4.70986 17.5901 4.18293 16.5799L1.53645 11.5099C1.07364 10.6232 1.04436 9.57645 1.44937 8.66976L1.53645 8.49072L4.18293 3.41992C4.71005 2.41007 5.72239 1.75344 6.84813 1.67513L7.07519 1.66699H12.9753ZM7.07519 3.16683C6.41862 3.16691 5.81642 3.53219 5.51269 4.11409L2.8662 9.1849C2.59962 9.69579 2.59962 10.3049 2.8662 10.8158L5.51269 15.8857C5.81638 16.4678 6.41871 16.8336 7.07519 16.8338H12.9753C13.6382 16.8338 14.2442 16.4622 14.5451 15.8735L17.137 10.8027L17.1378 10.8019C17.395 10.299 17.3949 9.70266 17.137 9.19792L14.5459 4.12712C14.2442 3.53767 13.6372 3.16683 12.9753 3.16683H7.07519Z" fill="white"/>
</svg>
