<svg width="40" height="16" viewBox="0 0 40 16" fill="none" xmlns="http://www.w3.org/2000/svg">
<g filter="url(#filter0_i_737_3507)">
<path d="M8.60742 3.63086H33.4899C36.6062 3.63086 39.1324 6.15709 39.1324 9.27336C39.1324 12.3896 36.6062 14.9159 33.4899 14.9159H8.60742V3.63086Z" fill="url(#paint0_linear_737_3507)"/>
</g>
<path d="M33.4902 3.83691C36.4924 3.83707 38.9258 6.27122 38.9258 9.27344C38.9257 12.2756 36.4924 14.7098 33.4902 14.71H8.81348V3.83691H33.4902Z" stroke="#3F2600" stroke-width="0.412644"/>
<g filter="url(#filter1_d_737_3507)">
<mask id="path-3-outside-1_737_3507" maskUnits="userSpaceOnUse" x="17" y="4.5" width="19" height="9" fill="black">
<rect fill="white" x="17" y="4.5" width="19" height="9"/>
<path d="M32.9902 7.19531C33.4776 7.19536 33.8976 7.29781 34.25 7.50195C34.6022 7.7028 34.8744 7.98525 35.0654 8.35059C35.2598 8.71626 35.3574 9.14903 35.3574 9.64648C35.3574 10.0943 35.2935 10.5081 35.165 10.8867C35.0366 11.2621 34.8475 11.5892 34.6006 11.8691C34.3535 12.1458 34.0545 12.3628 33.7021 12.5176C33.353 12.6724 32.9554 12.749 32.5107 12.749C32.0498 12.749 31.636 12.6513 31.2705 12.457C30.9051 12.2594 30.617 11.9777 30.4062 11.6123C30.1956 11.2436 30.0899 10.8058 30.0898 10.2988C30.0898 9.86733 30.1579 9.4634 30.293 9.08789C30.428 8.71233 30.6223 8.38195 30.876 8.09863C31.1327 7.81576 31.4387 7.5955 31.7939 7.4375C32.1496 7.27612 32.5489 7.19536 32.9902 7.19531ZM21.0586 5.5C21.9085 5.5 22.5652 5.70954 23.0264 6.12793C23.4905 6.54294 23.7226 7.12943 23.7227 7.88672C23.7226 8.41362 23.6138 8.87052 23.3965 9.25586C23.1791 9.6378 22.8695 9.93315 22.4678 10.1406C22.0693 10.3481 21.5948 10.4511 21.0449 10.4512H20.0742L19.7002 12.5762H18L19.2461 5.5H21.0586ZM28.6953 7.19531C29.1266 7.19538 29.4907 7.30005 29.7871 7.51074L29.3672 9.89258H27.8838L28.0957 8.69238C27.6828 8.71814 27.339 8.90327 27.0645 9.25098C26.7681 9.62325 26.552 10.1983 26.417 10.9756L26.1348 12.5762H24.4902L25.1846 8.6123H24.208L24.4258 7.36816H26.8174L26.585 8.6875H26.6641C27.1582 7.69274 27.8356 7.19538 28.6953 7.19531ZM32.9209 8.66797C32.7169 8.66804 32.5407 8.71837 32.3926 8.82031C32.2476 8.91914 32.1268 9.05111 32.0312 9.21582C31.939 9.3805 31.8694 9.55897 31.8232 9.75C31.7805 9.93758 31.7598 10.1211 31.7598 10.2988C31.7599 10.5982 31.8312 10.8369 31.9727 11.0146C32.1175 11.189 32.3201 11.2773 32.5801 11.2773C32.7841 11.2773 32.9555 11.2266 33.0938 11.1279C33.2353 11.0259 33.349 10.8921 33.4346 10.7275C33.5234 10.563 33.5884 10.3868 33.6279 10.1992C33.6674 10.0085 33.6865 9.82406 33.6865 9.64648C33.6865 9.34681 33.6225 9.10915 33.4941 8.93457C33.369 8.75677 33.1777 8.66801 32.9209 8.66797ZM20.3477 8.90039H21.083C21.3795 8.90039 21.6091 8.81547 21.7705 8.64746C21.9319 8.47616 22.0127 8.2354 22.0127 7.92578C22.0126 7.63945 21.9398 7.42257 21.7949 7.27441C21.65 7.12625 21.438 7.05181 21.1582 7.05176H20.6738L20.3477 8.90039Z"/>
</mask>
<path d="M32.9902 7.19531C33.4776 7.19536 33.8976 7.29781 34.25 7.50195C34.6022 7.7028 34.8744 7.98525 35.0654 8.35059C35.2598 8.71626 35.3574 9.14903 35.3574 9.64648C35.3574 10.0943 35.2935 10.5081 35.165 10.8867C35.0366 11.2621 34.8475 11.5892 34.6006 11.8691C34.3535 12.1458 34.0545 12.3628 33.7021 12.5176C33.353 12.6724 32.9554 12.749 32.5107 12.749C32.0498 12.749 31.636 12.6513 31.2705 12.457C30.9051 12.2594 30.617 11.9777 30.4062 11.6123C30.1956 11.2436 30.0899 10.8058 30.0898 10.2988C30.0898 9.86733 30.1579 9.4634 30.293 9.08789C30.428 8.71233 30.6223 8.38195 30.876 8.09863C31.1327 7.81576 31.4387 7.5955 31.7939 7.4375C32.1496 7.27612 32.5489 7.19536 32.9902 7.19531ZM21.0586 5.5C21.9085 5.5 22.5652 5.70954 23.0264 6.12793C23.4905 6.54294 23.7226 7.12943 23.7227 7.88672C23.7226 8.41362 23.6138 8.87052 23.3965 9.25586C23.1791 9.6378 22.8695 9.93315 22.4678 10.1406C22.0693 10.3481 21.5948 10.4511 21.0449 10.4512H20.0742L19.7002 12.5762H18L19.2461 5.5H21.0586ZM28.6953 7.19531C29.1266 7.19538 29.4907 7.30005 29.7871 7.51074L29.3672 9.89258H27.8838L28.0957 8.69238C27.6828 8.71814 27.339 8.90327 27.0645 9.25098C26.7681 9.62325 26.552 10.1983 26.417 10.9756L26.1348 12.5762H24.4902L25.1846 8.6123H24.208L24.4258 7.36816H26.8174L26.585 8.6875H26.6641C27.1582 7.69274 27.8356 7.19538 28.6953 7.19531ZM32.9209 8.66797C32.7169 8.66804 32.5407 8.71837 32.3926 8.82031C32.2476 8.91914 32.1268 9.05111 32.0312 9.21582C31.939 9.3805 31.8694 9.55897 31.8232 9.75C31.7805 9.93758 31.7598 10.1211 31.7598 10.2988C31.7599 10.5982 31.8312 10.8369 31.9727 11.0146C32.1175 11.189 32.3201 11.2773 32.5801 11.2773C32.7841 11.2773 32.9555 11.2266 33.0938 11.1279C33.2353 11.0259 33.349 10.8921 33.4346 10.7275C33.5234 10.563 33.5884 10.3868 33.6279 10.1992C33.6674 10.0085 33.6865 9.82406 33.6865 9.64648C33.6865 9.34681 33.6225 9.10915 33.4941 8.93457C33.369 8.75677 33.1777 8.66801 32.9209 8.66797ZM20.3477 8.90039H21.083C21.3795 8.90039 21.6091 8.81547 21.7705 8.64746C21.9319 8.47616 22.0127 8.2354 22.0127 7.92578C22.0126 7.63945 21.9398 7.42257 21.7949 7.27441C21.65 7.12625 21.438 7.05181 21.1582 7.05176H20.6738L20.3477 8.90039Z" fill="#3F2600"/>
<path d="M32.9902 7.19531L32.9903 6.80696H32.9902L32.9902 7.19531ZM34.25 7.50195L34.0553 7.838L34.0576 7.83931L34.25 7.50195ZM35.0654 8.35059L34.7213 8.53053L34.7225 8.53286L35.0654 8.35059ZM35.3574 9.64648L35.7458 9.64654V9.64648H35.3574ZM35.165 10.8867L35.5325 11.0125L35.5328 11.0114L35.165 10.8867ZM34.6006 11.8691L34.8902 12.1278L34.8918 12.1261L34.6006 11.8691ZM33.7021 12.5176L33.546 12.162L33.5447 12.1626L33.7021 12.5176ZM32.5107 12.749L32.5107 13.1374H32.5108L32.5107 12.749ZM31.2705 12.457L31.0858 12.7986L31.0883 12.8L31.2705 12.457ZM30.4062 11.6123L30.069 11.8049L30.0698 11.8063L30.4062 11.6123ZM30.0898 10.2988H29.7015V10.2989L30.0898 10.2988ZM30.293 9.08789L29.9275 8.95646L29.9275 8.95648L30.293 9.08789ZM30.876 8.09863L30.5884 7.83764L30.5866 7.83958L30.876 8.09863ZM31.7939 7.4375L31.9518 7.79236L31.9544 7.79116L31.7939 7.4375ZM23.0264 6.12793L22.7654 6.41557L22.7675 6.41743L23.0264 6.12793ZM23.7227 7.88672L24.111 7.88675V7.88668L23.7227 7.88672ZM23.3965 9.25586L23.734 9.44797L23.7347 9.44664L23.3965 9.25586ZM22.4678 10.1406L22.2896 9.79557L22.2884 9.79616L22.4678 10.1406ZM21.0449 10.4512V10.8395H21.045L21.0449 10.4512ZM20.0742 10.4512V10.0628H19.7482L19.6917 10.3839L20.0742 10.4512ZM19.7002 12.5762V12.9645H20.0262L20.0827 12.6435L19.7002 12.5762ZM18 12.5762L17.6175 12.5088L17.5373 12.9645H18V12.5762ZM19.2461 5.5V5.11165H18.9202L18.8636 5.43265L19.2461 5.5ZM28.6953 7.19531L28.6954 6.80696H28.6953L28.6953 7.19531ZM29.7871 7.51074L30.1696 7.57817L30.2122 7.33644L30.0121 7.19422L29.7871 7.51074ZM29.3672 9.89258V10.2809H29.6931L29.7496 9.96001L29.3672 9.89258ZM27.8838 9.89258L27.5014 9.82505L27.4209 10.2809H27.8838V9.89258ZM28.0957 8.69238L28.4781 8.75991L28.5639 8.27407L28.0715 8.30478L28.0957 8.69238ZM27.0645 9.25098L27.3683 9.49286L27.3693 9.49163L27.0645 9.25098ZM26.417 10.9756L26.7994 11.043L26.7996 11.0421L26.417 10.9756ZM26.1348 12.5762V12.9645H26.4606L26.5172 12.6436L26.1348 12.5762ZM24.4902 12.5762L24.1077 12.5092L24.0279 12.9645H24.4902V12.5762ZM25.1846 8.6123L25.5671 8.67931L25.6469 8.22395H25.1846V8.6123ZM24.208 8.6123L23.8255 8.54535L23.7458 9.00066H24.208V8.6123ZM24.4258 7.36816V6.97981H24.0995L24.0432 7.3012L24.4258 7.36816ZM26.8174 7.36816L27.1998 7.43554L27.2801 6.97981H26.8174V7.36816ZM26.585 8.6875L26.2025 8.62012L26.1222 9.07585H26.585V8.6875ZM26.6641 8.6875V9.07585H26.9048L27.0119 8.86026L26.6641 8.6875ZM32.9209 8.66797L32.921 8.27961H32.9208L32.9209 8.66797ZM32.3926 8.82031L32.6114 9.14118L32.6128 9.14021L32.3926 8.82031ZM32.0312 9.21582L31.6953 9.02095L31.6924 9.02609L32.0312 9.21582ZM31.8232 9.75L31.4457 9.65887L31.4446 9.66373L31.8232 9.75ZM31.7598 10.2988H31.3714V10.299L31.7598 10.2988ZM31.9727 11.0146L31.6688 11.2566L31.6739 11.2628L31.9727 11.0146ZM32.5801 11.2773L32.58 11.6657H32.5801L32.5801 11.2773ZM33.0938 11.1279L33.3194 11.444L33.3209 11.4429L33.0938 11.1279ZM33.4346 10.7275L33.0928 10.5431L33.09 10.5483L33.4346 10.7275ZM33.6279 10.1992L34.0079 10.2793L34.0082 10.2779L33.6279 10.1992ZM33.6865 9.64648L34.0749 9.64659V9.64648H33.6865ZM33.4941 8.93457L33.1765 9.15816L33.1813 9.16464L33.4941 8.93457ZM20.3477 8.90039L19.9652 8.83291L19.8848 9.28874H20.3477V8.90039ZM21.7705 8.64746L22.0506 8.91654L22.0532 8.91375L21.7705 8.64746ZM22.0127 7.92578H22.401V7.92566L22.0127 7.92578ZM21.7949 7.27441L22.0726 7.00292L22.0726 7.00288L21.7949 7.27441ZM21.1582 7.05176L21.1583 6.6634H21.1582V7.05176ZM20.6738 7.05176V6.6634H20.348L20.2914 6.98428L20.6738 7.05176ZM32.9902 7.19531L32.9902 7.58367C33.4225 7.5837 33.7726 7.6742 34.0553 7.83799L34.25 7.50195L34.4447 7.16591C34.0226 6.92142 33.5327 6.80701 32.9903 6.80696L32.9902 7.19531ZM34.25 7.50195L34.0576 7.83931C34.3446 8.00295 34.5644 8.23047 34.7213 8.53053L35.0654 8.35059L35.4096 8.17064C35.1844 7.74002 34.8599 7.40266 34.4424 7.16459L34.25 7.50195ZM35.0654 8.35059L34.7225 8.53286C34.8816 8.83225 34.9691 9.19999 34.9691 9.64648H35.3574H35.7458C35.7458 9.09808 35.638 8.60028 35.4084 8.16831L35.0654 8.35059ZM35.3574 9.64648L34.9691 9.64643C34.969 10.0571 34.9104 10.4282 34.7973 10.762L35.165 10.8867L35.5328 11.0114C35.6765 10.5879 35.7457 10.1314 35.7458 9.64654L35.3574 9.64648ZM35.165 10.8867L34.7976 10.761C34.685 11.0901 34.5211 11.3723 34.3094 11.6122L34.6006 11.8691L34.8918 12.1261C35.174 11.8062 35.3882 11.434 35.5325 11.0125L35.165 10.8867ZM34.6006 11.8691L34.3109 11.6105C34.1016 11.8448 33.8484 12.0292 33.546 12.162L33.7021 12.5176L33.8583 12.8731C34.2607 12.6964 34.6055 12.4467 34.8902 12.1278L34.6006 11.8691ZM33.7021 12.5176L33.5447 12.1626C33.2531 12.2918 32.9106 12.3607 32.5107 12.3607L32.5107 12.749L32.5108 13.1374C33.0002 13.1374 33.4529 13.0529 33.8596 12.8726L33.7021 12.5176ZM32.5107 12.749L32.5108 12.3607C32.1063 12.3606 31.7563 12.2754 31.4528 12.1141L31.2705 12.457L31.0883 12.8C31.5158 13.0272 31.9932 13.1373 32.5107 13.1374L32.5107 12.749ZM31.2705 12.457L31.4553 12.1154C31.1542 11.9526 30.9181 11.7225 30.7427 11.4183L30.4062 11.6123L30.0698 11.8063C30.3159 12.233 30.6561 12.5662 31.0858 12.7986L31.2705 12.457ZM30.4062 11.6123L30.7435 11.4197C30.5722 11.1199 30.4783 10.7511 30.4782 10.2988L30.0898 10.2988L29.7015 10.2989C29.7016 10.8604 29.819 11.3673 30.069 11.8049L30.4062 11.6123ZM30.0898 10.2988H30.4782C30.4782 9.90882 30.5396 9.54964 30.6584 9.2193L30.293 9.08789L29.9275 8.95648C29.7763 9.37715 29.7015 9.82585 29.7015 10.2988H30.0898ZM30.293 9.08789L30.6584 9.21932C30.7775 8.88806 30.9469 8.60165 31.1653 8.35768L30.876 8.09863L30.5866 7.83958C30.2977 8.16225 30.0785 8.5366 29.9275 8.95646L30.293 9.08789ZM30.876 8.09863L31.1636 8.35962C31.3833 8.11751 31.6448 7.92886 31.9518 7.79235L31.7939 7.4375L31.6361 7.08265C31.2325 7.26214 30.8821 7.51401 30.5884 7.83765L30.876 8.09863ZM31.7939 7.4375L31.9544 7.79116C32.2535 7.65546 32.597 7.58371 32.9903 7.58367L32.9902 7.19531L32.9902 6.80696C32.5008 6.80701 32.0458 6.89678 31.6335 7.08384L31.7939 7.4375ZM21.0586 5.5V5.88835C21.8476 5.88835 22.3982 6.08245 22.7654 6.41557L23.0264 6.12793L23.2873 5.84029C22.7321 5.33663 21.9695 5.11165 21.0586 5.11165V5.5ZM23.0264 6.12793L22.7675 6.41743C23.1317 6.74305 23.3342 7.21398 23.3343 7.88675L23.7227 7.88672L24.111 7.88668C24.1109 7.04489 23.8493 6.34282 23.2852 5.83843L23.0264 6.12793ZM23.7227 7.88672L23.3343 7.88669C23.3343 8.35958 23.2369 8.74819 23.0582 9.06508L23.3965 9.25586L23.7347 9.44664C23.9907 8.99285 24.111 8.46767 24.111 7.88675L23.7227 7.88672ZM23.3965 9.25586L23.059 9.06375C22.8797 9.37864 22.6263 9.62167 22.2896 9.79557L22.4678 10.1406L22.646 10.4857C23.1127 10.2446 23.4784 9.89695 23.734 9.44797L23.3965 9.25586ZM22.4678 10.1406L22.2884 9.79616C21.9568 9.96884 21.5466 10.0627 21.0449 10.0628L21.0449 10.4512L21.045 10.8395C21.643 10.8394 22.1819 10.7273 22.6471 10.4851L22.4678 10.1406ZM21.0449 10.4512V10.0628H20.0742V10.4512V10.8395H21.0449V10.4512ZM20.0742 10.4512L19.6917 10.3839L19.3177 12.5089L19.7002 12.5762L20.0827 12.6435L20.4567 10.5185L20.0742 10.4512ZM19.7002 12.5762V12.1878H18V12.5762V12.9645H19.7002V12.5762ZM18 12.5762L18.3825 12.6435L19.6286 5.56735L19.2461 5.5L18.8636 5.43265L17.6175 12.5088L18 12.5762ZM19.2461 5.5V5.88835H21.0586V5.5V5.11165H19.2461V5.5ZM28.6953 7.19531L28.6953 7.58367C29.0619 7.58372 29.3434 7.67177 29.5621 7.82726L29.7871 7.51074L30.0121 7.19422C29.6381 6.92834 29.1913 6.80704 28.6954 6.80696L28.6953 7.19531ZM29.7871 7.51074L29.4047 7.44331L28.9847 9.82515L29.3672 9.89258L29.7496 9.96001L30.1696 7.57817L29.7871 7.51074ZM29.3672 9.89258V9.50422H27.8838V9.89258V10.2809H29.3672V9.89258ZM27.8838 9.89258L28.2662 9.9601L28.4781 8.75991L28.0957 8.69238L27.7133 8.62486L27.5014 9.82505L27.8838 9.89258ZM28.0957 8.69238L28.0715 8.30478C27.541 8.33788 27.0978 8.58204 26.7596 9.01032L27.0645 9.25098L27.3693 9.49163C27.5802 9.2245 27.8246 9.0984 28.1199 9.07998L28.0957 8.69238ZM27.0645 9.25098L26.7606 9.0091C26.4053 9.45538 26.1741 10.1049 26.0344 10.9091L26.417 10.9756L26.7996 11.0421C26.93 10.2917 27.1308 9.79112 27.3683 9.49286L27.0645 9.25098ZM26.417 10.9756L26.0345 10.9081L25.7523 12.5087L26.1348 12.5762L26.5172 12.6436L26.7994 11.043L26.417 10.9756ZM26.1348 12.5762V12.1878H24.4902V12.5762V12.9645H26.1348V12.5762ZM24.4902 12.5762L24.8728 12.6432L25.5671 8.67931L25.1846 8.6123L24.802 8.5453L24.1077 12.5092L24.4902 12.5762ZM25.1846 8.6123V8.22395H24.208V8.6123V9.00066H25.1846V8.6123ZM24.208 8.6123L24.5905 8.67926L24.8083 7.43512L24.4258 7.36816L24.0432 7.3012L23.8255 8.54535L24.208 8.6123ZM24.4258 7.36816V7.75652H26.8174V7.36816V6.97981H24.4258V7.36816ZM26.8174 7.36816L26.4349 7.30079L26.2025 8.62012L26.585 8.6875L26.9674 8.75488L27.1998 7.43554L26.8174 7.36816ZM26.585 8.6875V9.07585H26.6641V8.6875V8.29915H26.585V8.6875ZM26.6641 8.6875L27.0119 8.86026C27.463 7.95201 28.0279 7.58372 28.6953 7.58367L28.6953 7.19531L28.6953 6.80696C27.6433 6.80704 26.8533 7.43346 26.3163 8.51474L26.6641 8.6875ZM32.9209 8.66797L32.9208 8.27961C32.6503 8.27971 32.3945 8.34753 32.1724 8.50042L32.3926 8.82031L32.6128 9.14021C32.6869 9.08921 32.7836 9.05637 32.921 9.05632L32.9209 8.66797ZM32.3926 8.82031L32.1738 8.49944C31.9772 8.63347 31.8177 8.80996 31.6953 9.02097L32.0312 9.21582L32.3672 9.41067C32.4359 9.29225 32.518 9.20482 32.6114 9.14118L32.3926 8.82031ZM32.0312 9.21582L31.6924 9.02609C31.5823 9.22266 31.4999 9.43443 31.4457 9.65888L31.8232 9.75L32.2008 9.84112C32.2388 9.68352 32.2957 9.53835 32.3701 9.40555L32.0312 9.21582ZM31.8232 9.75L31.4446 9.66373C31.3957 9.87833 31.3714 10.0908 31.3714 10.2988H31.7598H32.1481C32.1481 10.1514 32.1653 9.99682 32.2019 9.83627L31.8232 9.75ZM31.7598 10.2988L31.3714 10.299C31.3716 10.6587 31.4576 10.9913 31.6688 11.2565L31.9727 11.0146L32.2765 10.7728C32.2047 10.6825 32.1482 10.5378 32.1481 10.2987L31.7598 10.2988ZM31.9727 11.0146L31.6739 11.2628C31.9032 11.5388 32.2222 11.6656 32.58 11.6657L32.5801 11.2773L32.5802 10.889C32.4179 10.889 32.3319 10.8393 32.2714 10.7665L31.9727 11.0146ZM32.5801 11.2773L32.5801 11.6657C32.8505 11.6657 33.1043 11.5975 33.3194 11.444L33.0938 11.1279L32.8681 10.8118C32.8066 10.8557 32.7178 10.889 32.58 10.889L32.5801 11.2773ZM33.0938 11.1279L33.3209 11.4429C33.5149 11.303 33.6674 11.1214 33.7791 10.9068L33.4346 10.7275L33.09 10.5483C33.0305 10.6628 32.9556 10.7487 32.8666 10.813L33.0938 11.1279ZM33.4346 10.7275L33.7763 10.912C33.8828 10.7148 33.9607 10.5034 34.0079 10.2793L33.6279 10.1992L33.2479 10.1192C33.2161 10.2701 33.164 10.4112 33.0928 10.5431L33.4346 10.7275ZM33.6279 10.1992L34.0082 10.2779C34.0527 10.0628 34.0748 9.85205 34.0749 9.64659L33.6865 9.64648L33.2982 9.64638C33.2981 9.79606 33.282 9.9542 33.2476 10.1206L33.6279 10.1992ZM33.6865 9.64648H34.0749C34.0749 9.29544 34.0002 8.96727 33.807 8.7045L33.4941 8.93457L33.1813 9.16464C33.2448 9.25104 33.2982 9.39818 33.2982 9.64648H33.6865ZM33.4941 8.93457L33.8117 8.71103C33.5998 8.40995 33.2776 8.27968 32.921 8.27961L32.9209 8.66797L32.9208 9.05632C33.0779 9.05635 33.1382 9.10358 33.1766 9.15811L33.4941 8.93457ZM20.3477 8.90039V9.28874H21.083V8.90039V8.51204H20.3477V8.90039ZM21.083 8.90039V9.28874C21.4556 9.28874 21.7976 9.17975 22.0506 8.91652L21.7705 8.64746L21.4905 8.3784C21.4205 8.4512 21.3034 8.51204 21.083 8.51204V8.90039ZM21.7705 8.64746L22.0532 8.91375C22.3016 8.65001 22.401 8.30229 22.401 7.92578H22.0127H21.6243C21.6243 8.1685 21.5621 8.30231 21.4878 8.38117L21.7705 8.64746ZM22.0127 7.92578L22.401 7.92566C22.4009 7.57661 22.3115 7.24725 22.0726 7.00292L21.7949 7.27441L21.5172 7.54591C21.5681 7.59789 21.6243 7.70229 21.6243 7.9259L22.0127 7.92578ZM21.7949 7.27441L22.0726 7.00288C21.8322 6.7571 21.5055 6.66347 21.1583 6.6634L21.1582 7.05176L21.1581 7.44011C21.3706 7.44015 21.4678 7.4954 21.5173 7.54595L21.7949 7.27441ZM21.1582 7.05176V6.6634H20.6738V7.05176V7.44011H21.1582V7.05176ZM20.6738 7.05176L20.2914 6.98428L19.9652 8.83291L20.3477 8.90039L20.7301 8.96787L21.0563 7.11924L20.6738 7.05176Z" fill="white" mask="url(#path-3-outside-1_737_3507)"/>
</g>
<mask id="mask0_737_3507" style="mask-type:alpha" maskUnits="userSpaceOnUse" x="8" y="3" width="32" height="12">
<path d="M15.9538 3.77835L33.4721 3.66688C36.5924 3.64702 39.1324 6.17097 39.1324 9.29131C39.1324 12.3977 36.6142 14.9159 33.5079 14.9159H8.60742L17.1918 5.84157L15.9538 3.77835Z" fill="url(#paint1_linear_737_3507)"/>
</mask>
<g mask="url(#mask0_737_3507)">
<rect x="8.11328" y="3.77832" width="32.1863" height="5.77702" fill="url(#paint2_linear_737_3507)"/>
</g>
<g opacity="0.5" filter="url(#filter2_f_737_3507)">
<path d="M9.75215 14.676L17.2676 7.05099L13.05 2.01249L2.8967 1.49512L8.93914 14.676H9.75215Z" fill="#FFE417"/>
</g>
<path d="M3.60449 1.28809L3.54297 1.37598L0.517578 5.72168L0.421875 5.8584L0.536133 5.98047L8.45801 14.3975L8.6084 14.5576L8.75781 14.3975L16.6797 5.98047L16.7939 5.8584L16.6982 5.72168L13.6729 1.37598L13.6113 1.28809H3.60449Z" fill="#FFD117" stroke="#3F2600" stroke-width="0.412644"/>
<path d="M11.837 5.83887L8.60796 14.2559L16.5293 5.83887H11.837Z" fill="#FFC917"/>
<path d="M16.5293 5.81578L13.5038 1.4707H3.71213L0.686624 5.81578H16.5293Z" fill="#FFDA61"/>
<path d="M16.5293 5.83921L13.5038 1.49414L11.837 5.83922L16.5293 5.83921Z" fill="#FFC117"/>
<path d="M13.5039 1.49414L8.60808 14.2563L3.71225 1.49414H13.5039Z" fill="#FFD036"/>
<path d="M11.8369 5.83921H5.37882L8.60787 1.49414L11.8369 5.83921Z" fill="#FFE96B"/>
<path d="M11.8373 5.83921L13.5039 1.49414H8.6083L11.8373 5.83921Z" fill="#FFE100"/>
<path d="M8.60787 14.2559L11.8369 5.83887H5.37882L8.60787 14.2559Z" fill="url(#paint3_linear_737_3507)"/>
<mask id="path-16-outside-2_737_3507" maskUnits="userSpaceOnUse" x="2.08984" y="4.26172" width="13" height="9" fill="black">
<rect fill="white" x="2.08984" y="4.26172" width="13" height="9"/>
<path d="M6.2998 5.26172L8.6084 8.57031L10.917 5.26172H14.127L8.6084 12.042L3.08984 5.26172H6.2998Z"/>
</mask>
<path d="M6.2998 5.26172L8.6084 8.57031L10.917 5.26172H14.127L8.6084 12.042L3.08984 5.26172H6.2998Z" fill="#3F2600"/>
<path d="M6.2998 5.26172L6.57053 5.07282L6.472 4.9316H6.2998V5.26172ZM8.6084 8.57031L8.33767 8.75921L8.6084 9.14721L8.87912 8.75921L8.6084 8.57031ZM10.917 5.26172V4.9316H10.7448L10.6463 5.07282L10.917 5.26172ZM14.127 5.26172L14.383 5.47011L14.8213 4.9316H14.127V5.26172ZM8.6084 12.042L8.35237 12.2504L8.6084 12.5649L8.86443 12.2504L8.6084 12.042ZM3.08984 5.26172V4.9316H2.39552L2.83381 5.47011L3.08984 5.26172ZM6.2998 5.26172L6.02908 5.45062L8.33767 8.75921L8.6084 8.57031L8.87912 8.38141L6.57053 5.07282L6.2998 5.26172ZM8.6084 8.57031L8.87912 8.75921L11.1877 5.45062L10.917 5.26172L10.6463 5.07282L8.33767 8.38141L8.6084 8.57031ZM10.917 5.26172V5.59183H14.127V5.26172V4.9316H10.917V5.26172ZM14.127 5.26172L13.8709 5.05333L8.35237 11.8336L8.6084 12.042L8.86443 12.2504L14.383 5.47011L14.127 5.26172ZM8.6084 12.042L8.86443 11.8336L3.34587 5.05333L3.08984 5.26172L2.83381 5.47011L8.35237 12.2504L8.6084 12.042ZM3.08984 5.26172V5.59183H6.2998V5.26172V4.9316H3.08984V5.26172Z" fill="white" mask="url(#path-16-outside-2_737_3507)"/>
<g clip-path="url(#clip0_737_3507)">
<mask id="mask1_737_3507" style="mask-type:luminance" maskUnits="userSpaceOnUse" x="0" y="1" width="18" height="14">
<path d="M3.60449 1.28809L3.54297 1.37598L0.517578 5.72168L0.421875 5.8584L0.536133 5.98047L8.45801 14.3975L8.6084 14.5576L8.75781 14.3975L16.6797 5.98047L16.7939 5.8584L16.6982 5.72168L13.6729 1.37598L13.6113 1.28809H3.60449Z" fill="#FFD117" stroke="#3F2600" stroke-width="0.412644"/>
</mask>
<g mask="url(#mask1_737_3507)">
<path d="M0.686523 1.4707H17.1923V8.07301H0.686523V1.4707Z" fill="url(#paint4_linear_737_3507)"/>
</g>
</g>
<defs>
<filter id="filter0_i_737_3507" x="8.60742" y="3.63086" width="30.5254" height="12.1104" filterUnits="userSpaceOnUse" color-interpolation-filters="sRGB">
<feFlood flood-opacity="0" result="BackgroundImageFix"/>
<feBlend mode="normal" in="SourceGraphic" in2="BackgroundImageFix" result="shape"/>
<feColorMatrix in="SourceAlpha" type="matrix" values="0 0 0 0 0 0 0 0 0 0 0 0 0 0 0 0 0 0 127 0" result="hardAlpha"/>
<feOffset dy="0.825289"/>
<feGaussianBlur stdDeviation="0.412644"/>
<feComposite in2="hardAlpha" operator="arithmetic" k2="-1" k3="1"/>
<feColorMatrix type="matrix" values="0 0 0 0 1 0 0 0 0 0.886538 0 0 0 0 0.432692 0 0 0 1 0"/>
<feBlend mode="normal" in2="shape" result="effect1_innerShadow_737_3507"/>
</filter>
<filter id="filter1_d_737_3507" x="16.5662" y="4.62589" width="20.1508" height="9.96814" filterUnits="userSpaceOnUse" color-interpolation-filters="sRGB">
<feFlood flood-opacity="0" result="BackgroundImageFix"/>
<feColorMatrix in="SourceAlpha" type="matrix" values="0 0 0 0 0 0 0 0 0 0 0 0 0 0 0 0 0 0 127 0" result="hardAlpha"/>
<feOffset dy="0.485442"/>
<feGaussianBlur stdDeviation="0.485442"/>
<feComposite in2="hardAlpha" operator="out"/>
<feColorMatrix type="matrix" values="0 0 0 0 0.247059 0 0 0 0 0.14902 0 0 0 0 0 0 0 0 0.2 0"/>
<feBlend mode="normal" in2="BackgroundImageFix" result="effect1_dropShadow_737_3507"/>
<feBlend mode="normal" in="SourceGraphic" in2="effect1_dropShadow_737_3507" result="shape"/>
</filter>
<filter id="filter2_f_737_3507" x="2.20665" y="0.805286" width="15.7508" height="14.5603" filterUnits="userSpaceOnUse" color-interpolation-filters="sRGB">
<feFlood flood-opacity="0" result="BackgroundImageFix"/>
<feBlend mode="normal" in="SourceGraphic" in2="BackgroundImageFix" result="shape"/>
<feGaussianBlur stdDeviation="0.344915" result="effect1_foregroundBlur_737_3507"/>
</filter>
<linearGradient id="paint0_linear_737_3507" x1="9.53669" y1="7.53927" x2="42.6139" y2="12.7595" gradientUnits="userSpaceOnUse">
<stop stop-color="#FFC038"/>
<stop offset="1" stop-color="#FFDD55"/>
</linearGradient>
<linearGradient id="paint1_linear_737_3507" x1="9.53669" y1="7.53927" x2="42.6139" y2="12.7595" gradientUnits="userSpaceOnUse">
<stop stop-color="#FF9000"/>
<stop offset="1" stop-color="#FFDD55"/>
</linearGradient>
<linearGradient id="paint2_linear_737_3507" x1="22.5558" y1="3.77832" x2="22.5558" y2="10.3806" gradientUnits="userSpaceOnUse">
<stop stop-color="white" stop-opacity="0.1"/>
<stop offset="1" stop-color="white" stop-opacity="0.3"/>
</linearGradient>
<linearGradient id="paint3_linear_737_3507" x1="8.60787" y1="5.83887" x2="8.60787" y2="14.2559" gradientUnits="userSpaceOnUse">
<stop stop-color="#F3DF04"/>
<stop offset="1" stop-color="#F0DC00"/>
</linearGradient>
<linearGradient id="paint4_linear_737_3507" x1="8.09296" y1="1.4707" x2="8.09296" y2="9.0162" gradientUnits="userSpaceOnUse">
<stop stop-color="white" stop-opacity="0.5"/>
<stop offset="1" stop-color="white" stop-opacity="0"/>
</linearGradient>
<clipPath id="clip0_737_3507">
<rect width="15.8427" height="12.7622" fill="white" transform="translate(0.686523 1.49414)"/>
</clipPath>
</defs>
</svg>
