<svg width="36" height="36" viewBox="0 0 36 36" fill="none" xmlns="http://www.w3.org/2000/svg">
<path d="M0 8C0 3.58172 3.58172 0 8 0H28C32.4183 0 36 3.58172 36 8V28C36 32.4183 32.4183 36 28 36H8C3.58172 36 0 32.4183 0 28V8Z" fill="white"/>
<rect x="6" y="6" width="24" height="24" rx="12" fill="#595959"/>
<path d="M18.8008 11.6974C18.9187 11.2846 19.296 11 19.7253 11C20.3641 11 20.8253 11.6114 20.6498 12.2257L17.1992 24.3026C17.0813 24.7154 16.704 25 16.2747 25C15.6359 25 15.1747 24.3886 15.3502 23.7743L18.8008 11.6974Z" fill="white"/>
</svg>

