<svg width="32" height="32" viewBox="0 0 32 32" fill="none" xmlns="http://www.w3.org/2000/svg">
<path d="M12.6191 18.5088L12.6631 18.5791C12.8444 18.8688 13.1209 19.1604 13.4912 19.4541C14.2316 20.0411 15.0679 20.335 16 20.335C16.936 20.3349 17.8385 20.0395 18.707 19.4482C19.1425 19.1518 19.4828 18.8561 19.7275 18.5625L19.7725 18.5088H19.8418C20.0105 18.5082 20.178 18.5513 20.3438 18.6387C20.6845 18.8184 20.8546 19.1296 20.8545 19.5713V19.6191L20.8281 19.6582C20.5685 20.028 20.1722 20.3955 19.6406 20.7607C18.5817 21.4884 17.3681 21.8525 16 21.8525C14.6276 21.8525 13.4857 21.4861 12.5752 20.7539C12.1164 20.3849 11.7952 20.0127 11.6113 19.6377L11.5967 19.6084L11.5957 19.5771C11.5897 19.4033 11.6227 19.2299 11.6943 19.0576C11.8464 18.6918 12.1269 18.5088 12.5361 18.5088H12.6191Z" fill="#262626"/>
<path d="M13.166 12.7129C13.5377 12.7129 13.8548 12.8439 14.1172 13.1064C14.3793 13.3688 14.5107 13.6855 14.5107 14.0566C14.5107 14.4276 14.3794 14.7446 14.1172 15.0068C13.8548 15.2692 13.5376 15.4004 13.166 15.4004C12.7956 15.4004 12.4786 15.2692 12.2158 15.0068C11.9529 14.7442 11.8213 14.4273 11.8213 14.0566C11.8213 13.6857 11.9537 13.3692 12.2168 13.1064C12.4796 12.8441 12.7957 12.7129 13.166 12.7129Z" fill="#262626"/>
<path d="M19.2852 12.7129C19.6565 12.7129 19.9739 12.8439 20.2363 13.1064C20.4985 13.3688 20.6299 13.6856 20.6299 14.0566C20.6299 14.4275 20.4987 14.7445 20.2363 15.0068C19.9738 15.2693 19.6565 15.4004 19.2852 15.4004C18.9145 15.4004 18.5975 15.2693 18.335 15.0068C18.0724 14.7444 17.9414 14.4274 17.9414 14.0566C17.9414 13.6857 18.0726 13.3689 18.335 13.1064C18.5974 12.8439 18.9144 12.7129 19.2852 12.7129Z" fill="#262626"/>
<path fill-rule="evenodd" clip-rule="evenodd" d="M16.002 6.09766C17.3246 6.09767 18.5887 6.34672 19.7939 6.8457C20.9989 7.34457 22.0688 8.0617 23.0039 8.99609C23.9519 9.94418 24.676 11.036 25.1758 12.2705C25.6583 13.4626 25.8994 14.7053 25.8994 15.998C25.8993 17.2906 25.6583 18.5328 25.1758 19.7246C24.676 20.9589 23.9518 22.0503 23.0039 22.998C22.0687 23.9326 20.9984 24.6493 19.793 25.1484C18.5871 25.6477 17.3227 25.8975 16 25.8975C14.6779 25.8975 13.4142 25.6483 12.209 25.1494C11.0039 24.6506 9.93377 23.9341 8.99902 23C8.06404 22.0647 7.34663 20.9942 6.84766 19.7891C6.34872 18.5841 6.09948 17.3203 6.09961 15.998C6.09961 14.676 6.34946 13.4121 6.84863 12.207C7.34792 11.0019 8.06488 9.931 9 8.99609C9.93471 8.0616 11.0048 7.34471 12.21 6.8457C13.4152 6.34668 14.6796 6.09766 16.002 6.09766ZM16.002 7.66797C13.7012 7.66797 11.737 8.4816 10.1104 10.1074C8.48382 11.7329 7.6709 13.6968 7.6709 15.998C7.67063 18.2989 8.48335 20.2623 10.1094 21.8887C11.7366 23.5147 13.7002 24.3281 16 24.3281C18.3009 24.3281 20.2654 23.514 21.8936 21.8867C23.5173 20.2632 24.3291 18.2999 24.3291 15.9971C24.329 13.6945 23.5172 11.7313 21.8936 10.1074C20.2669 8.48165 18.3031 7.66799 16.002 7.66797Z" fill="#262626"/>
</svg>

