<svg width="16" height="16" viewBox="0 0 16 16" fill="none" xmlns="http://www.w3.org/2000/svg">
<path d="M14.5461 10.5545C14.5761 10.8138 14.611 11.1055 14.6509 11.4296C14.6908 11.7537 14.7282 12.0853 14.7631 12.4244C14.798 12.7635 14.8354 13.1 14.8753 13.4341C14.9152 13.7682 14.9501 14.0699 14.98 14.3391C15.0399 14.8078 14.8354 15.0272 14.3666 14.9973C14.1172 14.9774 13.8354 14.9499 13.5212 14.915C13.207 14.8801 12.8853 14.8427 12.5561 14.8028C12.2269 14.763 11.9002 14.7231 11.576 14.6832C11.2518 14.6433 10.9551 14.6084 10.6857 14.5785C10.3964 14.5485 10.2119 14.4663 10.1321 14.3316C10.0523 14.197 10.0972 14.0449 10.2668 13.8754C10.3765 13.7757 10.5112 13.6385 10.6708 13.464C10.8304 13.2895 10.965 13.1474 11.0748 13.0377C11.1845 12.918 11.2194 12.8083 11.1795 12.7086C11.1396 12.6089 11.0598 12.4942 10.9401 12.3645C10.6608 12.0953 10.4064 11.851 10.177 11.6316C9.94756 11.4122 9.69319 11.1579 9.41388 10.8687C9.35403 10.8088 9.29418 10.744 9.23433 10.6742C9.17448 10.6044 9.12959 10.5271 9.09966 10.4423C9.06974 10.3576 9.06475 10.2678 9.0847 10.1731C9.10465 10.0783 9.16949 9.97612 9.27922 9.86642C9.33907 9.80658 9.38895 9.75423 9.42885 9.70935C9.46875 9.66447 9.50865 9.62458 9.54855 9.58968C9.58845 9.55478 9.63085 9.51488 9.67573 9.47001C9.72062 9.42513 9.77798 9.3628 9.84781 9.28302C10.0473 9.08357 10.2319 8.9988 10.4014 9.02872C10.571 9.05864 10.7555 9.17332 10.9551 9.37278C11.1546 9.57223 11.359 9.77417 11.5685 9.97861C11.778 10.183 12.0124 10.4149 12.2718 10.6742C12.4613 10.8537 12.6234 10.9784 12.7581 11.0482C12.8927 11.118 13.0249 11.0881 13.1546 10.9584C13.2444 10.8687 13.3566 10.7615 13.4912 10.6368C13.6259 10.5121 13.7431 10.4 13.8429 10.3002C14.0125 10.1307 14.1646 10.0659 14.2992 10.1058C14.4339 10.1457 14.5162 10.2952 14.5461 10.5545ZM1.49856 5.46851C1.46864 5.20922 1.43372 4.91753 1.39382 4.59342C1.35392 4.26931 1.31651 3.93772 1.2816 3.59865C1.24669 3.25959 1.20928 2.92301 1.16938 2.58893C1.12948 2.25485 1.09457 1.95318 1.06464 1.68392C1.03471 1.42463 1.06713 1.24513 1.1619 1.1454C1.25666 1.04567 1.42375 1.00578 1.66315 1.02573C1.91253 1.04567 2.19433 1.0731 2.50855 1.108C2.82277 1.14291 3.14447 1.1803 3.47365 1.22019C3.80283 1.26008 4.12952 1.29997 4.45372 1.33986C4.77791 1.37976 5.07467 1.41466 5.344 1.44458C5.64326 1.47449 5.83029 1.55677 5.90511 1.6914C5.97992 1.82603 5.93254 1.97811 5.76296 2.14764C5.66321 2.24737 5.54101 2.37701 5.39637 2.53657C5.25173 2.69614 5.12455 2.83077 5.01482 2.94046C4.89512 3.06013 4.85522 3.16983 4.89512 3.26956C4.93502 3.36928 5.01981 3.48397 5.14949 3.61361C5.27916 3.75323 5.40136 3.87539 5.51607 3.9801C5.63079 4.08482 5.74301 4.18953 5.85274 4.29424C5.96246 4.39895 6.07718 4.51114 6.19688 4.63082L6.57095 5.00479C6.6308 5.06462 6.68816 5.13443 6.74302 5.21421C6.79789 5.29399 6.83779 5.37876 6.86273 5.46851C6.88766 5.55827 6.88517 5.653 6.85525 5.75273C6.82532 5.85246 6.76048 5.95218 6.66073 6.05191L6.49614 6.21645C6.45624 6.25635 6.41883 6.29624 6.38392 6.33613C6.349 6.37602 6.30661 6.41591 6.25673 6.4558L6.09214 6.6353C5.89264 6.83475 5.72057 6.90955 5.57593 6.85969C5.43128 6.80982 5.25921 6.68517 5.05971 6.48571C4.8602 6.28626 4.67068 6.09928 4.49112 5.92476C4.31157 5.75024 4.09211 5.53333 3.83276 5.27405C3.6532 5.09454 3.4936 4.96988 3.35395 4.90008C3.2143 4.83027 3.07963 4.86019 2.94995 4.98983C2.86018 5.08955 2.73549 5.21172 2.57588 5.35632C2.41628 5.50092 2.2866 5.62309 2.18685 5.72281C2.01727 5.89235 1.86764 5.95717 1.73797 5.91728C1.60829 5.87739 1.52849 5.7278 1.49856 5.46851ZM14.3366 1.01077C14.596 0.980853 14.7756 1.01326 14.8753 1.108C14.9751 1.20274 15.015 1.37477 14.995 1.62408C14.9751 1.8734 14.9476 2.15512 14.9127 2.46926C14.8778 2.7834 14.8404 3.10501 14.8005 3.43411C14.7606 3.7632 14.7207 4.0898 14.6808 4.41391C14.6409 4.73802 14.606 5.03471 14.5761 5.30396C14.5461 5.59317 14.4638 5.77766 14.3292 5.85744C14.1945 5.93722 14.0424 5.88736 13.8728 5.70785C13.7731 5.60813 13.6434 5.48596 13.4838 5.34136C13.3242 5.19676 13.1895 5.06961 13.0798 4.95991C12.9601 4.85021 12.8503 4.81281 12.7506 4.84772C12.6508 4.88262 12.5361 4.9649 12.4064 5.09454C12.1371 5.3638 11.9002 5.60813 11.6957 5.82752C11.4912 6.04692 11.2493 6.29624 10.97 6.57547C10.9102 6.6353 10.8403 6.69265 10.7605 6.74749C10.6807 6.80234 10.5959 6.84223 10.5062 6.86717C10.4164 6.8921 10.3216 6.8896 10.2219 6.85969C10.1221 6.82977 10.0224 6.75996 9.92262 6.65026C9.86277 6.59043 9.8104 6.54056 9.76551 6.50067C9.72062 6.46078 9.67823 6.42089 9.63833 6.381C9.59843 6.34111 9.55603 6.30122 9.51114 6.26133C9.46625 6.22144 9.4089 6.16161 9.33907 6.08182C9.13957 5.88237 9.05976 5.70785 9.09967 5.55826C9.13957 5.40868 9.26426 5.23416 9.47374 5.0347L10.0423 4.43635C10.2319 4.2369 10.4563 4.00753 10.7156 3.74824C10.9052 3.56874 11.0349 3.40917 11.1047 3.26956C11.1745 3.12994 11.1396 3.0003 10.9999 2.88063C10.9102 2.79087 10.7955 2.66871 10.6558 2.51414C10.5161 2.35956 10.3964 2.23241 10.2967 2.13268C10.1271 1.96315 10.0623 1.81356 10.1022 1.68392C10.1421 1.55427 10.2917 1.47449 10.5511 1.44458C10.8104 1.41466 11.1022 1.37975 11.4264 1.33986C11.7506 1.29997 12.0847 1.26258 12.4289 1.22767C12.773 1.19277 13.1097 1.15537 13.4389 1.11548C13.7681 1.07559 14.0673 1.04069 14.3366 1.01077ZM6.06222 9.28302C6.12207 9.34286 6.17444 9.39272 6.21933 9.43261C6.26421 9.4725 6.30661 9.51239 6.34651 9.55228L6.46621 9.68691L6.64577 9.85146C6.84527 10.0509 6.93255 10.2329 6.90762 10.3975C6.88268 10.562 6.76547 10.749 6.55599 10.9584C6.36646 11.1479 6.16696 11.3498 5.95748 11.5642C5.748 11.7787 5.51358 12.0155 5.25423 12.2748C5.07467 12.4543 4.96245 12.6014 4.91756 12.7161C4.87267 12.8308 4.91507 12.9529 5.04475 13.0826C5.1445 13.1723 5.25672 13.2845 5.38141 13.4191C5.5061 13.5538 5.61832 13.671 5.71807 13.7707C5.88765 13.9402 5.95 14.0898 5.90511 14.2194C5.86022 14.3491 5.7081 14.4289 5.44874 14.4588C5.18939 14.4887 4.90011 14.5236 4.5809 14.5635C4.26169 14.6034 3.93002 14.6433 3.58587 14.6832C3.24173 14.7231 2.90257 14.763 2.5684 14.8028C2.23423 14.8427 1.93248 14.8776 1.66315 14.9076C1.41377 14.9275 1.23671 14.8901 1.13197 14.7954C1.02723 14.7006 0.984838 14.5336 1.00479 14.2942C1.02474 14.0449 1.05217 13.7632 1.08708 13.4491C1.122 13.1349 1.1594 12.8133 1.1993 12.4842C1.23921 12.1551 1.27911 11.8285 1.31901 11.5044C1.35891 11.1803 1.39382 10.8836 1.42375 10.6144C1.45367 10.3152 1.53597 10.1282 1.67063 10.0534C1.8053 9.97861 1.95742 10.026 2.127 10.1955C2.22675 10.2952 2.36391 10.4249 2.53848 10.5844C2.71304 10.744 2.85519 10.8786 2.96492 10.9883C3.08462 11.108 3.18437 11.1604 3.26417 11.1454C3.34397 11.1304 3.44373 11.0581 3.56343 10.9285C3.69311 10.7989 3.8178 10.6717 3.9375 10.547C4.0572 10.4224 4.1769 10.3002 4.29661 10.1806C4.41631 10.0609 4.5385 9.93622 4.66319 9.80658C4.78788 9.67694 4.92006 9.54231 5.05971 9.40269C5.11956 9.34286 5.1844 9.28302 5.25423 9.22319C5.32405 9.16335 5.40136 9.11847 5.48615 9.08856C5.57094 9.05864 5.66072 9.05615 5.75548 9.08108C5.85024 9.10601 5.95249 9.17332 6.06222 9.28302Z" fill="#262626"/>
</svg>

