<svg width="16" height="16" viewBox="0 0 16 16" fill="none" xmlns="http://www.w3.org/2000/svg">
<path fill-rule="evenodd" clip-rule="evenodd" d="M16 2.56936V13.4306C16 13.8666 15.8663 14.238 15.5988 14.545C15.3313 14.8519 15.0098 15.0036 14.6342 14.9999L12.3957 14.9999L12.3894 15L12.3858 14.9999L3.6152 14.9999L3.60897 15L3.60531 14.9999L1.36431 14.9999C0.988884 14.9964 0.668435 14.841 0.402961 14.5337C0.137487 14.2265 0.00320248 13.855 0.000108135 13.4193L0.000147083 9.69785C-3.50598e-05 9.68731 -4.80215e-05 9.67829 0.000108135 9.67078L0.000147083 6.31076C-3.50404e-05 6.30022 -4.80021e-05 6.2912 0.000108135 6.28369L0.000108395 2.56937C9.49747e-05 2.13343 0.133828 1.76198 0.401306 1.45502C0.668785 1.14806 0.990321 0.996407 1.36591 1.00006L14.6358 1.00007C15.009 1.00358 15.3282 1.15742 15.5932 1.46157C15.8582 1.76572 15.9938 2.13375 16 2.56564L16 2.56936ZM13.0732 5.51622V2.5806L14.0561 2.58058C14.2164 2.5829 14.3528 2.65003 14.4654 2.78198C14.578 2.91392 14.6343 3.07262 14.6342 3.25807V5.51622H13.0732ZM2.92695 5.51622H1.36587V3.25805C1.36586 3.07262 1.42214 2.91392 1.53474 2.78198C1.64733 2.65003 1.78292 2.58291 1.94152 2.5806H2.92695V5.51622ZM4.29271 9.71623V13.4194H11.7074L11.7074 9.69668C11.7073 9.68642 11.7073 9.67762 11.7074 9.67028L11.7074 6.30959C11.7073 6.29933 11.7073 6.29053 11.7074 6.2832V2.5806H4.2927L4.29267 6.3024C4.29285 6.31281 4.29286 6.32172 4.29271 6.32914L4.29267 9.68949C4.29285 9.6999 4.29286 9.70881 4.29271 9.71623ZM5.80351 6.13032C5.80351 5.85541 5.89082 5.65848 6.06545 5.53951C6.23334 5.42514 6.42579 5.42526 6.64279 5.53989L9.64534 7.19813C10.0126 7.40433 10.195 7.67487 10.1927 8.00975C10.1903 8.34209 10.0078 8.60806 9.64502 8.80767L9.20917 9.05366L6.6571 10.4517C6.43891 10.567 6.24452 10.5683 6.07393 10.4557C5.89365 10.3366 5.80351 10.1391 5.80351 9.86295V6.13032ZM2.92695 8.90331V7.09675H1.36587V8.90331H2.92695ZM13.0732 7.09675V8.90331H14.6342V7.09675H13.0732ZM2.92695 13.4194V10.4838H1.36587V12.7419C1.36586 12.9274 1.42214 13.0861 1.53474 13.218C1.64733 13.35 1.78374 13.4171 1.94396 13.4194L2.92695 13.4194ZM14.6342 12.7419V10.4838H13.0732V13.4194H14.0586C14.2172 13.4171 14.3528 13.35 14.4654 13.218C14.578 13.0861 14.6343 12.9274 14.6342 12.7419Z" fill="#333333"/>
</svg>

